<svg width="304" height="125" viewBox="0 0 304 125" fill="none" xmlns="http://www.w3.org/2000/svg">
<path d="M38.1604 97.68C29.7304 97.68 22.3904 96.51 16.1304 94.16C10.6704 92.11 5.58043 89.01 0.860426 84.84C-0.259574 83.85 -0.289574 82.1 0.790426 81.07L14.7704 67.72C15.5604 66.97 16.7904 66.91 17.6304 67.61C20.8104 70.28 24.1404 72.36 27.6004 73.86C31.5804 75.58 35.8504 76.45 40.3904 76.45C44.1904 76.45 47.0604 75.9 49.0104 74.79C50.9604 73.69 51.9304 72.16 51.9304 70.21C51.9304 68.26 51.1004 66.65 49.4304 65.37C47.7604 64.09 45.5604 62.94 42.8304 61.92C40.1004 60.9 37.0804 59.86 33.8004 58.8C30.5104 57.74 27.2404 56.46 24.0004 54.95C20.7604 53.45 17.7704 51.61 15.0404 49.44C12.3104 47.27 10.1104 44.58 8.44043 41.34C6.77043 38.11 5.94043 34.15 5.94043 29.46C5.94043 23.36 7.47043 18.1 10.5304 13.67C13.5904 9.25 17.8904 5.86999 23.4504 3.51999C29.0104 1.17999 35.5404 0 43.0504 0C50.5604 0 57.3404 1.12999 63.6904 3.37999C69.2504 5.35999 73.9804 8.06 77.8704 11.5C78.7504 12.28 78.7704 13.66 77.9204 14.47L63.5404 28.09C62.6604 28.92 61.3004 28.96 60.3804 28.18C57.8504 26.05 55.3204 24.41 52.7904 23.28C49.7304 21.91 46.4004 21.22 42.7804 21.22C39.9104 21.22 37.6104 21.67 35.9004 22.55C34.1804 23.44 33.3304 24.76 33.3304 26.53C33.3304 28.39 34.1604 29.91 35.8304 31.11C37.5004 32.3 39.7004 33.39 42.4304 34.36C45.1604 35.33 48.1704 36.35 51.4604 37.41C54.7504 38.47 58.0104 39.73 61.2604 41.19C64.5004 42.65 67.4904 44.51 70.2204 46.77C72.9504 49.03 75.1504 51.83 76.8204 55.19C78.4904 58.55 79.3204 62.62 79.3204 67.4C79.3204 77.04 75.7304 84.5 68.5504 89.76C61.3704 95.02 51.2504 97.65 38.1804 97.65" fill="#263A6D"/>
<path d="M276.42 3.45V47.74C276.42 49.17 274.62 49.79 273.74 48.67L237.09 2.31999C236.74 1.87999 236.22 1.62999 235.66 1.62999H219.76C218.75 1.62999 217.94 2.44999 217.94 3.45999V95.07C217.94 96.08 218.76 96.9 219.76 96.9H242.69C243.7 96.9 244.52 96.08 244.52 95.07V52.07C244.52 50.78 246.15 50.21 246.96 51.22L281.76 95.23C282.59 96.28 283.85 96.89 285.19 96.89H301.19C302.2 96.89 303.02 96.07 303.02 95.06V3.45C303.02 2.44 302.2 1.62 301.19 1.62H278.26C277.25 1.62 276.43 2.44 276.43 3.45" fill="#263A6D"/>
<path d="M211.6 94.14L185.9 58.83C185.2 57.85 183.76 57.81 183.01 58.75L167.78 76.96C167.27 77.6 167.25 78.5 167.73 79.15L180.71 96.26C181.05 96.73 181.6 97 182.17 97H210.12C211.59 97 212.45 95.34 211.6 94.14Z" fill="#263A6D"/>
<path d="M188.91 1.00998L135.16 67.24C134.32 68.35 134.58 69.94 135.73 70.74L152.86 82.63C154 83.42 155.57 83.11 156.33 81.95L209.06 16.34C209.8 15.19 209.47 13.65 208.31 12.92L192.2 0.419986C191.12 -0.260014 189.69 -2.32458e-05 188.92 1.01998" fill="#4598D8"/>
<path d="M132.96 74.16L150.7 86.39C151.64 87.04 151.58 88.45 150.59 89.01L132.47 97.46C131.35 98.11 129.98 97.18 130.16 95.9L130.54 75.22C130.7 74.08 132.01 73.51 132.96 74.16Z" fill="#4598D8"/>
<path d="M130.15 58.28C130.15 59.65 131.85 60.28 132.75 59.24L157.23 30.92C157.96 30.07 158.36 28.99 158.36 27.87V3.87997C158.36 2.89997 157.56 2.09998 156.58 2.09998H132.32C131.12 2.09998 130.15 3.06997 130.15 4.26997V58.28Z" fill="#263A6D"/>
<path d="M117.24 3.87997V95.22C117.24 96.21 116.44 97 115.46 97H91.5104C90.5304 97 89.7304 96.2 89.7304 95.22V3.87997C89.7304 2.89997 90.5304 2.09998 91.5104 2.09998H115.46C116.44 2.09998 117.24 2.89997 117.24 3.87997Z" fill="#263A6D"/>
<path d="M127.54 118.63H128.23C129.27 118.63 130.12 117.78 130.12 116.74V108.4C130.12 107.43 129.33 106.64 128.37 106.64H4.70043C4.01043 106.64 3.46043 107.2 3.46043 107.88V117.29C3.46043 118.02 2.86043 118.62 2.13043 118.62H1.08043C0.550432 118.62 0.130432 119.05 0.130432 119.57V123.39C0.130432 124.24 0.820432 124.93 1.67043 124.93H123.6C124.79 124.93 125.76 123.96 125.76 122.77V120.41C125.76 119.42 126.56 118.62 127.55 118.62" fill="#FFBF13"/>
</svg>
