<svg width="167" height="80" viewBox="0 0 167 80" fill="none" xmlns="http://www.w3.org/2000/svg">
<g clip-path="url(#clip0_12206_2108)">
<path d="M133.228 55.8621C132.413 54.6315 130.758 54.2942 129.527 55.1087C115.535 64.3643 99.2278 69.2569 82.3738 69.2569C56.9598 69.2569 33.3725 58.2639 17.0568 38.9696C19.1282 38.3666 20.9846 37.2479 22.6207 35.5995C25.2164 33.002 26.5152 29.8818 26.5152 26.2355C26.5152 22.5893 25.2164 19.4446 22.6207 16.8489C20.0389 14.2688 16.9187 12.9788 13.2567 12.9788C9.59468 12.9788 6.49027 14.2688 3.89451 16.8489C1.29875 19.4446 0 22.5735 0 26.2355V48.9558C0 49.8054 0.300653 50.5133 0.900212 51.0779C1.49977 51.6775 2.20596 51.9764 3.02226 51.9764H3.09743C3.91199 51.9764 4.61992 51.6757 5.21948 51.0779C5.81904 50.5116 6.11795 49.8036 6.11795 48.9558V39.494H10.6033C27.9765 61.8053 54.1141 74.597 82.3773 74.597C100.282 74.597 117.606 69.3985 132.476 59.5609C133.707 58.7481 134.044 57.091 133.23 55.8604M6.11795 26.2355C6.11795 24.2551 6.8084 22.5648 8.18931 21.1664C9.58769 19.7698 11.278 19.0706 13.2585 19.0706C15.2389 19.0706 16.9292 19.7698 18.3276 21.1664C19.7085 22.5648 20.399 24.2551 20.399 26.2355C20.399 28.216 19.7085 29.8976 18.3276 31.2802C16.931 32.6786 15.2407 33.3778 13.2585 33.3778H6.11795V26.2355ZM55.7502 48.9558C55.7502 49.8036 55.4496 50.5116 54.8517 51.0779C54.2522 51.6775 53.546 51.9764 52.7297 51.9764H52.6545C51.84 51.9764 51.132 51.6757 50.5342 51.0779C49.9347 50.5116 49.6358 49.8036 49.6358 48.9558V37.8194H36.0277V48.9558C36.0277 49.8036 35.7288 50.5116 35.1292 51.0779C34.5297 51.6775 33.8235 51.9764 33.0072 51.9764H32.9338C32.1175 51.9764 31.4095 51.6757 30.8117 51.0779C30.2122 50.5116 29.9133 49.8036 29.9133 48.9558V25.886C29.9133 22.3236 31.1788 19.2768 33.7081 16.7457C36.2392 14.2339 39.2755 12.9753 42.8221 12.9753C46.3688 12.9753 49.4295 14.2321 51.9588 16.7457C54.4882 19.2768 55.7537 22.3236 55.7537 25.886V48.9558H55.7502ZM49.634 31.7277V25.886C49.634 24.0051 48.975 22.397 47.6605 21.0668C46.3303 19.7365 44.7152 19.0688 42.8186 19.0688C40.9221 19.0688 39.3296 19.7348 37.9994 21.0668C36.6849 22.3987 36.0277 24.0051 36.0277 25.886V31.7277H49.6358H49.634ZM67.3603 48.9558C67.3603 49.8036 67.0614 50.5116 66.4619 51.0779C65.8623 51.6775 65.1544 51.9764 64.3398 51.9764H64.2664C63.4501 51.9764 62.7421 51.6757 62.1443 51.0779C61.5448 50.5116 61.2459 49.8036 61.2459 48.9558V24.9875C61.2459 21.6751 62.4188 18.8433 64.7663 16.4975C67.1121 14.1482 69.9421 12.9771 73.2545 12.9771C77.2155 12.9771 80.2045 14.2916 82.2182 16.9223C84.2161 14.2916 87.1947 12.9771 91.1556 12.9771C94.4681 12.9771 97.298 14.15 99.6456 16.4975C101.993 18.8433 103.164 21.6733 103.164 24.9875V48.9558C103.164 49.7879 102.874 50.4958 102.29 51.0779C101.691 51.6775 100.976 51.9764 100.144 51.9764H100.095C99.2453 51.9764 98.5374 51.6757 97.9728 51.0779C97.3732 50.5116 97.0743 49.8036 97.0743 48.9558V24.9875C97.0743 23.3374 96.501 21.939 95.3525 20.7923C94.2041 19.6422 92.8057 19.0688 91.1591 19.0688C89.5125 19.0688 88.1386 19.6422 86.9884 20.7923C85.8418 21.939 85.2667 23.3374 85.2667 24.9875V48.9558C85.2667 49.8036 84.966 50.5116 84.3682 51.0779C83.8019 51.6775 83.0939 51.9764 82.2462 51.9764H82.1955C81.3634 51.9764 80.6485 51.6757 80.0507 51.0779C79.4511 50.5116 79.1522 49.8036 79.1522 48.9558V24.9875C79.1522 23.3374 78.5771 21.939 77.4287 20.7923C76.2803 19.6422 74.8906 19.0688 73.2598 19.0688C71.6289 19.0688 70.2375 19.6422 69.0908 20.7923C67.9424 21.939 67.3691 23.3374 67.3691 24.9875V48.9558H67.3603ZM134.499 48.9558C134.499 49.8036 134.2 50.5116 133.6 51.0779C133.001 51.6775 132.294 51.9764 131.48 51.9764H131.405C130.59 51.9764 129.882 51.6757 129.283 51.0779C128.683 50.5116 128.384 49.8036 128.384 48.9558V37.8194H114.778V48.9558C114.778 49.8036 114.477 50.5116 113.879 51.0779C113.28 51.6775 112.572 51.9764 111.757 51.9764H111.684C110.868 51.9764 110.16 51.6757 109.56 51.0779C108.961 50.5116 108.662 49.8036 108.662 48.9558V25.886C108.662 22.3236 109.927 19.2768 112.457 16.7457C114.986 14.2339 118.024 12.9753 121.571 12.9753C125.117 12.9753 128.178 14.2321 130.707 16.7457C133.238 19.2768 134.502 22.3236 134.502 25.886V48.9558H134.499ZM128.382 31.7277V25.886C128.382 24.0051 127.725 22.397 126.409 21.0668C125.077 19.7365 123.464 19.0688 121.567 19.0688C119.67 19.0688 118.08 19.7348 116.748 21.0668C115.433 22.3987 114.776 24.0051 114.776 25.886V31.7277H128.382ZM143.09 12.9771C143.905 12.9771 144.614 13.269 145.212 13.8511C145.812 14.4506 146.111 15.1673 146.111 15.9994V29.4309H159.942V15.9994C159.942 15.1673 160.241 14.4506 160.841 13.8511C161.44 13.269 162.147 12.9771 162.963 12.9771H163.036C163.851 12.9771 164.56 13.269 165.158 13.8511C165.758 14.4506 166.057 15.1673 166.057 15.9994V48.9576C166.057 49.8054 165.756 50.5133 165.158 51.0797C164.559 51.6792 163.851 51.9781 163.036 51.9781H162.963C162.147 51.9781 161.439 51.6775 160.841 51.0797C160.241 50.5133 159.942 49.8054 159.942 48.9576V35.5243H146.111V48.9576C146.111 49.8054 145.81 50.5133 145.212 51.0797C144.612 51.6792 143.905 51.9781 143.09 51.9781H143.017C142.2 51.9781 141.492 51.6775 140.895 51.0797C140.295 50.5133 139.996 49.8054 139.996 48.9576V15.9994C139.996 15.1673 140.295 14.4506 140.895 13.8511C141.494 13.269 142.2 12.9771 143.017 12.9771H143.09Z" fill="#00AEEF"/>
<path d="M21.876 57.923L21.9931 56.9144C21.9389 56.8759 21.8865 56.834 21.8323 56.785L21.3184 56.3218L20.7712 56.9284L20.5685 56.7466L22.292 54.8325L23.0087 55.4775C23.4946 55.9163 23.568 56.4284 23.1992 56.8392C22.9283 57.1399 22.5804 57.208 22.2203 57.0472L22.098 58.1257L21.876 57.9247V57.923ZM22.9982 56.6557C23.2744 56.3498 23.2289 55.9914 22.8461 55.6471L22.3374 55.1891L21.4739 56.1488L21.9826 56.6085C22.3654 56.9528 22.7272 56.9581 22.9999 56.6557" fill="#231F20"/>
<path d="M24.6378 59.1011L23.395 58.0593C23.1573 58.388 23.222 58.7935 23.5471 59.0662C23.7289 59.2183 23.9439 59.2864 24.1659 59.2532L24.1694 59.477C23.9054 59.5242 23.6275 59.4367 23.3933 59.2392C22.9301 58.8512 22.8794 58.2691 23.2482 57.8286C23.6188 57.3881 24.1886 57.3322 24.6064 57.6835C25.0241 58.0331 25.0696 58.5942 24.6955 59.0417C24.6815 59.0574 24.6606 59.0784 24.6413 59.1011M23.5244 57.9108L24.5767 58.7935C24.7952 58.4806 24.7549 58.0995 24.463 57.8566C24.1746 57.6153 23.7918 57.6416 23.5244 57.9108Z" fill="#231F20"/>
<path d="M24.6937 60.003L24.914 59.9139C24.9612 60.1044 25.1062 60.3421 25.3213 60.5099C25.6097 60.7372 25.8072 60.7319 25.9243 60.5816C26.2354 60.1848 25.0049 59.7216 25.4786 59.1185C25.6743 58.8703 26.0344 58.8546 26.4207 59.1587C26.6183 59.3143 26.7878 59.5381 26.8472 59.7233L26.6287 59.8177C26.5693 59.6202 26.44 59.4576 26.2826 59.3335C26.0082 59.1168 25.8019 59.129 25.6883 59.2724C25.365 59.6849 26.5955 60.1498 26.1341 60.7337C25.9261 60.9976 25.5607 60.9854 25.1657 60.6742C24.914 60.4767 24.7339 60.204 24.6955 59.9995" fill="#231F20"/>
<path d="M28.6284 62.0482C28.2789 62.5237 27.7125 62.5988 27.2668 62.272C27.0186 62.0884 26.884 61.8262 26.8997 61.5273L26.2617 62.3978L26.0502 62.2422L27.6181 60.1062L27.8209 60.2548L27.5936 60.5624C27.8733 60.4488 28.174 60.4943 28.4309 60.6848C28.8749 61.0117 28.9728 61.5763 28.6267 62.0482M28.4169 61.8926C28.6826 61.5308 28.611 61.1008 28.2806 60.8578C27.9485 60.6131 27.5185 60.676 27.2528 61.0379C26.9853 61.4032 27.0553 61.8297 27.3874 62.0744C27.716 62.3157 28.1478 62.258 28.4152 61.8926" fill="#231F20"/>
<path d="M29.1564 62.4223C29.4815 61.9486 30.0601 61.8472 30.5285 62.1688C30.997 62.4905 31.1106 63.0621 30.7855 63.5375C30.4604 64.0112 29.8835 64.1178 29.4151 63.7962C28.9466 63.4746 28.833 62.8977 29.1581 62.4223M30.567 63.3872C30.8222 63.0131 30.7418 62.5918 30.4009 62.3576C30.0601 62.1251 29.6336 62.1986 29.3784 62.5726C29.1232 62.9467 29.2071 63.3715 29.5479 63.6039C29.8888 63.8364 30.3118 63.7613 30.5687 63.3872" fill="#231F20"/>
<path d="M33.0806 64.8275L32.4775 65.7767L32.2573 65.6368L32.8463 64.7104C33.0666 64.3643 32.9984 64.0724 32.6873 63.8749C32.3359 63.6511 31.9776 63.728 31.7399 64.1021L31.1945 64.9604L30.9742 64.8205L32.0125 63.1862L32.2241 63.3208L32.0318 63.6232C32.2765 63.5008 32.5702 63.5253 32.8533 63.7053C33.2519 63.9588 33.3795 64.3626 33.0806 64.831" fill="#231F20"/>
<path d="M33.2728 66.0004L33.4791 65.8833C33.5508 66.0668 33.7273 66.2818 33.9615 66.4216C34.2779 66.6087 34.4719 66.579 34.5698 66.4147C34.8268 65.9812 33.5455 65.6822 33.9353 65.0233C34.0979 64.7506 34.451 64.6859 34.8775 64.9376C35.0925 65.0652 35.2917 65.2645 35.3739 65.4428L35.1676 65.5651C35.082 65.3781 34.9334 65.233 34.7621 65.1316C34.4597 64.9533 34.2569 64.9918 34.1643 65.1509C33.8969 65.6001 35.1799 65.9025 34.7988 66.5423C34.6275 66.8307 34.2639 66.8674 33.8287 66.6104C33.5525 66.4479 33.3393 66.2014 33.2728 66.0021" fill="#231F20"/>
<path d="M36.2078 65.7277L36.435 65.8571L35.4824 67.5439L35.2551 67.4145L36.2078 65.7277ZM36.4577 65.1666C36.5067 65.081 36.622 65.0478 36.7147 65.1002C36.8073 65.1526 36.8405 65.2645 36.7916 65.3519C36.7392 65.4446 36.6273 65.4778 36.5312 65.4236C36.4385 65.3711 36.407 65.2558 36.4577 65.1666Z" fill="#231F20"/>
<path d="M37.7267 66.3098L37.6183 66.5108L38.1427 66.794L38.0378 66.988L37.5204 66.7083L36.7041 68.2169L36.4734 68.0927L37.2897 66.5842L36.9855 66.4199L37.0904 66.2259L37.3946 66.3885L37.5082 66.1787C37.6725 65.8746 37.9627 65.7714 38.2965 65.9532C38.4224 66.0214 38.5325 66.1263 38.578 66.2434L38.4084 66.3727C38.3734 66.2818 38.2983 66.2049 38.2004 66.1507C38.0029 66.0441 37.8403 66.0983 37.7267 66.308" fill="#231F20"/>
<path d="M40.562 67.9703L41.0217 69.3233L39.6705 69.7847L39.2073 68.4336L40.562 67.9703Z" fill="#231F20"/>
<path d="M44.3428 71.1307L43.0248 70.5574L42.4672 71.066L42.2068 70.9524L44.3149 69.0576L44.5613 69.1642L44.6155 71.9995L44.3516 71.8841L44.3428 71.129V71.1307ZM44.3393 70.8878L44.3236 69.3705L43.2049 70.3948L44.3411 70.8878H44.3393Z" fill="#231F20"/>
<path d="M46.3164 71.6324L45.7361 71.8526L45.5333 72.3665L45.2886 72.2704L46.3007 69.7306L46.5436 69.8267L45.8584 71.5485L47.325 70.9944L47.6256 71.115L46.5629 71.5432L46.9806 72.9434L46.6817 72.8245L46.3164 71.6324Z" fill="#231F20"/>
<path d="M49.9452 71.9663L49.2845 73.7877L49.0502 73.702L49.1709 73.3699C48.9628 73.5447 48.6814 73.5867 48.3895 73.4818C47.9263 73.314 47.7148 72.9434 47.9053 72.4208L48.2881 71.365L48.5346 71.4541L48.1605 72.4854C48.0207 72.8735 48.1483 73.1427 48.4944 73.2703C48.8754 73.4084 49.2023 73.2493 49.3544 72.8333L49.7022 71.8789L49.947 71.968L49.9452 71.9663Z" fill="#231F20"/>
<path d="M52.3487 73.6321L51.9973 74.7001L51.7491 74.6179L52.0917 73.5744C52.2193 73.1863 52.083 72.9206 51.7334 72.8053C51.3384 72.6742 51.0097 72.8367 50.8716 73.258L50.5535 74.2246L50.3053 74.1425L50.9101 72.3036L51.1478 72.3822L51.036 72.7214C51.2422 72.5413 51.5324 72.4941 51.8523 72.599C52.2997 72.7458 52.5235 73.1059 52.3487 73.6356" fill="#231F20"/>
<path d="M54.0249 75.1965C53.8991 75.2542 53.74 75.2525 53.5949 75.2088C53.2453 75.1039 53.1107 74.8487 53.2156 74.5061L53.553 73.3874L53.2226 73.2877L53.2873 73.0762L53.6177 73.1759L53.74 72.7721L53.99 72.8473L53.8676 73.251L54.4305 73.4223L54.3658 73.6338L53.8029 73.4643L53.4691 74.569C53.4027 74.7875 53.4796 74.9413 53.6876 75.0043C53.789 75.0357 53.9008 75.034 53.99 74.992L54.0232 75.1983L54.0249 75.1965Z" fill="#231F20"/>
<path d="M56.5176 74.7735L56.1977 75.9306L55.9565 75.8642L56.0369 75.574C55.8708 75.7349 55.6174 75.7908 55.3097 75.7051C54.8867 75.588 54.6892 75.2961 54.7784 74.9727C54.857 74.6861 55.1087 74.4955 55.6454 74.6424L56.2379 74.8067L56.2694 74.6931C56.3585 74.3732 56.2239 74.1494 55.8761 74.0533C55.6349 73.9869 55.3849 74.0078 55.1944 74.1022L55.1332 73.882C55.3657 73.7736 55.6681 73.7579 55.9617 73.8383C56.4459 73.9729 56.6522 74.2893 56.5193 74.7717M56.1016 75.2979L56.1855 74.992L55.5999 74.8294C55.2363 74.7298 55.0808 74.8399 55.0283 75.0322C54.9689 75.2489 55.1052 75.4307 55.4024 75.5129C55.6873 75.5915 55.9338 75.5129 56.1016 75.2979Z" fill="#231F20"/>
<path d="M59.358 75.7331C59.2182 76.3012 58.7217 76.5914 58.1851 76.4585C57.874 76.3816 57.6467 76.1806 57.5558 75.8904L57.4632 76.2628L57.2202 76.2033L57.8757 73.5516L58.1292 73.6146L57.8495 74.7438C58.0662 74.5392 58.3564 74.4746 58.6571 74.548C59.1919 74.6808 59.4978 75.165 59.3563 75.7349M59.1028 75.6719C59.2112 75.2314 58.9804 74.8644 58.5836 74.7665C58.1834 74.6686 57.811 74.8871 57.7009 75.3258C57.5925 75.7663 57.8198 76.1334 58.2201 76.233C58.6169 76.3292 58.9927 76.1124 59.101 75.6737" fill="#231F20"/>
<path d="M61.8227 76.3607L60.2408 76.0146C60.1831 76.4167 60.4278 76.7453 60.8421 76.8362C61.0728 76.8869 61.2948 76.8484 61.4749 76.7138L61.5832 76.9114C61.37 77.0757 61.0833 77.1264 60.7861 77.0617C60.1971 76.9323 59.8824 76.4412 60.0048 75.88C60.1272 75.3189 60.6061 75.0061 61.1392 75.1214C61.6706 75.2385 61.9695 75.714 61.8472 76.2821C61.8419 76.3031 61.8314 76.331 61.8262 76.359M60.2862 75.8241L61.6269 76.1178C61.6759 75.7402 61.4626 75.4221 61.092 75.3417C60.725 75.2613 60.3981 75.4605 60.2862 75.8241Z" fill="#231F20"/>
<path d="M63.0466 74.7233L62.5177 77.402L62.7732 77.4524L63.3021 74.7738L63.0466 74.7233Z" fill="#231F20"/>
<path d="M66.1996 76.0443L67.0334 77.205L65.8762 78.0388L65.0389 76.8816L66.1996 76.0443Z" fill="#231F20"/>
<path d="M72.0099 76.2278L71.7128 78.7869L71.4523 78.7572L71.6918 76.7103L70.4857 78.3132L70.3581 78.2992L69.5523 76.4726L69.3145 78.5072L69.0541 78.4775L69.353 75.9185L69.5767 75.9447L70.4665 77.9706L71.7879 76.2016L72.0099 76.2278Z" fill="#231F20"/>
<path d="M74.5935 78.1437L72.9784 78.0091C72.9749 78.4146 73.2598 78.7083 73.6828 78.7432C73.9171 78.7642 74.1338 78.696 74.2946 78.5387L74.4275 78.7205C74.2369 78.911 73.9608 79.0002 73.6566 78.9739C73.0536 78.925 72.6777 78.4793 72.7267 77.9059C72.7739 77.3326 73.2091 76.9585 73.751 77.004C74.2946 77.0494 74.6547 77.4829 74.6058 78.0615C74.604 78.0842 74.597 78.1122 74.5953 78.1419M72.9959 77.8133L74.3645 77.9269C74.3645 77.5476 74.1093 77.2592 73.7318 77.2277C73.3577 77.1963 73.0605 77.4375 72.9959 77.8133Z" fill="#231F20"/>
<path d="M75.5878 76.3617L75.4122 79.0846L75.6739 79.1015L75.8495 76.3785L75.5878 76.3617Z" fill="#231F20"/>
<path d="M78.273 78.0352L78.2188 79.2343L77.9688 79.2221L77.9828 78.9197C77.857 79.1137 77.6227 79.2238 77.3029 79.2098C76.8659 79.1906 76.6054 78.9511 76.6229 78.6155C76.6351 78.3166 76.8379 78.0754 77.3938 78.1016L78.0073 78.1278L78.0125 78.0107C78.0283 77.6804 77.8482 77.4916 77.4864 77.4758C77.2364 77.4654 76.997 77.5423 76.8344 77.6751L76.7243 77.4741C76.927 77.3168 77.2172 77.2346 77.5231 77.2486C78.023 77.2713 78.2957 77.5335 78.273 78.0335M77.9846 78.64L77.9986 78.3236L77.392 78.2974C77.0179 78.2799 76.8886 78.4215 76.8799 78.6208C76.8694 78.8445 77.0442 78.9931 77.3536 79.0071C77.6472 79.0211 77.871 78.89 77.9846 78.64Z" fill="#231F20"/>
<path d="M80.9229 77.3693L79.9073 79.5141C79.7378 79.8899 79.5298 80.0053 79.2536 80C79.0735 79.9965 78.9022 79.9336 78.7869 79.813L78.9127 79.6207C79.0071 79.7186 79.1225 79.7728 79.2623 79.7763C79.4354 79.7798 79.5542 79.7011 79.6696 79.4599L79.7587 79.2746L78.9372 77.3239L79.2099 77.3291L79.9021 78.9897L80.6659 77.3623L80.9229 77.3676V77.3693Z" fill="#231F20"/>
<path d="M82.9978 78.1V79.3008H82.7496V78.9984C82.6325 79.1977 82.4018 79.3201 82.0819 79.3218C81.6431 79.3218 81.3739 79.0946 81.3722 78.759C81.3722 78.4601 81.5627 78.2101 82.1186 78.2084H82.7339V78.0895C82.7339 77.7574 82.5451 77.5773 82.1833 77.5773C81.9315 77.5773 81.6973 77.6682 81.5383 77.8081L81.4194 77.6123C81.6134 77.448 81.9018 77.3501 82.2077 77.3501C82.7094 77.3501 82.9943 77.5983 82.9943 78.1M82.7339 78.7205V78.4041H82.1256C81.7498 78.4041 81.6291 78.5527 81.6291 78.752C81.6291 78.9775 81.8109 79.1173 82.1186 79.1156C82.414 79.1156 82.6307 78.974 82.7339 78.7205Z" fill="#231F20"/>
<path d="M85.8085 78.1157L85.8417 79.2361L85.5813 79.2431L85.5498 78.1471C85.5376 77.7381 85.3191 77.5371 84.9503 77.5458C84.5342 77.5581 84.2808 77.8238 84.2948 78.2643L84.3227 79.2798L84.0623 79.2868L84.0063 77.3536L84.2563 77.3466L84.2668 77.7032C84.3996 77.4637 84.6566 77.3203 84.9905 77.3099C85.4607 77.2959 85.7928 77.5581 85.8085 78.1139" fill="#231F20"/>
<path d="M86.7315 76.6438C86.7262 76.5459 86.8066 76.4568 86.9133 76.4516C87.0199 76.4463 87.109 76.5215 87.1125 76.6211C87.1178 76.7277 87.0409 76.8169 86.9308 76.8221C86.8241 76.8274 86.735 76.747 86.7297 76.6438M86.8189 77.2504L87.0793 77.2381L87.1737 79.1732L86.9133 79.1854L86.8189 77.2504Z" fill="#231F20"/>
<path d="M90.1645 76.983L91.2535 77.9095L90.3305 78.9967L89.238 78.0738L90.1645 76.983Z" fill="#231F20"/>
<path d="M95.0362 77.7679L93.6099 77.9462L93.3879 78.6681L93.1064 78.703L93.956 75.9989L94.2217 75.9657L95.7127 78.3779L95.4278 78.4129L95.0345 77.7679H95.0362ZM94.9104 77.5599L94.1238 76.2629L93.6815 77.7137L94.9104 77.5599Z" fill="#231F20"/>
<path d="M97.7403 75.3032L98.1581 78.0039L97.9099 78.0423L97.8522 77.6648C97.7351 77.9479 97.4904 78.1262 97.174 78.1769C96.6286 78.2608 96.1584 77.9269 96.0693 77.3484C95.9801 76.7698 96.3262 76.3136 96.8733 76.2297C97.1792 76.1825 97.4607 76.2734 97.6599 76.4953L97.4816 75.3452L97.7386 75.305L97.7403 75.3032ZM97.7561 77.0862C97.6861 76.6387 97.3348 76.387 96.931 76.4499C96.522 76.5128 96.2633 76.8589 96.3315 77.3064C96.4014 77.7539 96.7527 78.0056 97.16 77.9427C97.5638 77.8798 97.8242 77.5337 97.7543 77.0862" fill="#231F20"/>
<path d="M100.444 76.3746L100.661 77.5545L100.415 77.6017L100.361 77.3045C100.28 77.5213 100.079 77.6821 99.7645 77.7415C99.3344 77.8202 99.0286 77.6454 98.9674 77.3168C98.9132 77.0231 99.0565 76.7434 99.6019 76.6421L100.207 76.5302L100.186 76.4131C100.125 76.088 99.9078 75.9446 99.553 76.0093C99.3082 76.0547 99.0915 76.1841 98.9621 76.3502L98.8101 76.1806C98.9726 75.9831 99.2366 75.8362 99.5372 75.7821C100.028 75.6894 100.354 75.8852 100.444 76.3764M100.299 77.0319L100.242 76.7207L99.6438 76.8308C99.275 76.899 99.1824 77.0651 99.2191 77.2608C99.2593 77.4811 99.4621 77.586 99.7662 77.53C100.055 77.4776 100.243 77.2993 100.299 77.0319Z" fill="#231F20"/>
<path d="M103.413 75.9918C103.537 76.5687 103.217 77.0441 102.677 77.1595C102.374 77.2242 102.088 77.1507 101.876 76.9392L102.103 77.995L101.848 78.0509L101.292 75.4569L101.537 75.4045L101.617 75.7786C101.719 75.4936 101.951 75.2996 102.266 75.2314C102.806 75.1161 103.294 75.4185 103.416 75.9918M103.161 76.0478C103.066 75.6073 102.696 75.3748 102.297 75.4604C101.894 75.5478 101.654 75.9114 101.748 76.3502C101.845 76.7924 102.21 77.0249 102.614 76.9375C103.014 76.8518 103.257 76.4917 103.161 76.0478Z" fill="#231F20"/>
<path d="M105.445 76.3834C105.367 76.4971 105.227 76.5757 105.08 76.6124C104.725 76.6981 104.481 76.5442 104.397 76.1981L104.122 75.0585L103.785 75.1389L103.734 74.9239L104.071 74.8435L103.972 74.4309L104.227 74.3698L104.325 74.7823L104.898 74.6442L104.951 74.8592L104.377 74.999L104.648 76.123C104.703 76.345 104.846 76.4394 105.057 76.3869C105.162 76.3625 105.258 76.3048 105.313 76.2244L105.447 76.3852L105.445 76.3834Z" fill="#231F20"/>
<path d="M105.592 73.8383C105.568 73.7422 105.627 73.639 105.732 73.6111C105.835 73.5849 105.938 73.6425 105.963 73.7369C105.989 73.8401 105.933 73.9432 105.825 73.9712C105.722 73.9974 105.618 73.9362 105.592 73.8366M105.802 74.4134L106.055 74.347L106.54 76.2226L106.286 76.289L105.8 74.4134H105.802Z" fill="#231F20"/>
<path d="M107.296 73.7789L107.358 73.9992L107.933 73.8401L107.992 74.0534L107.424 74.2107L107.882 75.8643L107.63 75.9342L107.172 74.2789L106.838 74.3715L106.779 74.1583L107.113 74.0656L107.05 73.8349C106.957 73.501 107.095 73.2266 107.461 73.1252C107.601 73.0867 107.753 73.0867 107.866 73.1392L107.833 73.3507C107.746 73.3105 107.637 73.3052 107.531 73.335C107.314 73.3944 107.234 73.5465 107.298 73.7772" fill="#231F20"/>
<path d="M110.504 73.0098L111.771 73.667L111.118 74.9343L109.847 74.2806L110.504 73.0098Z" fill="#231F20"/>
<path d="M115.241 70.7078L116.15 73.12L115.898 73.2144L115.479 72.1009L113.97 72.669L114.388 73.7825L114.133 73.8786L113.226 71.4681L113.481 71.372L113.886 72.447L115.395 71.8772L114.989 70.8039L115.241 70.7078Z" fill="#231F20"/>
<path d="M118.09 71.0206L118.555 72.1288L118.325 72.2249L118.207 71.947C118.176 72.176 118.012 72.377 117.716 72.5011C117.311 72.6707 116.975 72.5641 116.846 72.2547C116.73 71.9785 116.811 71.6726 117.325 71.4593L117.891 71.2216L117.846 71.1132C117.718 70.8073 117.473 70.7129 117.141 70.8528C116.909 70.9489 116.727 71.122 116.634 71.3125L116.451 71.1779C116.566 70.9489 116.795 70.7496 117.076 70.6308C117.54 70.4368 117.898 70.5591 118.092 71.0223M118.092 71.6953L117.97 71.4034L117.409 71.6376C117.061 71.7827 117.007 71.9662 117.083 72.1498C117.171 72.3578 117.391 72.4172 117.678 72.2966C117.949 72.183 118.096 71.9697 118.094 71.6953" fill="#231F20"/>
<path d="M119.613 69.5226L119.718 69.7551C119.697 69.7638 119.676 69.7708 119.66 69.7778C119.289 69.9438 119.172 70.2795 119.359 70.6955L119.765 71.5957L119.527 71.7041L118.73 69.9386L118.959 69.8355L119.115 70.1816C119.118 69.8966 119.288 69.6712 119.613 69.5243" fill="#231F20"/>
<path d="M123.527 68.528L124.03 69.5331L123.796 69.6502L123.305 68.6678C123.121 68.3025 122.843 68.2064 122.53 68.3637C122.175 68.542 122.065 68.8846 122.264 69.2796L122.719 70.1886L122.485 70.3057L121.994 69.3233C121.81 68.958 121.532 68.8619 121.216 69.0209C120.864 69.1975 120.751 69.5418 120.95 69.9369L121.404 70.8458L121.17 70.9629L120.303 69.2289L120.527 69.1171L120.686 69.4335C120.704 69.1643 120.866 68.93 121.156 68.785C121.443 68.6416 121.728 68.6504 121.955 68.8426C121.967 68.556 122.144 68.2903 122.457 68.1347C122.878 67.9232 123.277 68.0281 123.527 68.5263" fill="#231F20"/>
<path d="M124.304 68.2763C124.025 67.7746 124.191 67.2135 124.685 66.9356C125.18 66.6576 125.743 66.8132 126.024 67.3131C126.304 67.8148 126.143 68.3776 125.649 68.6556C125.154 68.9335 124.586 68.7779 124.304 68.2763ZM125.792 67.4425C125.572 67.0474 125.157 66.9338 124.797 67.1348C124.437 67.3359 124.315 67.7501 124.537 68.1452C124.759 68.5402 125.175 68.6538 125.535 68.4511C125.895 68.25 126.014 67.8375 125.792 67.4407" fill="#231F20"/>
<path d="M128.185 65.8222L128.772 66.7783L128.55 66.9164L127.975 65.9812C127.762 65.6334 127.47 65.5652 127.157 65.7592C126.802 65.976 126.715 66.3343 126.946 66.7101L127.477 67.5754L127.253 67.7135L126.241 66.0616L126.454 65.9305L126.641 66.2347C126.638 65.9602 126.79 65.7085 127.075 65.5337C127.477 65.2873 127.895 65.3502 128.187 65.8239" fill="#231F20"/>
<path d="M128.209 64.1039C128.155 64.0217 128.18 63.9029 128.267 63.8452C128.358 63.7875 128.472 63.8085 128.526 63.8924C128.585 63.9815 128.564 64.0969 128.472 64.1563C128.382 64.2157 128.265 64.1913 128.209 64.1056M128.594 64.5846L128.812 64.4412L129.877 66.0616L129.658 66.2049L128.594 64.5863V64.5846Z" fill="#231F20"/>
<path d="M130.534 65.3885L130.508 65.1526C130.706 65.1596 130.973 65.0826 131.193 64.9218C131.492 64.7051 131.539 64.5146 131.426 64.359C131.129 63.9517 130.347 65.0127 129.896 64.3939C129.709 64.1387 129.791 63.7874 130.19 63.4955C130.393 63.3486 130.655 63.2438 130.851 63.2385L130.882 63.4745C130.676 63.4797 130.484 63.5602 130.323 63.6773C130.04 63.8835 129.996 64.0863 130.104 64.2349C130.412 64.6579 131.197 63.5986 131.634 64.2017C131.831 64.4726 131.721 64.8222 131.312 65.1194C131.053 65.3081 130.742 65.406 130.534 65.3903" fill="#231F20"/>
<path d="M3.25128 3.70225L1.8459 5.12685V6.93252H1.12048V0.0594482H1.8459V4.21266L5.88374 0.0594482H6.71753L3.74246 3.17261L6.92379 6.93252H6.06029L3.25128 3.70225Z" fill="#F15A29"/>
<path d="M18.0479 6.305V6.93252H13.1868V0.0594482H17.9011V0.688723H13.9139V3.13415H17.4676V3.75119H13.9139V6.305H18.0479Z" fill="#F15A29"/>
<path d="M31.9811 0.0594482V6.93427H31.2836V1.43336L28.583 6.05853H28.2387L25.538 1.46308V6.93427H24.8406V0.0594482H25.4401L28.4257 5.15657L31.3815 0.0594482H31.9811Z" fill="#F15A29"/>
<path d="M44.1646 6.305V6.93252H39.3035V0.0594482H44.0178V0.688723H40.0306V3.13415H43.5843V3.75119H40.0306V6.305H44.1646Z" fill="#F15A29"/>
<path d="M56.7029 0.0594482V6.93427H56.1033L51.6844 1.3547V6.93427H50.9573V0.0594482H51.5568L55.9862 5.63727V0.0594482H56.7029Z" fill="#F15A29"/>
<path d="M64.0251 0.0594482H66.8237C69.0226 0.0594482 70.5049 1.47357 70.5049 3.49773C70.5049 5.5219 69.0226 6.93427 66.8237 6.93427H64.0251V0.0594482ZM66.7852 6.305C68.6119 6.305 69.79 5.14608 69.79 3.49599C69.79 1.84589 68.6119 0.686975 66.7852 0.686975H64.7523V6.30325H66.7852V6.305Z" fill="#F15A29"/>
<path d="M77.9479 0.0594482H77.2207V6.93427H77.9479V0.0594482Z" fill="#F15A29"/>
<path d="M87.4028 3.70225L85.9991 5.12685V6.93252H85.272V0.0594482H85.9991V4.21266L90.0352 0.0594482H90.869L87.8939 3.17261L91.0753 6.93252H90.2118L87.4028 3.70225Z" fill="#F15A29"/>
<path d="M97.3383 0.0594482H100.137C102.336 0.0594482 103.818 1.47357 103.818 3.49773C103.818 5.5219 102.336 6.93427 100.137 6.93427H97.3383V0.0594482ZM100.098 6.305C101.925 6.305 103.103 5.14608 103.103 3.49599C103.103 1.84589 101.925 0.686975 100.098 0.686975H98.0654V6.30325H100.098V6.305Z" fill="#F15A29"/>
<path d="M114.748 5.09714H110.918L110.093 6.93427H109.338L112.479 0.0594482H113.196L116.339 6.93252H115.573L114.748 5.09539V5.09714ZM114.482 4.50807L112.832 0.814577L111.182 4.50807H114.482Z" fill="#F15A29"/>
<path d="M121.904 6.09872L122.189 5.53936C122.681 6.02181 123.555 6.3749 124.458 6.3749C125.745 6.3749 126.304 5.83477 126.304 5.15655C126.304 3.27048 122.07 4.42939 122.07 1.88608C122.07 0.873992 122.857 0 124.605 0C125.381 0 126.187 0.22549 126.736 0.608299L126.489 1.18863C125.9 0.805821 125.213 0.618786 124.605 0.618786C123.348 0.618786 122.789 1.17814 122.789 1.8651C122.789 3.75117 127.023 2.61149 127.023 5.11635C127.023 6.12843 126.217 6.99194 124.46 6.99194C123.429 6.99194 122.417 6.62836 121.906 6.09872" fill="#F15A29"/>
<path d="M140.826 0.0594482V6.93427H140.129V1.43336L137.428 6.05853H137.084L134.383 1.46308V6.93427H133.686V0.0594482H134.285L137.271 5.15657L140.227 0.0594482H140.826Z" fill="#F15A29"/>
<path d="M153.01 6.305V6.93252H148.149V0.0594482H152.863V0.688723H148.876V3.13415H152.43V3.75119H148.876V6.305H153.01Z" fill="#F15A29"/>
<path d="M165.548 0.0594482V6.93427H164.949L160.53 1.3547V6.93427H159.802V0.0594482H160.402L164.831 5.63727V0.0594482H165.548Z" fill="#F15A29"/>
</g>
<defs>
<clipPath id="clip0_12206_2108">
<rect width="166.059" height="80" fill="white"/>
</clipPath>
</defs>
</svg>
