<svg width="423" height="80" viewBox="0 0 423 80" fill="none" xmlns="http://www.w3.org/2000/svg">
<g clip-path="url(#clip0_12206_1922)">
<path d="M235.635 51.6733C234.945 52.8664 234.005 53.7435 232.813 54.2461C231.682 54.7488 230.365 55.061 228.86 55.061C227.23 55.061 225.722 54.7491 224.466 54.1213C223.211 53.4938 222.143 52.6164 221.328 51.4859C220.513 50.3554 219.886 49.1002 219.508 47.6578C219.067 46.2151 218.88 44.7105 218.88 43.2019C218.88 41.6936 219.068 40.2545 219.508 38.8711C219.948 37.491 220.513 36.2357 221.328 35.1678C222.143 34.0999 223.149 33.285 224.404 32.595C225.659 31.9675 227.039 31.6553 228.669 31.6553C229.987 31.6553 231.242 31.9049 232.435 32.4701C233.628 33.0354 234.568 33.8503 235.258 34.9181L235.32 34.9178V23.749H241.406V54.4299H235.632V51.673H235.636L235.635 51.6733ZM235.382 40.6949C235.194 39.88 234.941 39.1277 234.505 38.4377C234.064 37.8102 233.565 37.2446 232.875 36.8705C232.247 36.4927 231.37 36.243 230.364 36.243C229.359 36.243 228.544 36.4304 227.854 36.8705C227.164 37.2483 226.598 37.8102 226.224 38.4377C225.784 39.0652 225.534 39.8178 225.347 40.6949C225.159 41.5098 225.097 42.3906 225.097 43.3303C225.097 44.2075 225.222 45.026 225.409 45.9032C225.596 46.7803 225.912 47.533 226.349 48.2263C226.789 48.9164 227.354 49.4194 228.044 49.8561C228.734 50.2929 229.549 50.4836 230.492 50.4836C231.498 50.4836 232.313 50.2962 233.003 49.8561C233.693 49.4783 234.196 48.9164 234.633 48.2263C235.011 47.5363 235.323 46.7836 235.51 45.9032C235.697 45.026 235.76 44.1452 235.76 43.2678C235.635 42.4495 235.507 41.5721 235.382 40.6949Z" fill="#F9A703"/>
<path d="M258.722 23.8774V40.317L266.441 32.3489H273.657L265.311 40.5045L274.659 54.5583H267.256L261.17 44.6445L258.785 46.9021V54.5583H252.699V23.8774H258.722Z" fill="#F9A703"/>
<path d="M290.346 51.6733C289.656 52.8664 288.716 53.7435 287.523 54.2461C286.393 54.7488 285.075 55.061 283.57 55.061C281.941 55.061 280.432 54.7491 279.177 54.1213C277.922 53.4938 276.854 52.6164 276.039 51.4859C275.224 50.3554 274.596 49.1002 274.219 47.6578C273.778 46.2151 273.591 44.7105 273.591 43.2019C273.591 41.6936 273.778 40.2545 274.219 38.8711C274.659 37.491 275.224 36.2357 276.039 35.1678C276.854 34.0999 277.86 33.285 279.115 32.595C280.37 31.9675 281.75 31.6553 283.38 31.6553C284.698 31.6553 285.953 31.9049 287.146 32.4701C288.339 33.0354 289.278 33.8503 289.968 34.9181L290.031 34.9178V23.749H296.116V54.4299H290.343V51.673H290.346L290.346 51.6733ZM290.096 40.6949C289.909 39.88 289.656 39.1277 289.219 38.4377C288.779 37.8102 288.279 37.2446 287.589 36.8705C286.962 36.4927 286.084 36.243 285.079 36.243C284.073 36.243 283.258 36.4304 282.568 36.8705C281.878 37.2483 281.313 37.8102 280.938 38.4377C280.498 39.0652 280.248 39.8178 280.061 40.6949C279.874 41.5098 279.812 42.3906 279.812 43.3303C279.812 44.2075 279.936 45.026 280.123 45.9032C280.311 46.7803 280.626 47.533 281.063 48.2263C281.504 48.9164 282.069 49.4194 282.759 49.8561C283.449 50.2965 284.264 50.4836 285.207 50.4836C286.213 50.4836 287.027 50.2962 287.717 49.8561C288.408 49.4783 288.911 48.9164 289.347 48.2263C289.725 47.5363 290.037 46.7836 290.224 45.9032C290.412 45.026 290.474 44.1452 290.474 43.2678C290.346 42.4495 290.221 41.5721 290.096 40.6949Z" fill="#F9A703"/>
<path d="M298.377 39.1243C298.439 37.6816 298.817 36.4889 299.445 35.5492C300.072 34.6095 300.888 33.8535 301.831 33.2919C302.77 32.7267 303.901 32.2863 305.093 32.0366C306.286 31.787 307.541 31.6588 308.734 31.6588C309.865 31.6588 310.992 31.7211 312.122 31.9085C313.253 32.0959 314.317 32.3489 315.26 32.8482C316.2 33.2886 316.956 33.9161 317.583 34.731C318.211 35.5459 318.461 36.6137 318.461 37.9938V49.5375C318.461 50.5431 318.523 51.4828 318.648 52.4225C318.773 53.3622 318.96 54.0523 319.275 54.4927H313.065C312.94 54.1808 312.878 53.8026 312.815 53.4248C312.753 53.047 312.69 52.6725 312.69 52.3569C311.685 53.3626 310.558 54.0526 309.24 54.4894C307.923 54.8672 306.605 55.1169 305.225 55.1169C304.157 55.1169 303.154 54.992 302.277 54.739C301.338 54.4894 300.582 54.1116 299.892 53.546C299.201 52.9808 298.699 52.2907 298.262 51.4758C297.884 50.6609 297.697 49.6553 297.697 48.5285C297.697 47.2732 297.946 46.2053 298.387 45.3904C298.827 44.5755 299.392 43.9477 300.082 43.4451C300.772 42.9424 301.587 42.568 302.468 42.3772C303.345 42.1276 304.289 41.9368 305.166 41.812C306.105 41.6871 306.986 41.5623 307.863 41.5001C308.74 41.4378 309.559 41.3127 310.249 41.1223C310.939 40.9348 311.504 40.6819 311.879 40.3699C312.257 40.058 312.444 39.5551 312.444 38.9272C312.444 38.2998 312.319 37.7342 312.132 37.36C311.945 36.9856 311.63 36.67 311.255 36.4829C310.877 36.2955 310.503 36.1051 310 36.0425C309.497 35.9803 308.994 35.9177 308.495 35.9177C307.302 35.9177 306.362 36.1673 305.672 36.67C304.982 37.1726 304.604 38.0501 304.479 39.2428H298.394V39.125H298.377L298.377 39.1243ZM312.497 43.6425C312.247 43.8921 311.931 44.0829 311.557 44.2077C311.179 44.3325 310.742 44.4574 310.302 44.5196C309.861 44.5819 309.425 44.707 308.922 44.707C308.419 44.7693 307.916 44.8319 307.479 44.8944C307.038 44.9567 306.602 45.0819 306.099 45.2064C305.658 45.3312 305.284 45.5183 304.968 45.7716C304.656 46.0212 304.403 46.3368 304.153 46.7113C303.966 47.0891 303.842 47.5262 303.842 48.154C303.842 48.7192 303.966 49.1596 304.153 49.5341C304.341 49.9119 304.656 50.2242 304.968 50.4113C305.28 50.5987 305.721 50.7891 306.161 50.8517C306.602 50.9139 307.101 50.9765 307.604 50.9765C308.797 50.9765 309.736 50.7891 310.364 50.349C310.992 49.9712 311.495 49.4719 311.807 48.9063C312.119 48.3411 312.31 47.7759 312.372 47.2106C312.434 46.6454 312.497 46.205 312.497 45.8305L312.497 43.6425Z" fill="#F9A703"/>
<path d="M399.775 44.8978C399.9 43.2021 399.775 41.5101 399.335 39.9425C398.957 38.3753 398.267 36.9952 397.389 35.7399C396.512 34.4846 395.319 33.5449 393.939 32.7926C392.559 32.0403 390.863 31.7247 388.98 31.7247C387.285 31.7247 385.78 32.0366 384.337 32.6019C382.957 33.2293 381.765 34.0446 380.762 35.0499C379.757 36.1177 379.004 37.3071 378.439 38.7532C377.874 40.1959 377.624 41.7005 377.624 43.3962C377.624 45.0919 377.874 46.6591 378.439 48.1018C378.942 49.5445 379.694 50.7372 380.696 51.805C381.702 52.8107 382.829 53.6256 384.272 54.1908C385.652 54.756 387.219 55.0057 388.977 55.0057C391.488 55.0057 393.62 54.4404 395.441 53.31C397.199 52.1795 398.516 50.2342 399.394 47.5988H393.998C393.811 48.2888 393.246 48.9163 392.368 49.5441C391.491 50.1716 390.423 50.4838 389.168 50.4838C387.472 50.4838 386.154 50.0434 385.215 49.1663C384.903 48.8544 384.712 48.5388 384.462 48.0984C383.772 47.2213 383.269 45.4008 383.269 43.2683C383.269 41.323 383.647 39.6932 384.275 38.6879C384.4 38.4383 384.587 38.1853 384.778 37.9356C385.155 37.433 385.655 37.0585 386.345 36.6803C386.972 36.3684 387.787 36.1777 388.793 36.1777C390.298 36.1777 391.366 36.5555 392.118 37.3707C392.87 38.1856 393.373 39.3161 393.623 40.8833L387.85 40.8829C385.655 41.0078 383.897 42.6409 383.709 44.7736H387.097H392.43H399.771V44.8985H399.774L399.775 44.8978Z" fill="#F9A703"/>
<path d="M135.808 44.8978C135.933 43.2021 135.808 41.5101 135.367 39.9425C134.99 38.3753 134.299 36.9952 133.422 35.7399C132.545 34.4846 131.352 33.5449 129.972 32.7926C128.592 32.0403 126.896 31.7247 125.016 31.7247C123.321 31.7247 121.816 32.0366 120.373 32.6019C118.993 33.2293 117.801 34.0446 116.798 35.0499C115.793 36.1177 115.04 37.3071 114.475 38.7532C113.91 40.1959 113.66 41.7005 113.66 43.3962C113.66 45.0919 113.91 46.6591 114.475 48.1018C114.978 49.5445 115.73 50.7372 116.732 51.805C117.738 52.8107 118.865 53.6256 120.308 54.1908C121.688 54.756 123.255 55.0057 125.013 55.0057C127.524 55.0057 129.656 54.4404 131.477 53.31C133.235 52.1795 134.552 50.2342 135.43 47.5988H130.034C129.847 48.2888 129.282 48.9163 128.405 49.5441C127.527 50.1716 126.459 50.4838 125.204 50.4838C123.508 50.4838 122.191 50.0434 121.251 49.1663C120.939 48.8544 120.748 48.5388 120.499 48.0984C119.809 47.2213 119.306 45.4008 119.306 43.2683C119.306 41.323 119.683 39.6932 120.311 38.6879C120.436 38.4383 120.623 38.1853 120.814 37.9356C121.192 37.433 121.691 37.0585 122.381 36.6803C123.009 36.3684 123.824 36.1777 124.829 36.1777C126.334 36.1777 127.402 36.5555 128.155 37.3707C128.907 38.1856 129.41 39.3161 129.659 40.8833L123.886 40.8829C121.691 41.0078 119.933 42.6409 119.746 44.7736H123.133H128.466H135.807V44.8985L135.808 44.8978Z" fill="#067AC1"/>
<path d="M194.975 44.5857C195.099 42.89 194.975 41.1979 194.534 39.6304C194.156 38.0632 193.466 36.6831 192.589 35.4278C191.712 34.1725 190.519 33.2328 189.138 32.4805C187.758 31.7278 186.063 31.4126 184.183 31.4126C182.488 31.4126 180.983 31.7245 179.54 32.2897C178.16 32.9172 176.967 33.7324 175.965 34.7377C174.959 35.8056 174.207 36.995 173.642 38.441C173.077 39.8837 172.827 41.3883 172.827 43.084C172.827 44.7797 173.077 46.3469 173.642 47.7896C174.145 49.2323 174.897 50.425 175.899 51.4929C176.905 52.4985 178.032 53.3134 179.474 53.8787C180.854 54.4439 182.422 54.6935 184.18 54.6935C186.69 54.6935 188.823 54.1283 190.643 52.9979C192.401 51.8674 193.719 49.922 194.596 47.2866H189.201C189.014 47.9767 188.449 48.6042 187.571 49.232C186.694 49.8595 185.626 50.1717 184.371 50.1717C182.675 50.1717 181.357 49.7313 180.418 48.8542C180.106 48.5423 179.915 48.2267 179.665 47.7863C178.975 46.9092 178.472 45.0886 178.472 42.9562C178.472 41.0109 178.85 39.3811 179.478 38.3758C179.603 38.1261 179.79 37.8731 179.981 37.6235C180.358 37.1208 180.858 36.7463 181.548 36.3682C182.175 36.0563 182.991 35.8655 183.996 35.8655C185.501 35.8655 186.569 36.2434 187.321 37.0586C188.074 37.8735 188.577 39.0039 188.826 40.5711H183.053C180.858 40.696 179.1 42.3291 178.912 44.4618H182.3H187.633H194.974V44.5867L194.975 44.5857Z" fill="#067AC1"/>
<path d="M143.211 32.2863V35.2995H143.274C144.088 34.1691 145.032 33.2919 146.159 32.6641C147.289 32.0366 148.607 31.7244 150.049 31.7244C151.43 31.7244 152.747 31.9741 153.878 32.5393C155.008 33.1045 155.948 34.0442 156.513 35.4244C157.14 34.4187 158.08 33.6038 159.211 32.8515C160.341 32.0992 161.659 31.7211 163.226 31.7211C164.419 31.7211 165.483 31.8459 166.489 32.1615C167.495 32.4734 168.372 32.9138 169.062 33.5416C169.752 34.1691 170.317 34.9843 170.757 35.9896C171.135 36.9952 171.385 38.2468 171.385 39.6929V54.5616H165.3V41.9501C165.3 41.1978 165.3 40.5074 165.237 39.8177C165.175 39.1902 165.05 38.5624 164.735 38.122C164.485 37.6194 164.107 37.2449 163.604 36.9916C163.102 36.6796 162.411 36.5512 161.534 36.5512C160.657 36.5512 159.967 36.7386 159.464 37.0538C158.961 37.3694 158.524 37.8061 158.209 38.3713C157.897 38.874 157.706 39.5018 157.581 40.1919C157.456 40.8819 157.456 41.572 157.456 42.262V54.6239H151.371V42.1998C151.371 41.5723 151.371 40.8823 151.309 40.2544C151.309 39.627 151.184 38.9992 150.931 38.4965C150.743 37.9313 150.366 37.4909 149.863 37.179C149.36 36.8671 148.608 36.6763 147.668 36.6763C147.356 36.6763 146.978 36.7386 146.538 36.8637C146.035 36.9886 145.598 37.2415 145.157 37.616C144.717 37.9905 144.342 38.4932 144.027 39.1832C143.715 39.8733 143.524 40.7504 143.524 41.8186V54.6798H137.438V32.4667H143.212V32.2866L143.211 32.2863Z" fill="#067AC1"/>
<path d="M202.316 32.2863V35.3621H202.44C203.193 34.0446 204.198 33.1671 205.454 32.5396C206.709 31.9744 207.964 31.6625 209.219 31.6625C210.849 31.6625 212.167 31.9121 213.235 32.3525C214.303 32.7929 215.118 33.4204 215.683 34.1731C216.31 34.9879 216.689 35.931 216.938 37.0581C217.188 38.1886 217.316 39.4439 217.316 40.824V54.5034H211.23V41.9541C211.23 40.1336 210.918 38.7535 210.353 37.8763C209.788 36.9992 208.786 36.4962 207.277 36.4962C205.648 36.4962 204.392 36.9989 203.702 38.0012C202.95 39.0068 202.572 40.6366 202.572 42.8938V54.5034H196.486V32.287H202.316V32.2863Z" fill="#067AC1"/>
<path d="M326.301 48.9756C326.551 49.4782 326.929 49.8527 327.369 50.106C327.81 50.4179 328.309 50.6087 328.874 50.7961C329.439 50.9209 330.004 50.9835 330.632 50.9835C331.072 50.9835 331.509 50.9213 332.012 50.8587C332.515 50.7338 332.889 50.609 333.33 50.356C333.707 50.1686 334.02 49.8534 334.269 49.4789C334.519 49.1011 334.647 48.664 334.647 48.0988C334.647 47.1591 334.02 46.469 332.827 46.0286C331.634 45.5882 329.942 45.0889 327.743 44.6485C326.866 44.4611 325.985 44.2081 325.17 43.9584C324.356 43.7088 323.603 43.3309 322.913 42.8905C322.286 42.4501 321.72 41.8849 321.346 41.1948C320.968 40.5048 320.718 39.6899 320.718 38.7468C320.718 37.3041 320.968 36.1114 321.533 35.2343C322.099 34.2946 322.851 33.6045 323.728 33.0393C324.668 32.5366 325.674 32.1622 326.804 31.9088C327.935 31.7214 329.127 31.5969 330.317 31.5969C331.51 31.5969 332.702 31.7218 333.829 31.9088C334.96 32.1585 335.962 32.5363 336.843 33.0393C337.72 33.6045 338.472 34.2946 339.038 35.2343C339.603 36.1114 339.977 37.3045 340.105 38.622H334.332C334.27 37.429 333.829 36.6767 333.014 36.2363C332.2 35.7959 331.256 35.6088 330.192 35.6088C329.88 35.6088 329.502 35.6088 329.061 35.671C328.684 35.7333 328.309 35.7959 327.994 35.9207C327.682 36.0455 327.366 36.2985 327.179 36.5482C326.929 36.7978 326.867 37.1757 326.867 37.6161C326.867 38.1813 327.054 38.6217 327.494 38.9336C327.872 39.2455 328.434 39.5611 329.061 39.7485C329.689 39.9359 330.442 40.1263 331.256 40.3137C332.071 40.5011 332.952 40.6915 333.767 40.8789C334.644 41.0664 335.525 41.3193 336.34 41.6313C337.155 41.9432 337.907 42.3213 338.597 42.7617C339.225 43.2644 339.79 43.8296 340.164 44.5196C340.542 45.2097 340.792 46.0868 340.792 47.0925C340.792 48.5352 340.48 49.7901 339.915 50.7958C339.349 51.8014 338.535 52.5537 337.592 53.1815C336.652 53.809 335.584 54.1871 334.329 54.4368C333.136 54.6865 331.881 54.8146 330.625 54.8146C329.308 54.8146 328.052 54.6898 326.859 54.4368C325.604 54.1871 324.536 53.7467 323.597 53.1193C322.657 52.4918 321.839 51.7391 321.211 50.7335C320.583 49.7279 320.271 48.5385 320.205 47.0302H325.979C325.861 47.9736 325.986 48.5388 326.301 48.9756Z" fill="#F9A703"/>
<path d="M348.011 32.2863V35.2995H348.074C348.888 34.1691 349.831 33.2919 350.959 32.6641C352.085 32.0366 353.407 31.7244 354.849 31.7244C356.229 31.7244 357.547 31.9741 358.677 32.5393C359.808 33.1045 360.748 34.0442 361.313 35.4244C361.94 34.4187 362.88 33.6038 364.01 32.8515C365.141 32.0992 366.458 31.7211 368.026 31.7211C369.219 31.7211 370.283 31.8459 371.289 32.1615C372.295 32.4734 373.172 32.9138 373.862 33.5416C374.552 34.1691 375.117 34.9843 375.557 35.9896C375.935 36.9952 376.185 38.2468 376.185 39.6929V54.5616H370.1V41.9501C370.1 41.1978 370.1 40.5074 370.037 39.8177C369.975 39.1902 369.85 38.5624 369.535 38.122C369.285 37.6194 368.907 37.2449 368.404 36.9916C367.902 36.6796 367.211 36.5512 366.334 36.5512C365.457 36.5512 364.767 36.7386 364.264 37.0538C363.761 37.3657 363.324 37.8061 363.009 38.3713C362.697 38.874 362.506 39.5018 362.381 40.1919C362.256 40.8819 362.256 41.572 362.256 42.262V54.6239H356.171V42.1998C356.171 41.5723 356.171 40.8823 356.109 40.2544C356.109 39.627 355.984 38.9992 355.731 38.4965C355.543 37.9313 355.166 37.4909 354.663 37.179C354.16 36.8671 353.408 36.6763 352.468 36.6763C352.156 36.6763 351.778 36.7386 351.337 36.8637C350.835 36.9886 350.398 37.2415 349.957 37.616C349.517 37.9939 349.142 38.4932 348.827 39.1832C348.515 39.8733 348.324 40.7504 348.324 41.8186V54.6798H342.238V32.4667H348.012V32.2866L348.011 32.2863Z" fill="#F9A703"/>
<path d="M407.116 32.2863V35.3621H407.241C407.993 34.0446 408.999 33.1671 410.254 32.5396C411.509 31.9744 412.764 31.6625 414.02 31.6625C415.649 31.6625 416.967 31.9121 418.035 32.3525C419.103 32.7929 419.918 33.4204 420.483 34.1731C421.111 34.9879 421.489 35.931 421.739 37.0581C421.988 38.1886 422.116 39.4439 422.116 40.824V54.5034H416.031V41.9541C416.031 40.1336 415.719 38.7535 415.153 37.8763C414.588 36.9992 413.586 36.4962 412.078 36.4962C410.448 36.4962 409.193 36.9989 408.503 38.0012C407.75 39.0068 407.372 40.6366 407.372 42.8938V54.5034H401.287V32.287H407.116V32.2863Z" fill="#F9A703"/>
<path d="M250.189 31.7211H243.916V54.496H250.189V31.7211Z" fill="#F9A703"/>
<path d="M247.054 30.2162C249.168 30.2162 250.882 28.5023 250.882 26.3881C250.882 24.2738 249.168 22.5599 247.054 22.5599C244.94 22.5599 243.226 24.2738 243.226 26.3881C243.226 28.5023 244.94 30.2162 247.054 30.2162Z" fill="#F9A703"/>
<path d="M90.1263 25.3235H96.1495V37.3697L107.443 25.3235H115.349L103.366 37.3072L115.977 54.4994H108.133L99.1594 41.7631L96.2121 44.7107V54.4997L90.1889 54.4994V25.3235H90.1263Z" fill="#067AC1"/>
<path d="M77.5601 29.103L77.5531 28.8777L77.4353 28.6972C72.4038 20.8989 67.6776 15.3577 61.8349 11.0959C56.0062 6.83769 49.0846 3.88338 39.6771 1.25496L39.4657 1.19604L39.2577 1.25164C30.2836 3.63372 23.5497 6.41127 17.6964 10.6452C11.843 14.8824 6.89841 20.5483 1.49244 28.6902L1.36761 28.8637L1.35363 29.082C0.847323 38.3544 1.41588 45.6152 3.62853 52.4845C5.85117 59.3608 9.70692 65.8173 15.7683 73.4702L15.9035 73.6437L16.1082 73.7269C24.7701 77.0767 31.8508 78.779 39.0739 78.7963C46.3004 78.8173 53.6307 77.1352 62.7849 73.7269L62.986 73.6507L63.1281 73.4772C68.9918 66.2784 72.8026 60.0785 75.0529 53.2165C77.2998 46.3545 77.9692 38.868 77.5601 29.1034V29.103Z" fill="#0090D4"/>
<path d="M68.1214 38.0494C65.8465 34.6165 64.9174 31.3988 64.9104 31.3639L64.4354 29.6962L64.196 31.4125C64.1821 31.5233 63.8285 34.1518 64.6954 36.874C65.2746 38.6946 65.3228 40.1509 64.8342 40.8719C64.6018 41.2118 64.2483 41.3922 63.7523 41.4268C60.8672 41.6209 58.8906 40.5913 56.9765 39.589C56.2206 39.1939 55.4753 38.8087 54.7053 38.5211V38.5178C54.702 38.5178 54.6983 38.5178 54.6983 38.5178C53.1205 37.9353 51.4354 37.7722 49.289 38.8437L49.2507 38.8647C47.4166 40.0783 47.8463 41.8606 48.2591 43.5876C48.6925 45.4011 49.1053 47.1174 47.2258 48.4802C47.1912 48.3484 47.1496 48.2203 47.1043 48.0918C47.3989 45.7476 46.879 43.4764 45.7415 41.6316C46.1193 39.9152 49.1638 26.1177 49.4761 23.7979C49.5383 23.3228 49.7431 22.9657 50.0932 22.7127C50.8978 22.1371 53.71 22.2273 53.71 22.2273C53.71 22.2273 51.4075 20.8748 50.6725 20.3685C49.6635 19.6715 48.7065 19.0127 47.7182 19.2035C47.347 19.2764 47.0075 19.4601 46.6849 19.7617C46.4039 18.5064 45.5268 17.8996 44.6736 17.3067C44.164 16.9529 43.6404 16.589 43.186 16.0724L42.6381 15.4482L42.4646 17.071C41.993 16.4053 41.438 16.0411 40.9284 15.7082C40.4501 15.3963 39.7287 14.7998 39.4304 14.3145C39.1322 14.7998 38.4075 15.3963 37.9325 15.7082C37.4228 16.0411 36.8679 16.4053 36.3962 17.071L36.2228 15.4482L35.6749 16.0724C35.2205 16.589 34.6972 16.9532 34.1873 17.3067C33.3341 17.8996 32.4606 18.5101 32.176 19.7617C31.8534 19.4601 31.5136 19.2727 31.1427 19.2035C30.1544 19.0127 29.1974 19.6715 28.1884 20.3685C27.4534 20.8748 25.1509 22.2273 25.1509 22.2273C25.1509 22.2273 27.9597 22.1338 28.7676 22.7127C29.1215 22.9657 29.3226 23.3195 29.3848 23.7979C29.6967 26.114 32.7379 39.9149 33.1194 41.6316C31.9819 43.4764 31.4653 45.7476 31.7566 48.0918C31.7116 48.2166 31.67 48.3447 31.6351 48.4802C29.7556 47.1174 30.1684 45.3978 30.6018 43.5876C31.0146 41.8642 31.441 40.0783 29.6102 38.8647L29.5719 38.8437C27.4255 37.7722 25.7404 37.9316 24.1659 38.5178C24.1626 38.5178 24.1589 38.5178 24.1556 38.5178V38.5211C23.3856 38.8091 22.6403 39.1939 21.8844 39.589C19.9703 40.5877 17.9937 41.6209 15.1086 41.4268C14.6126 41.3922 14.2591 41.2118 14.0267 40.8719C13.5377 40.1506 13.5863 38.6942 14.1655 36.874C15.0324 34.1521 14.6822 31.52 14.6649 31.4125L14.4255 29.6962L13.9505 31.3639C13.9402 31.3952 13.0108 34.6128 10.7395 38.0494C9.26588 40.2754 8.93633 42.8589 9.93863 44.3292C10.2472 44.7799 10.5871 45.1648 10.9406 45.4976C10.67 46.9956 10.8887 48.2542 11.6097 49.2392C11.8004 49.4992 12.0225 49.7385 12.2754 49.9569C12.4036 51.6316 12.9585 52.9182 13.9365 53.7817C13.9748 53.8163 14.0197 53.8439 14.058 53.8789C14.2002 55.8382 15.0567 57.2147 16.6172 57.9983C16.9604 59.406 17.7234 60.4636 18.8988 61.133C19.9493 61.7328 21.3294 62.0344 23.0564 62.0344C25.7125 62.0344 29.1941 61.3201 33.5528 59.8917C35.1373 61.3723 37.076 62.4715 39.3229 63.1616L39.4304 63.1962L39.538 63.1616C41.7816 62.4715 43.7199 61.3687 45.3081 59.8917C49.6668 61.3204 53.1481 62.0344 55.8045 62.0344C57.5311 62.0344 58.9116 61.7328 59.9621 61.133C61.1375 60.4602 61.9042 59.4027 62.2437 57.9983C63.8076 57.211 64.6641 55.8379 64.8029 53.8789C64.8412 53.8476 64.8861 53.8166 64.9244 53.7817C65.902 52.9182 66.457 51.6319 66.5854 49.9569C66.8384 49.7349 67.0605 49.4958 67.2512 49.2392C67.9689 48.2545 68.1909 46.9956 67.9203 45.4976C68.2775 45.1648 68.6173 44.7799 68.9223 44.3292C69.9249 42.8589 69.5953 40.2757 68.1217 38.0494H68.1214Z" fill="white"/>
<path d="M55.2532 65.2038L55.2392 64.7704L54.8162 64.8569C53.0788 65.2071 51.6954 64.6559 50.0933 64.0177C47.5064 62.9878 44.5764 61.826 39.4304 64.2987C34.2811 61.8264 31.3545 62.9881 28.7676 64.0177C27.1655 64.6559 25.782 65.2071 24.0447 64.8569L23.6217 64.7704L23.6077 65.2038C23.5454 67.1907 22.9662 69.2226 21.8358 71.4073L21.5791 71.9033L22.1373 71.9379C22.5015 71.9622 22.848 71.9726 23.1776 71.9726C25.8995 71.9726 27.505 71.2269 28.9371 70.5611C31.2359 69.4933 33.2229 68.5709 39.2983 71.0258L39.4334 71.0814L39.5686 71.0258C45.6437 68.5709 47.6306 69.4933 49.9298 70.5611C51.3619 71.2269 52.9673 71.9726 55.6893 71.9726C56.0188 71.9726 56.3654 71.9622 56.7295 71.9379L57.2878 71.9033L57.0311 71.4073C55.89 69.2193 55.3108 67.1907 55.2519 65.2038H55.2532Z" fill="white"/>
<path d="M39.4587 54.0591C39.6634 54.0591 39.8781 54.0834 40.0829 54.1423C40.2876 54.1942 40.4886 54.2774 40.6724 54.385V54.3883L40.7589 54.4332L40.7623 54.4402L40.8385 54.4852L40.8661 54.5025V54.5095C40.9044 54.5234 40.9284 54.5544 40.9633 54.5754V54.5857L41.0256 54.6273C41.8787 54.2042 42.4057 53.6044 42.7143 52.9699C43.1687 52.0405 43.1687 51.0142 43.0854 50.3208C43.0715 50.1577 43.0405 49.9913 43.0092 49.8318C42.9779 49.6687 42.94 49.5059 42.8947 49.3465C42.8564 49.1904 42.8081 49.0346 42.7559 48.8855C42.704 48.74 42.6554 48.5942 42.5928 48.4451L42.5858 48.4311C42.4403 48.0669 42.2739 47.7237 42.0898 47.3735C41.906 47.0303 41.6947 46.6765 41.476 46.2883L41.469 46.2813C41.3475 46.0387 41.216 45.8096 41.0842 45.5843L41.0599 45.546C40.474 44.5194 39.8668 43.4552 39.517 41.5618C39.3818 41.9882 39.2187 42.5118 39.0836 43.0527C38.9311 43.6423 38.6292 44.9392 38.7367 45.324C38.9065 45.7018 39.0523 46.0453 39.2743 46.4025C40.1411 47.8103 41.0009 48.9061 39.6281 51.3158L39.5659 51.3298C40.6581 49.1591 39.8502 47.8935 39.0493 46.5966C38.8099 46.2188 38.0783 44.5853 38.0783 44.5853C37.8632 45.5806 37.4195 46.3782 36.9964 47.1408V47.1442C36.7467 47.5812 36.5111 47.9973 36.334 48.4204C35.9698 49.3255 35.786 50.2303 35.793 51.0628C35.8034 51.8847 35.9978 52.6473 36.3789 53.2578C36.4655 53.407 36.5593 53.5491 36.6668 53.6706C36.7777 53.7988 36.8922 53.9169 37.01 54.0208H37.0137C37.1455 54.1423 37.298 54.2531 37.4401 54.357C37.5856 54.4542 37.7384 54.5444 37.9012 54.624C37.9774 54.5617 38.0606 54.4991 38.1438 54.4332C38.248 54.3743 38.3552 54.3154 38.4594 54.2668L38.4697 54.2598L38.4837 54.2565L38.5113 54.2425H38.5217L38.5839 54.2149H38.5909C38.7364 54.1593 38.8752 54.1213 39.021 54.09C39.1664 54.0764 39.3156 54.0587 39.458 54.0587L39.4587 54.0591Z" fill="#FBD106"/>
<path d="M68.1214 38.0182C65.8465 34.5852 64.9174 31.3676 64.9104 31.3326L64.4354 29.6649L64.196 31.3812C64.1821 31.4921 63.8285 34.1205 64.6954 36.8428C65.2746 38.6633 65.3228 40.1197 64.8342 40.8407C64.6018 41.1806 64.2483 41.361 63.7523 41.3956C60.8672 41.5897 58.8906 40.5601 56.9765 39.5578C56.2206 39.1626 55.4753 38.7775 54.7053 38.4899V38.4866C54.702 38.4866 54.6983 38.4866 54.695 38.4866C53.1208 37.904 51.4354 37.7409 49.289 38.8125L49.2507 38.8334C47.4166 40.0471 47.8463 41.8293 48.2591 43.5563C48.6925 45.3698 49.1053 47.0862 47.2258 48.449C47.1912 48.3172 47.1496 48.189 47.1043 48.0605C47.3989 45.7164 46.879 43.4451 45.7415 41.6003C46.1193 39.884 49.1638 26.0865 49.4761 23.7666C49.5383 23.2916 49.7431 22.9344 50.0932 22.6814C50.8978 22.1059 53.71 22.1961 53.71 22.1961C53.71 22.1961 51.4075 20.8436 50.6725 20.3373C49.6635 19.6402 48.7065 18.9815 47.7182 19.1722C47.347 19.2451 47.0075 19.4289 46.6849 19.7304C46.4039 18.4752 45.5268 17.8683 44.6736 17.2755C44.164 16.9216 43.6404 16.5578 43.186 16.0411L42.6381 15.417L42.4646 17.0398C41.993 16.374 41.438 16.0099 40.9284 15.677C40.4501 15.3651 39.7287 14.7685 39.4304 14.2832C39.1322 14.7685 38.4075 15.3651 37.9325 15.677C37.4228 16.0099 36.8679 16.374 36.3962 17.0398L36.2228 15.417L35.6749 16.0411C35.2205 16.5578 34.6972 16.9219 34.1873 17.2755C33.3341 17.8683 32.4606 18.4788 32.176 19.7304C31.8534 19.4289 31.5136 19.2414 31.1427 19.1722C30.1544 18.9815 29.1974 19.6402 28.1884 20.3373C27.4534 20.8436 25.1509 22.1961 25.1509 22.1961C25.1509 22.1961 27.9597 22.1026 28.7676 22.6814C29.1215 22.9344 29.3226 23.2883 29.3848 23.7666C29.6967 26.0828 32.7379 39.8837 33.1194 41.6003C31.9819 43.4451 31.4653 45.7164 31.7566 48.0605C31.7116 48.1853 31.67 48.3135 31.6351 48.449C29.7556 47.0862 30.1684 45.3665 30.6018 43.5563C31.0146 41.833 31.441 40.0471 29.6102 38.8334L29.5719 38.8125C27.4255 37.7409 25.7404 37.9004 24.1659 38.4866C24.1626 38.4866 24.1589 38.4866 24.1589 38.4866L24.1556 38.4899C23.3856 38.7778 22.6403 39.1626 21.8844 39.5578C19.9703 40.5564 17.9937 41.5897 15.1086 41.3956C14.6126 41.361 14.2591 41.1806 14.0267 40.8407C13.5377 40.1193 13.5863 38.663 14.1655 36.8428C15.0324 34.1208 14.6822 31.4888 14.6649 31.3812L14.4255 29.6649L13.9505 31.3326C13.9402 31.3639 13.0108 34.5815 10.7395 38.0182C9.26588 40.2442 8.93633 42.8276 9.93863 44.298C10.2472 44.7487 10.5871 45.1335 10.9406 45.4664C10.67 46.9643 10.8887 48.223 11.6097 49.208C11.8004 49.4679 12.0225 49.7073 12.2754 49.9256C12.4036 51.6004 12.9585 52.8869 13.9365 53.7504C13.9748 53.785 14.0197 53.8127 14.058 53.8476C14.2002 55.807 15.0567 57.1834 16.6172 57.967C16.9604 59.3748 17.7234 60.4323 18.8988 61.1017C19.9493 61.7016 21.3294 62.0032 23.0564 62.0032C25.7125 62.0032 29.1941 61.2888 33.5528 59.8604C35.1373 61.3411 37.076 62.4403 39.3229 63.1303L39.4304 63.1649L39.538 63.1303C41.7816 62.4403 43.7199 61.3374 45.3081 59.8604C49.6668 61.2892 53.1481 62.0032 55.8045 62.0032C57.5311 62.0032 58.9116 61.7016 59.9621 61.1017C61.1375 60.429 61.9042 59.3714 62.2437 57.967C63.8076 57.1798 64.6641 55.8066 64.8029 53.8476C64.8412 53.8163 64.8861 53.7854 64.9244 53.7504C65.902 52.8869 66.457 51.6007 66.5854 49.9256C66.8384 49.7036 67.0605 49.4646 67.2512 49.208C67.9689 48.2233 68.1909 46.9643 67.9203 45.4664C68.2775 45.1335 68.6173 44.7487 68.9223 44.298C69.9282 42.8276 69.599 40.2445 68.1217 38.0182H68.1214ZM46.4525 46.8016C46.092 46.2746 45.662 45.782 45.2216 45.2793C43.9872 43.8749 42.5272 42.2142 41.9657 39.0065C44.7432 40.4732 46.4595 43.4831 46.4525 46.8016ZM30.1032 23.6731C30.0129 22.997 29.7044 22.4631 29.1877 22.0919C28.7403 21.773 28.1961 21.6202 27.6795 21.5543C28.002 21.3532 28.3069 21.1415 28.5982 20.9405C29.517 20.306 30.3112 19.7581 31.0013 19.8899C31.3861 19.9628 31.7502 20.2611 32.1074 20.788L33.9313 30.549L34.649 30.4139L32.8078 20.5973C32.8181 19.1133 33.6054 18.5654 34.6007 17.8786C34.9406 17.643 35.3081 17.3896 35.6652 17.0777L35.7901 18.2358C35.7867 18.2461 35.7831 18.2531 35.7798 18.2634L35.7937 18.2668L36.8756 28.406L37.6003 28.3297L36.5324 18.3327C36.9868 17.1746 37.6422 16.7445 38.3286 16.2938C38.7064 16.0475 39.0949 15.7911 39.4278 15.4167L39.4311 15.4133V15.4167C39.764 15.7911 40.1525 16.0441 40.5303 16.2938C41.2203 16.7445 41.8721 17.1746 42.3265 18.3327L41.2586 28.3297L41.9833 28.406L43.0652 18.2668L43.0791 18.2634C43.0758 18.2531 43.0722 18.2461 43.0688 18.2358L43.1937 17.0777C43.5508 17.3896 43.9183 17.643 44.2582 17.8786C45.2535 18.5687 46.0371 19.113 46.0511 20.5973L44.2099 30.4139L44.9276 30.549L46.7515 20.788C47.1086 20.2611 47.4728 19.9661 47.8576 19.8899C48.5477 19.7547 49.3416 20.306 50.2607 20.9405C50.552 21.1415 50.8605 21.3532 51.1794 21.5543C50.6628 21.6202 50.1185 21.7727 49.6712 22.0919C49.1545 22.4631 48.846 22.9933 48.7557 23.6731C48.4785 25.7433 45.8916 37.5502 45.1773 40.7818C44.3035 39.6513 43.1697 38.7326 41.8382 38.1291C41.748 37.3351 41.71 36.4507 41.7376 35.466C41.9597 34.9181 42.1121 34.3495 42.1121 33.7843C42.1121 32.4738 41.3112 31.083 40.6694 29.9665C40.25 29.2385 39.4314 27.5981 39.4314 27.5981C39.4314 27.5981 38.6721 29.2382 38.2524 29.9665C37.6109 31.083 36.8097 32.4734 36.8097 33.7843C36.8097 34.3046 36.9345 34.8246 37.1286 35.3272H37.1216C37.1562 36.3674 37.1183 37.2932 37.0211 38.1254C35.6895 38.7289 34.5558 39.6476 33.6819 40.7781C32.9673 37.5532 30.3804 25.7429 30.1032 23.6727V23.6731ZM41.3798 33.788C41.3798 34.284 41.2307 34.8006 41.0123 35.3102H41.009C41.009 35.3136 41.009 35.3136 41.009 35.3172C40.7004 36.0316 40.2497 36.725 39.8822 37.2935C39.7227 37.5399 39.5806 37.7616 39.4591 37.9626C39.3376 37.7616 39.1954 37.5395 39.036 37.2935C38.4048 36.3225 37.538 34.9877 37.538 33.7913C37.538 32.6748 38.2524 31.4332 38.8835 30.3377C39.1056 29.9529 39.303 29.606 39.4591 29.2871C39.6152 29.606 39.8129 29.9529 40.0346 30.3377C40.6658 31.4302 41.3801 32.6715 41.3801 33.788H41.3798ZM36.8962 39.0065C36.3347 42.2142 34.8747 43.8785 33.6403 45.2793C33.1966 45.782 32.7665 46.2746 32.4093 46.8016C32.399 43.4831 34.1154 40.4732 36.8962 39.0065ZM19.2566 60.4669C18.3964 59.9779 17.8139 59.2673 17.4744 58.3172C18.3585 58.6052 19.4094 58.7506 20.6334 58.7506C20.89 58.7506 21.157 58.7436 21.4273 58.7296L21.3927 58.0016C17.3808 58.1891 15.2794 57.0273 14.8426 54.3676C15.7337 54.8286 16.8469 55.0646 18.1747 55.0646C18.4487 55.0646 18.733 55.0543 19.0279 55.0334L18.9793 54.3053C16.9368 54.4442 15.4009 54.073 14.4125 53.2025C13.7018 52.5784 13.2578 51.6629 13.0707 50.4909C14.1665 51.129 15.6575 51.5451 17.5819 51.7392L17.6548 51.0145C14.9119 50.7335 13.0744 49.9812 12.1932 48.7745C11.6523 48.0359 11.4546 47.1241 11.5897 46.004C13.7221 47.5539 16.1495 47.4846 16.2813 47.481L16.2537 46.753C16.2154 46.753 12.5641 46.8572 10.5358 43.8852C9.82512 42.845 9.87705 40.6326 11.3404 38.417C12.62 36.482 13.4798 34.6441 14.0001 33.3509C13.9688 34.2766 13.837 35.4454 13.4625 36.6208C13.081 37.8171 12.5714 40.0052 13.4176 41.2498C13.7781 41.7804 14.326 42.0717 15.0507 42.1203C18.1401 42.3283 20.3038 41.1979 22.2146 40.2029C22.9116 39.8387 23.5774 39.4922 24.2535 39.2285C25.4395 39.3361 26.2264 39.6759 26.6529 40.2721C27.5233 41.4891 26.8992 43.83 26.2401 46.3056C25.7617 48.0985 25.2657 49.9533 25.1685 51.7948C24.9988 55.505 27.2907 57.9634 32.3604 59.4753C25.9145 61.4932 21.618 61.8158 19.2566 60.4669ZM45.2285 59.0695C45.1939 59.0765 45.1626 59.0868 45.128 59.0971L45.0345 59.1214L44.9652 59.1874C43.457 60.6404 41.5948 61.7186 39.4311 62.4016C37.2674 61.7186 35.4053 60.64 33.897 59.1874L33.8277 59.1214L33.7342 59.0971C33.6996 59.0902 33.6683 59.0798 33.6337 59.0695C28.1239 57.6758 25.7381 55.4425 25.9045 51.8364C25.9981 50.0748 26.4838 48.2579 26.9518 46.5C27.6868 43.7364 28.3249 41.3507 27.2534 39.8527C26.9205 39.388 26.4385 39.0448 25.8107 38.8158C26.8336 38.677 27.9328 38.8191 29.2227 39.4606C30.5402 40.3447 30.3358 41.5341 29.8884 43.3929C29.4307 45.3069 28.8585 47.6927 31.6983 49.3711L32.1733 49.652L32.2462 49.1041C32.4197 47.7759 33.2379 46.8432 34.1883 45.765C35.7624 43.9757 37.6868 41.7844 37.8499 36.7806C38.044 37.1064 38.2417 37.4117 38.4222 37.689C38.7204 38.1467 39.4278 39.3917 39.4278 39.3917C39.4278 39.3917 40.1941 38.1504 40.4923 37.689C40.6554 37.436 40.8322 37.162 41.009 36.8741C41.1927 41.812 43.1068 43.9861 44.6706 45.765C45.6174 46.8435 46.4392 47.7726 46.6127 49.1041L46.6856 49.652L47.1606 49.3711C50.0004 47.6894 49.4318 45.3073 48.9704 43.3929C48.5267 41.5341 48.3187 40.3484 49.6362 39.4606C50.9261 38.8191 52.0253 38.677 53.0482 38.8158C52.4207 39.0445 51.9384 39.388 51.6055 39.8527C50.534 41.3507 51.1721 43.7364 51.9071 46.5C52.3751 48.2579 52.8608 50.0751 52.9544 51.8364C53.1241 55.4391 50.7387 57.6724 45.2285 59.0699V59.0695ZM68.3191 43.8852C66.2905 46.8568 62.6392 46.753 62.6012 46.753L62.5736 47.481C62.7017 47.4843 65.1328 47.5539 67.2652 46.004C67.4003 47.1241 67.2029 48.0326 66.6617 48.7745C65.7809 49.9812 63.943 50.7339 61.2001 51.0145L61.273 51.7392C63.1974 51.5414 64.6884 51.129 65.7842 50.4909C65.5968 51.6629 65.1497 52.5784 64.4424 53.2025C63.454 54.073 61.9178 54.4438 59.8756 54.3053L59.827 55.0334C60.1183 55.0543 60.4025 55.0646 60.6802 55.0646C62.0083 55.0646 63.1215 54.829 64.0123 54.3676C63.5789 57.0306 61.4741 58.1887 57.4622 58.0016L57.4276 58.7296C57.6982 58.7436 57.9652 58.7506 58.2215 58.7506C59.4455 58.7506 60.4927 58.6015 61.3805 58.3172C61.0407 59.2673 60.4581 59.9783 59.5983 60.4669C57.2369 61.8158 52.9407 61.4935 46.4945 59.4753C51.5639 57.9634 53.8561 55.505 53.6864 51.7948C53.5858 49.9536 53.0935 48.0985 52.6148 46.3056C51.956 43.8296 51.3319 41.4891 52.202 40.2721C52.6285 39.6756 53.4191 39.3357 54.6014 39.2285C55.2775 39.4922 55.9433 39.8387 56.6403 40.2029C58.5511 41.1982 60.7111 42.3287 63.8042 42.1203C64.5289 42.0717 65.0768 41.7771 65.4373 41.2498C66.2835 40.0085 65.7702 37.8168 65.3924 36.6208C65.0179 35.4487 64.8861 34.2766 64.8548 33.3509C65.3751 34.6408 66.2313 36.482 67.5145 38.417C68.9815 40.6363 69.0298 42.8453 68.3191 43.8855V43.8852Z" fill="#231F20"/>
<path d="M43.5295 49.6101C43.4912 49.4366 43.4496 49.2562 43.408 49.0864C43.3594 48.92 43.3075 48.7536 43.2589 48.5871C43.1966 48.4174 43.1374 48.2612 43.0785 48.1121L43.0681 48.0948L43.0648 48.0915C42.9054 47.6997 42.7286 47.3425 42.5342 46.975C42.3401 46.6145 42.1284 46.2433 41.8997 45.8445C41.7646 45.5915 41.6328 45.3522 41.494 45.1165L41.4697 45.0852C40.4677 43.3203 40.1797 42.5956 39.6874 40.5601L39.5939 40.0261L39.3652 40.5914C39.237 40.9519 38.9281 41.5933 38.6612 42.6232C38.5363 43.0913 38.4325 43.556 38.3666 43.9721L38.3632 43.9618C38.3146 43.8612 38.2833 43.778 38.2487 43.7018L38.1898 43.5909L38.1795 43.5806L38.1275 43.4834L37.8536 42.9701L37.6905 43.8925C37.4894 45.0193 37.0144 45.8758 36.5394 46.7187V46.729C36.2864 47.1797 36.0434 47.6131 35.846 48.0918C35.4439 49.0731 35.2495 50.0615 35.2601 50.9699C35.2671 51.8956 35.4888 52.7488 35.9189 53.4492C36.0264 53.6189 36.1373 53.7717 36.2621 53.9172C36.3799 54.0627 36.5117 54.1945 36.6506 54.3263C36.803 54.4581 36.9731 54.5863 37.1429 54.7008C37.3233 54.8223 37.5034 54.9262 37.6978 55.0197L37.788 55.0683L37.9128 55.1272L38.0204 55.037L38.0933 54.9711H38.0966C38.1728 54.9052 38.249 54.8463 38.3359 54.7907C38.4158 54.7318 38.5057 54.6832 38.6066 54.6382L38.6099 54.6349L38.6132 54.6316L38.6478 54.6176L38.7101 54.5899C38.8316 54.545 38.9597 54.5101 39.0776 54.4894C39.2024 54.4651 39.3342 54.4548 39.4521 54.4548C39.6288 54.4548 39.8126 54.4791 39.9897 54.531C40.1594 54.5726 40.3259 54.6385 40.482 54.7321L40.5619 54.7737L40.6311 54.8256L40.6554 54.8429L40.7317 54.8915L40.8219 54.9781L40.8878 55.0337L40.992 55.1309L41.1168 55.0686L41.2034 55.027H41.2067C42.2087 54.538 42.8225 53.848 43.1797 53.1096C43.693 52.0554 43.693 50.9146 43.6061 50.1483C43.5921 49.9712 43.5645 49.7878 43.5299 49.6107L43.5295 49.6101ZM42.5449 52.7205C42.2503 53.3203 41.7509 53.8889 40.9464 54.2914L40.8875 54.2497V54.2394C40.8562 54.2221 40.8285 54.1875 40.7939 54.1772V54.1702L40.7663 54.1529L40.697 54.1079L40.6937 54.1009L40.6138 54.056V54.0527C40.4404 53.9485 40.2463 53.8689 40.0556 53.8203C39.8615 53.7647 39.6605 53.7404 39.4661 53.7404C39.3309 53.7404 39.1888 53.7544 39.05 53.7787C38.9148 53.8063 38.7793 53.8446 38.6408 53.8966H38.6339L38.5749 53.9242H38.5646L38.5403 53.9382L38.5263 53.9415L38.516 53.9485C38.4188 53.9934 38.315 54.0527 38.2178 54.1079C38.1379 54.1669 38.0583 54.2258 37.9891 54.2884C37.8329 54.2155 37.6908 54.1289 37.552 54.0354C37.4168 53.9382 37.271 53.8306 37.1462 53.7165H37.1429C37.032 53.6193 36.9245 53.5084 36.8203 53.3869C36.7161 53.2691 36.6296 53.1373 36.5464 52.9951C36.1859 52.4196 36.0021 51.6949 35.9915 50.9179C35.9845 50.1274 36.1579 49.2709 36.5048 48.4144C36.6745 48.0122 36.8932 47.6204 37.1322 47.2043V47.201C37.5344 46.4763 37.9541 45.724 38.1588 44.7773L38.1935 44.8988V44.9058L38.3216 45.2663C38.3632 45.3808 38.4082 45.4847 38.4568 45.5852V45.5885C38.6302 45.9664 38.8519 46.3272 39.0809 46.6844C39.8402 47.9117 40.5822 49.2988 39.5456 51.355L39.6255 51.4173C41.0472 49.1357 40.229 47.8109 39.4071 46.476C39.1958 46.1361 39.012 45.7859 38.8489 45.4254C38.6269 44.8083 38.9667 43.8825 39.1089 43.324C39.237 42.8143 39.3932 42.3183 39.518 41.9126C39.8509 43.7054 40.4264 44.7177 40.9813 45.6887L41.0056 45.7234C41.1305 45.9347 41.2553 46.1498 41.3698 46.3821L41.3768 46.3855C41.5848 46.753 41.7859 47.0895 41.9593 47.4154C42.1328 47.7483 42.2922 48.0742 42.431 48.4174L42.438 48.4313C42.4969 48.5735 42.5455 48.7086 42.5941 48.8474C42.6461 48.9896 42.6913 49.1387 42.7259 49.2845C42.7676 49.4336 42.8058 49.5898 42.8335 49.7422C42.8611 49.8913 42.8924 50.0508 42.9027 50.2033C42.9756 50.8693 42.9756 51.84 42.5455 52.7208L42.5449 52.7205Z" fill="#231F20"/>
<path d="M40.5789 55.6018C40.1698 55.262 38.7966 55.2307 38.4152 55.6018C38.0061 55.997 37.9748 57.7726 37.9748 57.7726C37.9748 57.7726 37.1529 58.8268 37.1739 59.2392C37.2155 60.0055 38.6405 61.3996 39.4278 61.4029C40.2114 61.4099 41.6471 60.0541 41.6817 59.2945C41.706 58.8957 40.9188 57.8728 40.9188 57.8728C40.9188 57.8728 41.0263 55.976 40.5789 55.6015V55.6018ZM40.9913 59.1317C40.96 59.7559 39.9787 60.876 39.4414 60.8723C38.8972 60.869 37.9155 59.7176 37.8915 59.0864C37.8812 58.7466 38.4428 57.8764 38.4428 57.8764C38.4428 57.8764 38.4671 56.4131 38.7411 56.0835C39.001 55.7853 39.9477 55.8062 40.2287 56.0835C40.5339 56.3991 40.461 57.963 40.461 57.963C40.461 57.963 41.009 58.8022 40.9917 59.1317H40.9913Z" fill="#231F20"/>
<path d="M55.2532 65.1692L55.2392 64.7358L54.8162 64.8224C53.0788 65.1726 51.6954 64.6213 50.0933 63.9832C47.5064 62.9533 44.5764 61.7915 39.4304 64.2641C34.2811 61.7918 31.3545 62.9536 28.7676 63.9832C27.1655 64.6213 25.782 65.1726 24.0447 64.8224L23.6217 64.7358L23.6077 65.1692C23.5454 67.1562 22.9662 69.1881 21.8358 71.3728L21.5791 71.8688L22.1373 71.9034C22.5015 71.9277 22.848 71.938 23.1776 71.938C25.8995 71.938 27.505 71.1924 28.9371 70.5266C31.2359 69.4587 33.2229 68.5363 39.2983 70.9913L39.4334 71.0469L39.5686 70.9913C45.6437 68.5363 47.6306 69.4587 49.9298 70.5266C51.3619 71.1924 52.9673 71.938 55.6893 71.938C56.0188 71.938 56.3654 71.9277 56.7295 71.9034L57.2878 71.8688L57.0311 71.3728C55.8933 69.1881 55.3108 67.1599 55.2519 65.1692H55.2532ZM39.0633 70.1208C33.0784 67.801 30.9111 68.8066 28.6225 69.8678C27.1176 70.5682 25.5607 71.2896 22.7312 71.2027C22.863 70.9287 22.9842 70.6584 23.1024 70.3915C25.8626 70.3568 27.4401 69.5766 28.8342 68.8865C31.0259 67.7976 32.926 66.8579 39.0636 69.3755V70.1208H39.0633ZM39.0633 68.5882C32.8354 66.0846 30.8245 67.0833 28.508 68.2311C27.1765 68.8935 25.793 69.5659 23.4003 69.6528C23.9239 68.2693 24.2255 66.9308 24.3124 65.6063C26.0703 65.8387 27.513 65.2664 29.0353 64.6596C31.5945 63.6436 34.2365 62.5894 39.0636 64.8953V68.5882H39.0633ZM39.7916 64.8986C44.6217 62.5927 47.2641 63.647 49.82 64.6629C51.3422 65.2698 52.7846 65.842 54.5429 65.6096C54.6294 66.9308 54.9313 68.2693 55.4549 69.6561C53.0622 69.5696 51.6788 68.8932 50.3472 68.2344C48.0311 67.0833 46.0198 66.088 39.792 68.5916V64.8986H39.7916ZM50.2324 69.8675C47.9438 68.8066 45.7801 67.801 39.7916 70.1205V69.3748C45.9293 66.8573 47.8293 67.797 50.021 68.8858C51.4148 69.5792 52.9926 70.3562 55.7529 70.3908C55.8674 70.6614 55.9922 70.9317 56.124 71.202C53.2942 71.2889 51.741 70.5675 50.2327 69.8672L50.2324 69.8675Z" fill="#231F20"/>
<path fill-rule="evenodd" clip-rule="evenodd" d="M14.9465 28.0804C13.4831 27.387 12.7548 27.0369 11.2881 26.3431C11.0108 26.929 10.879 27.2239 10.6327 27.8308C10.3208 27.7026 10.1716 27.64 9.86639 27.5189C10.5565 25.8475 10.9483 25.0569 11.8117 23.5623C12.0927 23.7287 12.2382 23.8086 12.5224 23.9784C12.2069 24.516 12.0577 24.7966 11.7735 25.3618C13.2092 26.1075 13.9232 26.4886 15.3659 27.2309C15.1961 27.5671 15.1092 27.7369 14.9465 28.0804Z" fill="#231F20"/>
<path fill-rule="evenodd" clip-rule="evenodd" d="M12.1586 22.9551C12.3806 22.5839 12.4985 22.4002 12.7341 22.0363C13.6183 22.6222 14.0553 22.9068 14.9395 23.4927C15.2967 23.7284 15.5253 23.8705 15.6435 23.9158C15.8273 23.9957 16.011 23.999 16.2018 23.9401C16.3855 23.8812 16.5519 23.746 16.6977 23.5343C16.8502 23.3193 16.9231 23.1252 16.9091 22.9484C16.8918 22.768 16.8292 22.6189 16.7151 22.501C16.5972 22.3692 16.3892 22.1925 16.0806 21.9634C15.2138 21.3117 14.7837 20.9858 13.9202 20.337C14.1732 19.9901 14.305 19.8237 14.565 19.4978C15.3589 20.1393 15.7614 20.4652 16.5623 21.1136C17.0166 21.4848 17.3252 21.7621 17.481 21.9528C17.6371 22.1402 17.7377 22.3446 17.7863 22.5493C17.8382 22.7574 17.8382 22.9794 17.7829 23.2117C17.731 23.4511 17.6062 23.7077 17.4015 23.9953C17.1551 24.3525 16.9368 24.5919 16.7217 24.7234C16.5067 24.8515 16.2986 24.9281 16.0803 24.9487C15.8652 24.9763 15.6608 24.9557 15.4837 24.8865C15.2064 24.7999 14.8423 24.6158 14.3739 24.3249C13.4934 23.773 13.0461 23.4957 12.1583 22.9548L12.1586 22.9551Z" fill="#231F20"/>
<path fill-rule="evenodd" clip-rule="evenodd" d="M19.6104 21.1139C18.4141 20.0077 17.8175 19.4495 16.6318 18.3433C16.233 18.7837 16.0353 19.0021 15.6505 19.4635C15.4008 19.2485 15.276 19.1409 15.023 18.9296C16.0736 17.6673 16.6388 17.0814 17.8109 15.9889C18.0362 16.2386 18.1438 16.3601 18.3724 16.5991C17.9424 16.9942 17.7343 17.1956 17.3252 17.6187C18.4833 18.7628 19.0555 19.3387 20.2136 20.4828C19.9603 20.7288 19.8461 20.8536 19.6101 21.1139H19.6104Z" fill="#231F20"/>
<path fill-rule="evenodd" clip-rule="evenodd" d="M23.2688 17.8024C21.7741 16.4742 21.0009 15.8364 19.399 14.6087C19.7216 14.3521 19.888 14.2239 20.2069 13.9742C21.2612 14.8687 21.7708 15.3301 22.7728 16.2628C22.2525 14.9865 22.0065 14.3314 21.5558 13.0205C21.9476 12.7569 22.1486 12.6254 22.5441 12.3791C23.5637 13.3567 24.056 13.8527 25.0164 14.8827C24.5554 13.5651 24.3367 12.8994 23.9312 11.5642C24.2814 11.3734 24.4548 11.2799 24.8083 11.0995C25.2904 13.0518 25.5643 14.0155 26.1815 15.9193C25.8696 16.0857 25.7204 16.1792 25.4152 16.3666C24.3679 15.2848 23.8237 14.7612 22.7105 13.7416C23.1959 15.1773 23.4562 15.881 24.0178 17.2714C23.7158 17.4725 23.5634 17.587 23.2688 17.802V17.8024Z" fill="#231F20"/>
<path fill-rule="evenodd" clip-rule="evenodd" d="M25.2554 10.8778C25.6093 10.7011 25.786 10.6179 26.1396 10.4478C26.5903 11.4151 26.8123 11.8938 27.256 12.8578C27.4365 13.2393 27.5576 13.4853 27.6339 13.5858C27.7447 13.7489 27.9008 13.8631 28.0743 13.9154C28.2477 13.971 28.4454 13.9467 28.6708 13.8598C28.8928 13.7662 29.0419 13.6447 29.1145 13.4956C29.1804 13.3432 29.2047 13.1837 29.1664 13.0206C29.1281 12.8575 29.0416 12.5942 28.8958 12.23C28.5007 11.2244 28.3099 10.7251 27.9145 9.71609C28.275 9.57395 28.4587 9.50804 28.8299 9.37988C29.1731 10.3439 29.3395 10.8259 29.6934 11.7899C29.8911 12.3482 30.0159 12.747 30.0472 12.9863C30.0888 13.2326 30.0819 13.4543 30.0159 13.6554C29.964 13.8495 29.8528 14.0332 29.7004 14.193C29.5512 14.3628 29.3259 14.5016 29.0206 14.6231C28.6601 14.7792 28.3652 14.8518 28.1398 14.8381C27.9111 14.8241 27.6961 14.7652 27.5087 14.6614C27.3249 14.5572 27.1758 14.4327 27.058 14.2799C26.8776 14.0545 26.6695 13.6973 26.4235 13.2083C25.9518 12.2719 25.7195 11.8109 25.2548 10.8782L25.2554 10.8778Z" fill="#231F20"/>
<path fill-rule="evenodd" clip-rule="evenodd" d="M31.2995 13.7037C30.703 11.8382 30.3944 10.9122 29.8016 9.05369C30.5852 8.80403 30.977 8.69318 31.7746 8.49878C32.2739 8.37062 32.6517 8.33933 32.898 8.37062C33.1444 8.4089 33.3524 8.52674 33.5395 8.72081C33.7162 8.91854 33.8274 9.15788 33.8863 9.4385C33.9592 9.79901 33.9176 10.1113 33.7685 10.3852C33.623 10.6522 33.0055 11.0094 33.0055 11.0094C33.0055 11.0197 33.4043 11.1898 33.5605 11.304C33.7129 11.4255 33.9246 11.6472 34.2089 11.98C34.4862 12.3129 34.618 12.4863 34.8817 12.8295C34.4968 12.8955 34.3061 12.9337 33.9143 13.017C33.5884 12.6495 33.422 12.469 33.0821 12.1119C32.7805 11.7893 32.5725 11.6022 32.4649 11.526C32.3574 11.4498 32.2536 11.4081 32.153 11.4012C32.0525 11.3802 31.9104 11.4045 31.7056 11.4531C31.6327 11.4807 31.5981 11.4877 31.5359 11.5087C31.7579 12.2923 31.8721 12.6841 32.1044 13.4713C31.7819 13.5549 31.6258 13.5998 31.2999 13.7037H31.2995ZM31.3065 10.7527C31.5702 10.6868 31.7017 10.6452 31.9653 10.5863C32.3814 10.4718 32.6414 10.3885 32.7456 10.3296C32.8358 10.2637 32.9087 10.1805 32.9466 10.066C32.9812 9.95846 32.9882 9.83363 32.9569 9.69149C32.9187 9.53204 32.8494 9.40355 32.7489 9.33098C32.6414 9.25109 32.5096 9.21314 32.3538 9.22346C32.2775 9.22346 32.0522 9.27539 31.674 9.36893C31.3861 9.43817 31.2476 9.48677 30.9667 9.563C31.1021 10.0383 31.1714 10.281 31.3065 10.7524V10.7527Z" fill="#231F20"/>
<path fill-rule="evenodd" clip-rule="evenodd" d="M35.2941 12.7569C34.9785 10.8325 34.8121 9.86486 34.5002 7.94414C34.8817 7.88522 35.0757 7.85393 35.4605 7.802C35.7172 9.73703 35.849 10.7077 36.116 12.6427C35.7831 12.681 35.6237 12.7086 35.2941 12.7572V12.7569Z" fill="#231F20"/>
<path fill-rule="evenodd" clip-rule="evenodd" d="M38.4775 12.4311C38.3803 10.4754 38.3353 9.50105 38.2451 7.55903C38.6299 7.53473 38.8277 7.52774 39.2161 7.52441C39.2301 8.29436 39.2371 8.67917 39.2507 9.4418C39.9581 9.43847 40.3186 9.43847 41.0366 9.4661C41.0679 8.69615 41.0852 8.31833 41.1199 7.54505C41.5047 7.56602 41.6954 7.57268 42.0839 7.60397C41.9487 9.54599 41.8758 10.5237 41.7337 12.4723C41.4111 12.4447 41.2414 12.441 40.9118 12.4274C40.9464 11.5742 40.9637 11.1478 40.9984 10.295C40.305 10.2673 39.9511 10.2637 39.2577 10.274C39.2717 11.1305 39.2787 11.5569 39.2924 12.4064C38.9698 12.4064 38.807 12.4134 38.4775 12.4307V12.4311Z" fill="#231F20"/>
<path fill-rule="evenodd" clip-rule="evenodd" d="M46.2202 13.1421C45.8733 13.0589 45.6999 13.0206 45.3464 12.9513C45.2978 12.4866 45.2632 12.2543 45.2009 11.7863C44.5352 11.6648 44.1989 11.6095 43.5295 11.5263C43.3285 11.9494 43.2349 12.1574 43.0442 12.5872C42.694 12.5422 42.5239 12.5316 42.1737 12.4936C42.9746 10.6072 43.436 9.67114 44.4623 7.84363C44.8714 7.90588 45.0691 7.92685 45.4712 7.99975C45.891 10.0593 46.0401 11.0859 46.2202 13.1421ZM45.0761 10.9331C44.9789 10.1808 44.913 9.80262 44.7815 9.04665C44.414 9.72273 44.2372 10.0663 43.9043 10.7527C44.376 10.8149 44.6117 10.8532 45.0764 10.9328L45.0761 10.9331Z" fill="#231F20"/>
<path fill-rule="evenodd" clip-rule="evenodd" d="M46.6609 13.2426C47.1462 11.3529 47.3959 10.4028 47.8779 8.5094C48.2491 8.60294 48.4291 8.65487 48.7933 8.75207C49.1921 10.2257 49.3516 10.9574 49.5839 12.4207C50.021 11.1897 50.2463 10.5829 50.6761 9.34859C51.0193 9.47009 51.1894 9.52901 51.5326 9.65717C50.8285 11.481 50.4717 12.3964 49.7607 14.2239C49.4488 14.0958 49.289 14.0435 48.9771 13.9327C48.776 12.5146 48.6339 11.8069 48.28 10.3818C47.9298 11.6058 47.7494 12.216 47.3959 13.4403C47.1046 13.3571 46.9522 13.3225 46.6609 13.2426Z" fill="#231F20"/>
<path fill-rule="evenodd" clip-rule="evenodd" d="M52.4933 10.0387C53.1557 10.3196 53.4816 10.4651 54.1264 10.7807C54.4939 10.9504 54.7539 11.1205 54.91 11.273C55.1214 11.481 55.2638 11.7307 55.3401 12.0186C55.4093 12.2996 55.4093 12.6082 55.3434 12.9271C55.2812 13.2496 55.1284 13.6068 54.896 14.0019C54.6913 14.3488 54.4799 14.6294 54.2545 14.8375C53.9773 15.0871 53.7033 15.2639 53.4257 15.3611C53.2143 15.4373 52.9819 15.4583 52.7183 15.427C52.5172 15.4027 52.2812 15.3195 52.0076 15.1876C51.4424 14.917 51.1581 14.7785 50.5756 14.5392C51.3419 12.7396 51.7267 11.8415 52.4933 10.0383V10.0387ZM53.0482 11.1828C52.5003 12.3582 52.2263 12.9514 51.6854 14.1234C51.9211 14.231 52.0356 14.2865 52.2713 14.3941C52.4896 14.5016 52.6491 14.5638 52.7566 14.5848C52.9021 14.6091 53.0375 14.6058 53.1624 14.5605C53.2872 14.5222 53.4293 14.415 53.5888 14.2519C53.7482 14.0888 53.9113 13.8392 54.0914 13.5063C54.2752 13.1734 54.386 12.9028 54.4243 12.6914C54.4626 12.4867 54.4589 12.3066 54.414 12.1574C54.3621 11.998 54.2579 11.8628 54.1227 11.7447C54.0152 11.6581 53.7898 11.5296 53.443 11.3599C53.2802 11.2906 53.2003 11.256 53.0479 11.1831L53.0482 11.1828Z" fill="#231F20"/>
<path fill-rule="evenodd" clip-rule="evenodd" d="M57.372 18.6485C57.0877 18.4059 56.9419 18.2914 56.6473 18.0627C56.8035 17.6223 56.883 17.4039 57.0218 16.9565C56.4636 16.5404 56.1723 16.3324 55.5968 15.9545C55.2256 16.2458 55.0525 16.3983 54.6917 16.6895C54.3934 16.4988 54.241 16.4086 53.9287 16.2285C55.4926 14.8797 56.3178 14.2345 58.0551 13.0488C58.4053 13.2775 58.5754 13.399 58.9152 13.6487C58.4126 15.6979 58.1004 16.7035 57.3724 18.6489L57.372 18.6485ZM57.2855 16.1173C57.5142 15.3823 57.6253 15.0112 57.8297 14.2692C57.2022 14.7129 56.897 14.9489 56.2868 15.4133C56.6926 15.6839 56.8903 15.826 57.2855 16.1173Z" fill="#231F20"/>
<path fill-rule="evenodd" clip-rule="evenodd" d="M58.1523 19.3107C58.7036 18.6968 58.9775 18.3883 59.5254 17.7744C59.7751 16.4812 59.8756 15.8151 60.0108 14.4733C60.3783 14.7679 60.5587 14.917 60.9192 15.2292C60.7737 16.1237 60.6905 16.5677 60.4891 17.4416C61.3316 17.1709 61.7687 17.0428 62.6355 16.8244C62.9754 17.1606 63.1382 17.3307 63.4607 17.6776C62.1259 17.9063 61.4705 18.0521 60.1979 18.4056C59.6326 18.9984 59.3483 19.3 58.7864 19.8932C58.5331 19.6575 58.4083 19.5467 58.152 19.3107H58.1523Z" fill="#231F20"/>
<path fill-rule="evenodd" clip-rule="evenodd" d="M62.303 24.03C62.0846 23.7074 61.9668 23.548 61.7308 23.2361C61.9944 22.8373 62.1193 22.6465 62.3722 22.2407C61.9249 21.6582 61.6855 21.3773 61.2142 20.826C60.7841 21.0134 60.5694 21.107 60.1496 21.2977C59.893 21.0237 59.7648 20.8816 59.5115 20.6216C61.3806 19.7408 62.3513 19.342 64.3485 18.6763C64.6328 19.0125 64.7786 19.1859 65.0489 19.5294C64.04 21.4122 63.4954 22.314 62.3027 24.0303L62.303 24.03ZM62.83 21.4918C63.2461 20.833 63.4368 20.5034 63.8216 19.8204C63.0899 20.0804 62.7364 20.2122 62.0254 20.5034C62.3513 20.8849 62.5177 21.086 62.83 21.4918Z" fill="#231F20"/>
<path fill-rule="evenodd" clip-rule="evenodd" d="M62.5836 24.4357C64.1994 23.3435 65.0003 22.7923 66.6198 21.6964C66.8521 22.0433 66.9666 22.2234 67.192 22.5772C66.5505 24.0232 66.1933 24.72 65.4234 26.0518C66.5711 25.4277 67.15 25.1224 68.2911 24.5052C68.4819 24.8727 68.5791 25.0565 68.7662 25.424C67.0185 26.2978 66.1447 26.7382 64.4004 27.605C64.227 27.2688 64.1438 27.0954 63.967 26.7625C64.73 25.4932 65.0872 24.8275 65.725 23.451C64.6501 24.1271 64.1158 24.474 63.041 25.157C62.8639 24.8624 62.7703 24.72 62.5833 24.4357H62.5836Z" fill="#231F20"/>
<path fill-rule="evenodd" clip-rule="evenodd" d="M64.8239 28.4896C66.5994 27.685 67.4869 27.2726 69.2625 26.4713C69.4499 26.8804 69.5398 27.0921 69.7169 27.5186C67.9103 28.2642 67.0085 28.6387 65.209 29.3807C65.0529 29.0202 64.9836 28.8398 64.8242 28.4896H64.8239Z" fill="#231F20"/>
<path d="M77.5601 29.103L77.5531 28.8777L77.4353 28.6972C72.4038 20.8989 67.6776 15.3577 61.8349 11.0959C56.0062 6.83769 49.0846 3.88338 39.6771 1.25496L39.4657 1.19604L39.2577 1.25164C30.2836 3.63372 23.5497 6.41127 17.6964 10.6452C11.843 14.8824 6.89841 20.5483 1.49244 28.6902L1.36761 28.8637L1.35363 29.082C0.847323 38.3544 1.41588 45.6152 3.62853 52.4845C5.85117 59.3608 9.70692 65.8173 15.7683 73.4702L15.9035 73.6437L16.1082 73.7269C24.7701 77.0767 31.8508 78.779 39.0739 78.7963C46.3004 78.8173 53.6307 77.1352 62.7849 73.7269L62.986 73.6507L63.1281 73.4772C68.9918 66.2784 72.8026 60.0785 75.0529 53.2165C77.2998 46.3545 77.9692 38.868 77.5601 29.1034V29.103Z" fill="#0090D4"/>
<path d="M68.1214 38.0494C65.8465 34.6165 64.9174 31.3988 64.9104 31.3639L64.4354 29.6962L64.196 31.4125C64.1821 31.5233 63.8285 34.1518 64.6954 36.874C65.2746 38.6946 65.3228 40.1509 64.8342 40.8719C64.6018 41.2118 64.2483 41.3922 63.7523 41.4268C60.8672 41.6209 58.8906 40.5913 56.9765 39.589C56.2206 39.1939 55.4753 38.8087 54.7053 38.5211V38.5178C54.702 38.5178 54.6983 38.5178 54.6983 38.5178C53.1205 37.9353 51.4354 37.7722 49.289 38.8437L49.2507 38.8647C47.4166 40.0783 47.8463 41.8606 48.2591 43.5876C48.6925 45.4011 49.1053 47.1174 47.2258 48.4802C47.1912 48.3484 47.1496 48.2203 47.1043 48.0918C47.3989 45.7476 46.879 43.4764 45.7415 41.6316C46.1193 39.9152 49.1638 26.1177 49.4761 23.7979C49.5383 23.3228 49.7431 22.9657 50.0932 22.7127C50.8978 22.1371 53.71 22.2273 53.71 22.2273C53.71 22.2273 51.4075 20.8748 50.6725 20.3685C49.6635 19.6715 48.7065 19.0127 47.7182 19.2035C47.347 19.2764 47.0075 19.4601 46.6849 19.7617C46.4039 18.5064 45.5268 17.8996 44.6736 17.3067C44.164 16.9529 43.6404 16.589 43.186 16.0724L42.6381 15.4482L42.4646 17.071C41.993 16.4053 41.438 16.0411 40.9284 15.7082C40.4501 15.3963 39.7287 14.7998 39.4304 14.3145C39.1322 14.7998 38.4075 15.3963 37.9325 15.7082C37.4228 16.0411 36.8679 16.4053 36.3962 17.071L36.2228 15.4482L35.6749 16.0724C35.2205 16.589 34.6972 16.9532 34.1873 17.3067C33.3341 17.8996 32.4606 18.5101 32.176 19.7617C31.8534 19.4601 31.5136 19.2727 31.1427 19.2035C30.1544 19.0127 29.1974 19.6715 28.1884 20.3685C27.4534 20.8748 25.1509 22.2273 25.1509 22.2273C25.1509 22.2273 27.9597 22.1338 28.7676 22.7127C29.1215 22.9657 29.3226 23.3195 29.3848 23.7979C29.6967 26.114 32.7379 39.9149 33.1194 41.6316C31.9819 43.4764 31.4653 45.7476 31.7566 48.0918C31.7116 48.2166 31.67 48.3447 31.6351 48.4802C29.7556 47.1174 30.1684 45.3978 30.6018 43.5876C31.0146 41.8642 31.441 40.0783 29.6102 38.8647L29.5719 38.8437C27.4255 37.7722 25.7404 37.9316 24.1659 38.5178C24.1626 38.5178 24.1589 38.5178 24.1556 38.5178V38.5211C23.3856 38.8091 22.6403 39.1939 21.8844 39.589C19.9703 40.5877 17.9937 41.6209 15.1086 41.4268C14.6126 41.3922 14.2591 41.2118 14.0267 40.8719C13.5377 40.1506 13.5863 38.6942 14.1655 36.874C15.0324 34.1521 14.6822 31.52 14.6649 31.4125L14.4255 29.6962L13.9505 31.3639C13.9402 31.3952 13.0108 34.6128 10.7395 38.0494C9.26588 40.2754 8.93633 42.8589 9.93863 44.3292C10.2472 44.7799 10.5871 45.1648 10.9406 45.4976C10.67 46.9956 10.8887 48.2542 11.6097 49.2392C11.8004 49.4992 12.0225 49.7385 12.2754 49.9569C12.4036 51.6316 12.9585 52.9182 13.9365 53.7817C13.9748 53.8163 14.0197 53.8439 14.058 53.8789C14.2002 55.8382 15.0567 57.2147 16.6172 57.9983C16.9604 59.406 17.7234 60.4636 18.8988 61.133C19.9493 61.7328 21.3294 62.0344 23.0564 62.0344C25.7125 62.0344 29.1941 61.3201 33.5528 59.8917C35.1373 61.3723 37.076 62.4715 39.3229 63.1616L39.4304 63.1962L39.538 63.1616C41.7816 62.4715 43.7199 61.3687 45.3081 59.8917C49.6668 61.3204 53.1481 62.0344 55.8045 62.0344C57.5311 62.0344 58.9116 61.7328 59.9621 61.133C61.1375 60.4602 61.9042 59.4027 62.2437 57.9983C63.8076 57.211 64.6641 55.8379 64.8029 53.8789C64.8412 53.8476 64.8861 53.8166 64.9244 53.7817C65.902 52.9182 66.457 51.6319 66.5854 49.9569C66.8384 49.7349 67.0605 49.4958 67.2512 49.2392C67.9689 48.2545 68.1909 46.9956 67.9203 45.4976C68.2775 45.1648 68.6173 44.7799 68.9223 44.3292C69.9249 42.8589 69.5953 40.2757 68.1217 38.0494H68.1214Z" fill="white"/>
<path d="M55.2532 65.2038L55.2392 64.7704L54.8162 64.8569C53.0788 65.2071 51.6954 64.6559 50.0933 64.0177C47.5064 62.9878 44.5764 61.826 39.4304 64.2987C34.2811 61.8264 31.3545 62.9881 28.7676 64.0177C27.1655 64.6559 25.782 65.2071 24.0447 64.8569L23.6217 64.7704L23.6077 65.2038C23.5454 67.1907 22.9662 69.2226 21.8358 71.4073L21.5791 71.9033L22.1373 71.9379C22.5015 71.9622 22.848 71.9726 23.1776 71.9726C25.8995 71.9726 27.505 71.2269 28.9371 70.5611C31.2359 69.4933 33.2229 68.5709 39.2983 71.0258L39.4334 71.0814L39.5686 71.0258C45.6437 68.5709 47.6306 69.4933 49.9298 70.5611C51.3619 71.2269 52.9673 71.9726 55.6893 71.9726C56.0188 71.9726 56.3654 71.9622 56.7295 71.9379L57.2878 71.9033L57.0311 71.4073C55.89 69.2193 55.3108 67.1907 55.2519 65.2038H55.2532Z" fill="white"/>
<path d="M39.4587 54.0591C39.6634 54.0591 39.8781 54.0834 40.0829 54.1423C40.2876 54.1942 40.4886 54.2774 40.6724 54.385V54.3883L40.7589 54.4332L40.7623 54.4402L40.8385 54.4852L40.8661 54.5025V54.5095C40.9044 54.5234 40.9284 54.5544 40.9633 54.5754V54.5857L41.0256 54.6273C41.8787 54.2042 42.4057 53.6044 42.7143 52.9699C43.1687 52.0405 43.1687 51.0142 43.0854 50.3208C43.0715 50.1577 43.0405 49.9913 43.0092 49.8318C42.9779 49.6687 42.94 49.5059 42.8947 49.3465C42.8564 49.1904 42.8081 49.0346 42.7559 48.8855C42.704 48.74 42.6554 48.5942 42.5928 48.4451L42.5858 48.4311C42.4403 48.0669 42.2739 47.7237 42.0898 47.3735C41.906 47.0303 41.6947 46.6765 41.476 46.2883L41.469 46.2813C41.3475 46.0387 41.216 45.8096 41.0842 45.5843L41.0599 45.546C40.474 44.5194 39.8668 43.4552 39.517 41.5618C39.3818 41.9882 39.2187 42.5118 39.0836 43.0527C38.9311 43.6423 38.6292 44.9392 38.7367 45.324C38.9065 45.7018 39.0523 46.0453 39.2743 46.4025C40.1411 47.8103 41.0009 48.9061 39.6281 51.3158L39.5659 51.3298C40.6581 49.1591 39.8502 47.8935 39.0493 46.5966C38.8099 46.2188 38.0783 44.5853 38.0783 44.5853C37.8632 45.5806 37.4195 46.3782 36.9964 47.1408V47.1442C36.7467 47.5812 36.5111 47.9973 36.334 48.4204C35.9698 49.3255 35.786 50.2303 35.793 51.0628C35.8034 51.8847 35.9978 52.6473 36.3789 53.2578C36.4655 53.407 36.5593 53.5491 36.6668 53.6706C36.7777 53.7988 36.8922 53.9169 37.01 54.0208H37.0137C37.1455 54.1423 37.298 54.2531 37.4401 54.357C37.5856 54.4542 37.7384 54.5444 37.9012 54.624C37.9774 54.5617 38.0606 54.4991 38.1438 54.4332C38.248 54.3743 38.3552 54.3154 38.4594 54.2668L38.4697 54.2598L38.4837 54.2565L38.5113 54.2425H38.5217L38.5839 54.2149H38.5909C38.7364 54.1593 38.8752 54.1213 39.021 54.09C39.1664 54.0764 39.3156 54.0587 39.458 54.0587L39.4587 54.0591Z" fill="#FBD106"/>
<path d="M68.1214 38.0182C65.8465 34.5852 64.9174 31.3676 64.9104 31.3326L64.4354 29.6649L64.196 31.3812C64.1821 31.4921 63.8285 34.1205 64.6954 36.8428C65.2746 38.6633 65.3228 40.1197 64.8342 40.8407C64.6018 41.1806 64.2483 41.361 63.7523 41.3956C60.8672 41.5897 58.8906 40.5601 56.9765 39.5578C56.2206 39.1626 55.4753 38.7775 54.7053 38.4899V38.4866C54.702 38.4866 54.6983 38.4866 54.695 38.4866C53.1208 37.904 51.4354 37.7409 49.289 38.8125L49.2507 38.8334C47.4166 40.0471 47.8463 41.8293 48.2591 43.5563C48.6925 45.3698 49.1053 47.0862 47.2258 48.449C47.1912 48.3172 47.1496 48.189 47.1043 48.0605C47.3989 45.7164 46.879 43.4451 45.7415 41.6003C46.1193 39.884 49.1638 26.0865 49.4761 23.7666C49.5383 23.2916 49.7431 22.9344 50.0932 22.6814C50.8978 22.1059 53.71 22.1961 53.71 22.1961C53.71 22.1961 51.4075 20.8436 50.6725 20.3373C49.6635 19.6402 48.7065 18.9815 47.7182 19.1722C47.347 19.2451 47.0075 19.4289 46.6849 19.7304C46.4039 18.4752 45.5268 17.8683 44.6736 17.2755C44.164 16.9216 43.6404 16.5578 43.186 16.0411L42.6381 15.417L42.4646 17.0398C41.993 16.374 41.438 16.0099 40.9284 15.677C40.4501 15.3651 39.7287 14.7685 39.4304 14.2832C39.1322 14.7685 38.4075 15.3651 37.9325 15.677C37.4228 16.0099 36.8679 16.374 36.3962 17.0398L36.2228 15.417L35.6749 16.0411C35.2205 16.5578 34.6972 16.9219 34.1873 17.2755C33.3341 17.8683 32.4606 18.4788 32.176 19.7304C31.8534 19.4289 31.5136 19.2414 31.1427 19.1722C30.1544 18.9815 29.1974 19.6402 28.1884 20.3373C27.4534 20.8436 25.1509 22.1961 25.1509 22.1961C25.1509 22.1961 27.9597 22.1026 28.7676 22.6814C29.1215 22.9344 29.3226 23.2883 29.3848 23.7666C29.6967 26.0828 32.7379 39.8837 33.1194 41.6003C31.9819 43.4451 31.4653 45.7164 31.7566 48.0605C31.7116 48.1853 31.67 48.3135 31.6351 48.449C29.7556 47.0862 30.1684 45.3665 30.6018 43.5563C31.0146 41.833 31.441 40.0471 29.6102 38.8334L29.5719 38.8125C27.4255 37.7409 25.7404 37.9004 24.1659 38.4866C24.1626 38.4866 24.1589 38.4866 24.1589 38.4866L24.1556 38.4899C23.3856 38.7778 22.6403 39.1626 21.8844 39.5578C19.9703 40.5564 17.9937 41.5897 15.1086 41.3956C14.6126 41.361 14.2591 41.1806 14.0267 40.8407C13.5377 40.1193 13.5863 38.663 14.1655 36.8428C15.0324 34.1208 14.6822 31.4888 14.6649 31.3812L14.4255 29.6649L13.9505 31.3326C13.9402 31.3639 13.0108 34.5815 10.7395 38.0182C9.26588 40.2442 8.93633 42.8276 9.93863 44.298C10.2472 44.7487 10.5871 45.1335 10.9406 45.4664C10.67 46.9643 10.8887 48.223 11.6097 49.208C11.8004 49.4679 12.0225 49.7073 12.2754 49.9256C12.4036 51.6004 12.9585 52.8869 13.9365 53.7504C13.9748 53.785 14.0197 53.8127 14.058 53.8476C14.2002 55.807 15.0567 57.1834 16.6172 57.967C16.9604 59.3748 17.7234 60.4323 18.8988 61.1017C19.9493 61.7016 21.3294 62.0032 23.0564 62.0032C25.7125 62.0032 29.1941 61.2888 33.5528 59.8604C35.1373 61.3411 37.076 62.4403 39.3229 63.1303L39.4304 63.1649L39.538 63.1303C41.7816 62.4403 43.7199 61.3374 45.3081 59.8604C49.6668 61.2892 53.1481 62.0032 55.8045 62.0032C57.5311 62.0032 58.9116 61.7016 59.9621 61.1017C61.1375 60.429 61.9042 59.3714 62.2437 57.967C63.8076 57.1798 64.6641 55.8066 64.8029 53.8476C64.8412 53.8163 64.8861 53.7854 64.9244 53.7504C65.902 52.8869 66.457 51.6007 66.5854 49.9256C66.8384 49.7036 67.0605 49.4646 67.2512 49.208C67.9689 48.2233 68.1909 46.9643 67.9203 45.4664C68.2775 45.1335 68.6173 44.7487 68.9223 44.298C69.9282 42.8276 69.599 40.2445 68.1217 38.0182H68.1214ZM46.4525 46.8016C46.092 46.2746 45.662 45.782 45.2216 45.2793C43.9872 43.8749 42.5272 42.2142 41.9657 39.0065C44.7432 40.4732 46.4595 43.4831 46.4525 46.8016ZM30.1032 23.6731C30.0129 22.997 29.7044 22.4631 29.1877 22.0919C28.7403 21.773 28.1961 21.6202 27.6795 21.5543C28.002 21.3532 28.3069 21.1415 28.5982 20.9405C29.517 20.306 30.3112 19.7581 31.0013 19.8899C31.3861 19.9628 31.7502 20.2611 32.1074 20.788L33.9313 30.549L34.649 30.4139L32.8078 20.5973C32.8181 19.1133 33.6054 18.5654 34.6007 17.8786C34.9406 17.643 35.3081 17.3896 35.6652 17.0777L35.7901 18.2358C35.7867 18.2461 35.7831 18.2531 35.7798 18.2634L35.7937 18.2668L36.8756 28.406L37.6003 28.3297L36.5324 18.3327C36.9868 17.1746 37.6422 16.7445 38.3286 16.2938C38.7064 16.0475 39.0949 15.7911 39.4278 15.4167L39.4311 15.4133V15.4167C39.764 15.7911 40.1525 16.0441 40.5303 16.2938C41.2203 16.7445 41.8721 17.1746 42.3265 18.3327L41.2586 28.3297L41.9833 28.406L43.0652 18.2668L43.0791 18.2634C43.0758 18.2531 43.0722 18.2461 43.0688 18.2358L43.1937 17.0777C43.5508 17.3896 43.9183 17.643 44.2582 17.8786C45.2535 18.5687 46.0371 19.113 46.0511 20.5973L44.2099 30.4139L44.9276 30.549L46.7515 20.788C47.1086 20.2611 47.4728 19.9661 47.8576 19.8899C48.5477 19.7547 49.3416 20.306 50.2607 20.9405C50.552 21.1415 50.8605 21.3532 51.1794 21.5543C50.6628 21.6202 50.1185 21.7727 49.6712 22.0919C49.1545 22.4631 48.846 22.9933 48.7557 23.6731C48.4785 25.7433 45.8916 37.5502 45.1773 40.7818C44.3035 39.6513 43.1697 38.7326 41.8382 38.1291C41.748 37.3351 41.71 36.4507 41.7376 35.466C41.9597 34.9181 42.1121 34.3495 42.1121 33.7843C42.1121 32.4738 41.3112 31.083 40.6694 29.9665C40.25 29.2385 39.4314 27.5981 39.4314 27.5981C39.4314 27.5981 38.6721 29.2382 38.2524 29.9665C37.6109 31.083 36.8097 32.4734 36.8097 33.7843C36.8097 34.3046 36.9345 34.8246 37.1286 35.3272H37.1216C37.1562 36.3674 37.1183 37.2932 37.0211 38.1254C35.6895 38.7289 34.5558 39.6476 33.6819 40.7781C32.9673 37.5532 30.3804 25.7429 30.1032 23.6727V23.6731ZM41.3798 33.788C41.3798 34.284 41.2307 34.8006 41.0123 35.3102H41.009C41.009 35.3136 41.009 35.3136 41.009 35.3172C40.7004 36.0316 40.2497 36.725 39.8822 37.2935C39.7227 37.5399 39.5806 37.7616 39.4591 37.9626C39.3376 37.7616 39.1954 37.5395 39.036 37.2935C38.4048 36.3225 37.538 34.9877 37.538 33.7913C37.538 32.6748 38.2524 31.4332 38.8835 30.3377C39.1056 29.9529 39.303 29.606 39.4591 29.2871C39.6152 29.606 39.8129 29.9529 40.0346 30.3377C40.6658 31.4302 41.3801 32.6715 41.3801 33.788H41.3798ZM36.8962 39.0065C36.3347 42.2142 34.8747 43.8785 33.6403 45.2793C33.1966 45.782 32.7665 46.2746 32.4093 46.8016C32.399 43.4831 34.1154 40.4732 36.8962 39.0065ZM19.2566 60.4669C18.3964 59.9779 17.8139 59.2673 17.4744 58.3172C18.3585 58.6052 19.4094 58.7506 20.6334 58.7506C20.89 58.7506 21.157 58.7436 21.4273 58.7296L21.3927 58.0016C17.3808 58.1891 15.2794 57.0273 14.8426 54.3676C15.7337 54.8286 16.8469 55.0646 18.1747 55.0646C18.4487 55.0646 18.733 55.0543 19.0279 55.0334L18.9793 54.3053C16.9368 54.4442 15.4009 54.073 14.4125 53.2025C13.7018 52.5784 13.2578 51.6629 13.0707 50.4909C14.1665 51.129 15.6575 51.5451 17.5819 51.7392L17.6548 51.0145C14.9119 50.7335 13.0744 49.9812 12.1932 48.7745C11.6523 48.0359 11.4546 47.1241 11.5897 46.004C13.7221 47.5539 16.1495 47.4846 16.2813 47.481L16.2537 46.753C16.2154 46.753 12.5641 46.8572 10.5358 43.8852C9.82512 42.845 9.87705 40.6326 11.3404 38.417C12.62 36.482 13.4798 34.6441 14.0001 33.3509C13.9688 34.2766 13.837 35.4454 13.4625 36.6208C13.081 37.8171 12.5714 40.0052 13.4176 41.2498C13.7781 41.7804 14.326 42.0717 15.0507 42.1203C18.1401 42.3283 20.3038 41.1979 22.2146 40.2029C22.9116 39.8387 23.5774 39.4922 24.2535 39.2285C25.4395 39.3361 26.2264 39.6759 26.6529 40.2721C27.5233 41.4891 26.8992 43.83 26.2401 46.3056C25.7617 48.0985 25.2657 49.9533 25.1685 51.7948C24.9988 55.505 27.2907 57.9634 32.3604 59.4753C25.9145 61.4932 21.618 61.8158 19.2566 60.4669ZM45.2285 59.0695C45.1939 59.0765 45.1626 59.0868 45.128 59.0971L45.0345 59.1214L44.9652 59.1874C43.457 60.6404 41.5948 61.7186 39.4311 62.4016C37.2674 61.7186 35.4053 60.64 33.897 59.1874L33.8277 59.1214L33.7342 59.0971C33.6996 59.0902 33.6683 59.0798 33.6337 59.0695C28.1239 57.6758 25.7381 55.4425 25.9045 51.8364C25.9981 50.0748 26.4838 48.2579 26.9518 46.5C27.6868 43.7364 28.3249 41.3507 27.2534 39.8527C26.9205 39.388 26.4385 39.0448 25.8107 38.8158C26.8336 38.677 27.9328 38.8191 29.2227 39.4606C30.5402 40.3447 30.3358 41.5341 29.8884 43.3929C29.4307 45.3069 28.8585 47.6927 31.6983 49.3711L32.1733 49.652L32.2462 49.1041C32.4197 47.7759 33.2379 46.8432 34.1883 45.765C35.7624 43.9757 37.6868 41.7844 37.8499 36.7806C38.044 37.1064 38.2417 37.4117 38.4222 37.689C38.7204 38.1467 39.4278 39.3917 39.4278 39.3917C39.4278 39.3917 40.1941 38.1504 40.4923 37.689C40.6554 37.436 40.8322 37.162 41.009 36.8741C41.1927 41.812 43.1068 43.9861 44.6706 45.765C45.6174 46.8435 46.4392 47.7726 46.6127 49.1041L46.6856 49.652L47.1606 49.3711C50.0004 47.6894 49.4318 45.3073 48.9704 43.3929C48.5267 41.5341 48.3187 40.3484 49.6362 39.4606C50.9261 38.8191 52.0253 38.677 53.0482 38.8158C52.4207 39.0445 51.9384 39.388 51.6055 39.8527C50.534 41.3507 51.1721 43.7364 51.9071 46.5C52.3751 48.2579 52.8608 50.0751 52.9544 51.8364C53.1241 55.4391 50.7387 57.6724 45.2285 59.0699V59.0695ZM68.3191 43.8852C66.2905 46.8568 62.6392 46.753 62.6012 46.753L62.5736 47.481C62.7017 47.4843 65.1328 47.5539 67.2652 46.004C67.4003 47.1241 67.2029 48.0326 66.6617 48.7745C65.7809 49.9812 63.943 50.7339 61.2001 51.0145L61.273 51.7392C63.1974 51.5414 64.6884 51.129 65.7842 50.4909C65.5968 51.6629 65.1497 52.5784 64.4424 53.2025C63.454 54.073 61.9178 54.4438 59.8756 54.3053L59.827 55.0334C60.1183 55.0543 60.4025 55.0646 60.6802 55.0646C62.0083 55.0646 63.1215 54.829 64.0123 54.3676C63.5789 57.0306 61.4741 58.1887 57.4622 58.0016L57.4276 58.7296C57.6982 58.7436 57.9652 58.7506 58.2215 58.7506C59.4455 58.7506 60.4927 58.6015 61.3805 58.3172C61.0407 59.2673 60.4581 59.9783 59.5983 60.4669C57.2369 61.8158 52.9407 61.4935 46.4945 59.4753C51.5639 57.9634 53.8561 55.505 53.6864 51.7948C53.5858 49.9536 53.0935 48.0985 52.6148 46.3056C51.956 43.8296 51.3319 41.4891 52.202 40.2721C52.6285 39.6756 53.4191 39.3357 54.6014 39.2285C55.2775 39.4922 55.9433 39.8387 56.6403 40.2029C58.5511 41.1982 60.7111 42.3287 63.8042 42.1203C64.5289 42.0717 65.0768 41.7771 65.4373 41.2498C66.2835 40.0085 65.7702 37.8168 65.3924 36.6208C65.0179 35.4487 64.8861 34.2766 64.8548 33.3509C65.3751 34.6408 66.2313 36.482 67.5145 38.417C68.9815 40.6363 69.0298 42.8453 68.3191 43.8855V43.8852Z" fill="#231F20"/>
<path d="M43.5295 49.6101C43.4912 49.4366 43.4496 49.2562 43.408 49.0864C43.3594 48.92 43.3075 48.7536 43.2589 48.5871C43.1966 48.4174 43.1374 48.2612 43.0785 48.1121L43.0681 48.0948L43.0648 48.0915C42.9054 47.6997 42.7286 47.3425 42.5342 46.975C42.3401 46.6145 42.1284 46.2433 41.8997 45.8445C41.7646 45.5915 41.6328 45.3522 41.494 45.1165L41.4697 45.0852C40.4677 43.3203 40.1797 42.5956 39.6874 40.5601L39.5939 40.0261L39.3652 40.5914C39.237 40.9519 38.9281 41.5933 38.6612 42.6232C38.5363 43.0913 38.4325 43.556 38.3666 43.9721L38.3632 43.9618C38.3146 43.8612 38.2833 43.778 38.2487 43.7018L38.1898 43.5909L38.1795 43.5806L38.1275 43.4834L37.8536 42.9701L37.6905 43.8925C37.4894 45.0193 37.0144 45.8758 36.5394 46.7187V46.729C36.2864 47.1797 36.0434 47.6131 35.846 48.0918C35.4439 49.0731 35.2495 50.0615 35.2601 50.9699C35.2671 51.8956 35.4888 52.7488 35.9189 53.4492C36.0264 53.6189 36.1373 53.7717 36.2621 53.9172C36.3799 54.0627 36.5117 54.1945 36.6506 54.3263C36.803 54.4581 36.9731 54.5863 37.1429 54.7008C37.3233 54.8223 37.5034 54.9262 37.6978 55.0197L37.788 55.0683L37.9128 55.1272L38.0204 55.037L38.0933 54.9711H38.0966C38.1728 54.9052 38.249 54.8463 38.3359 54.7907C38.4158 54.7318 38.5057 54.6832 38.6066 54.6382L38.6099 54.6349L38.6132 54.6316L38.6478 54.6176L38.7101 54.5899C38.8316 54.545 38.9597 54.5101 39.0776 54.4894C39.2024 54.4651 39.3342 54.4548 39.4521 54.4548C39.6288 54.4548 39.8126 54.4791 39.9897 54.531C40.1594 54.5726 40.3259 54.6385 40.482 54.7321L40.5619 54.7737L40.6311 54.8256L40.6554 54.8429L40.7317 54.8915L40.8219 54.9781L40.8878 55.0337L40.992 55.1309L41.1168 55.0686L41.2034 55.027H41.2067C42.2087 54.538 42.8225 53.848 43.1797 53.1096C43.693 52.0554 43.693 50.9146 43.6061 50.1483C43.5921 49.9712 43.5645 49.7878 43.5299 49.6107L43.5295 49.6101ZM42.5449 52.7205C42.2503 53.3203 41.7509 53.8889 40.9464 54.2914L40.8875 54.2497V54.2394C40.8562 54.2221 40.8285 54.1875 40.7939 54.1772V54.1702L40.7663 54.1529L40.697 54.1079L40.6937 54.1009L40.6138 54.056V54.0527C40.4404 53.9485 40.2463 53.8689 40.0556 53.8203C39.8615 53.7647 39.6605 53.7404 39.4661 53.7404C39.3309 53.7404 39.1888 53.7544 39.05 53.7787C38.9148 53.8063 38.7793 53.8446 38.6408 53.8966H38.6339L38.5749 53.9242H38.5646L38.5403 53.9382L38.5263 53.9415L38.516 53.9485C38.4188 53.9934 38.315 54.0527 38.2178 54.1079C38.1379 54.1669 38.0583 54.2258 37.9891 54.2884C37.8329 54.2155 37.6908 54.1289 37.552 54.0354C37.4168 53.9382 37.271 53.8306 37.1462 53.7165H37.1429C37.032 53.6193 36.9245 53.5084 36.8203 53.3869C36.7161 53.2691 36.6296 53.1373 36.5464 52.9951C36.1859 52.4196 36.0021 51.6949 35.9915 50.9179C35.9845 50.1274 36.1579 49.2709 36.5048 48.4144C36.6745 48.0122 36.8932 47.6204 37.1322 47.2043V47.201C37.5344 46.4763 37.9541 45.724 38.1588 44.7773L38.1935 44.8988V44.9058L38.3216 45.2663C38.3632 45.3808 38.4082 45.4847 38.4568 45.5852V45.5885C38.6302 45.9664 38.8519 46.3272 39.0809 46.6844C39.8402 47.9117 40.5822 49.2988 39.5456 51.355L39.6255 51.4173C41.0472 49.1357 40.229 47.8109 39.4071 46.476C39.1958 46.1361 39.012 45.7859 38.8489 45.4254C38.6269 44.8083 38.9667 43.8825 39.1089 43.324C39.237 42.8143 39.3932 42.3183 39.518 41.9126C39.8509 43.7054 40.4264 44.7177 40.9813 45.6887L41.0056 45.7234C41.1305 45.9347 41.2553 46.1498 41.3698 46.3821L41.3768 46.3855C41.5848 46.753 41.7859 47.0895 41.9593 47.4154C42.1328 47.7483 42.2922 48.0742 42.431 48.4174L42.438 48.4313C42.4969 48.5735 42.5455 48.7086 42.5941 48.8474C42.6461 48.9896 42.6913 49.1387 42.7259 49.2845C42.7676 49.4336 42.8058 49.5898 42.8335 49.7422C42.8611 49.8913 42.8924 50.0508 42.9027 50.2033C42.9756 50.8693 42.9756 51.84 42.5455 52.7208L42.5449 52.7205Z" fill="#231F20"/>
<path d="M40.5789 55.6018C40.1698 55.262 38.7966 55.2307 38.4152 55.6018C38.0061 55.997 37.9748 57.7726 37.9748 57.7726C37.9748 57.7726 37.1529 58.8268 37.1739 59.2392C37.2155 60.0055 38.6405 61.3996 39.4278 61.4029C40.2114 61.4099 41.6471 60.0541 41.6817 59.2945C41.706 58.8957 40.9188 57.8728 40.9188 57.8728C40.9188 57.8728 41.0263 55.976 40.5789 55.6015V55.6018ZM40.9913 59.1317C40.96 59.7559 39.9787 60.876 39.4414 60.8723C38.8972 60.869 37.9155 59.7176 37.8915 59.0864C37.8812 58.7466 38.4428 57.8764 38.4428 57.8764C38.4428 57.8764 38.4671 56.4131 38.7411 56.0835C39.001 55.7853 39.9477 55.8062 40.2287 56.0835C40.5339 56.3991 40.461 57.963 40.461 57.963C40.461 57.963 41.009 58.8022 40.9917 59.1317H40.9913Z" fill="#231F20"/>
<path d="M55.2532 65.1692L55.2392 64.7358L54.8162 64.8224C53.0788 65.1726 51.6954 64.6213 50.0933 63.9832C47.5064 62.9533 44.5764 61.7915 39.4304 64.2641C34.2811 61.7918 31.3545 62.9536 28.7676 63.9832C27.1655 64.6213 25.782 65.1726 24.0447 64.8224L23.6217 64.7358L23.6077 65.1692C23.5454 67.1562 22.9662 69.1881 21.8358 71.3728L21.5791 71.8688L22.1373 71.9034C22.5015 71.9277 22.848 71.938 23.1776 71.938C25.8995 71.938 27.505 71.1924 28.9371 70.5266C31.2359 69.4587 33.2229 68.5363 39.2983 70.9913L39.4334 71.0469L39.5686 70.9913C45.6437 68.5363 47.6306 69.4587 49.9298 70.5266C51.3619 71.1924 52.9673 71.938 55.6893 71.938C56.0188 71.938 56.3654 71.9277 56.7295 71.9034L57.2878 71.8688L57.0311 71.3728C55.8933 69.1881 55.3108 67.1599 55.2519 65.1692H55.2532ZM39.0633 70.1208C33.0784 67.801 30.9111 68.8066 28.6225 69.8678C27.1176 70.5682 25.5607 71.2896 22.7312 71.2027C22.863 70.9287 22.9842 70.6584 23.1024 70.3915C25.8626 70.3568 27.4401 69.5766 28.8342 68.8865C31.0259 67.7976 32.926 66.8579 39.0636 69.3755V70.1208H39.0633ZM39.0633 68.5882C32.8354 66.0846 30.8245 67.0833 28.508 68.2311C27.1765 68.8935 25.793 69.5659 23.4003 69.6528C23.9239 68.2693 24.2255 66.9308 24.3124 65.6063C26.0703 65.8387 27.513 65.2664 29.0353 64.6596C31.5945 63.6436 34.2365 62.5894 39.0636 64.8953V68.5882H39.0633ZM39.7916 64.8986C44.6217 62.5927 47.2641 63.647 49.82 64.6629C51.3422 65.2698 52.7846 65.842 54.5429 65.6096C54.6294 66.9308 54.9313 68.2693 55.4549 69.6561C53.0622 69.5696 51.6788 68.8932 50.3472 68.2344C48.0311 67.0833 46.0198 66.088 39.792 68.5916V64.8986H39.7916ZM50.2324 69.8675C47.9438 68.8066 45.7801 67.801 39.7916 70.1205V69.3748C45.9293 66.8573 47.8293 67.797 50.021 68.8858C51.4148 69.5792 52.9926 70.3562 55.7529 70.3908C55.8674 70.6614 55.9922 70.9317 56.124 71.202C53.2942 71.2889 51.741 70.5675 50.2327 69.8672L50.2324 69.8675Z" fill="#231F20"/>
<path fill-rule="evenodd" clip-rule="evenodd" d="M14.9465 28.0804C13.4831 27.387 12.7548 27.0369 11.2881 26.3431C11.0108 26.929 10.879 27.2239 10.6327 27.8308C10.3208 27.7026 10.1716 27.64 9.86639 27.5189C10.5565 25.8475 10.9483 25.0569 11.8117 23.5623C12.0927 23.7287 12.2382 23.8086 12.5224 23.9784C12.2069 24.516 12.0577 24.7966 11.7735 25.3618C13.2092 26.1075 13.9232 26.4886 15.3659 27.2309C15.1961 27.5671 15.1092 27.7369 14.9465 28.0804Z" fill="#231F20"/>
<path fill-rule="evenodd" clip-rule="evenodd" d="M12.1586 22.9551C12.3806 22.5839 12.4985 22.4002 12.7341 22.0363C13.6183 22.6222 14.0553 22.9068 14.9395 23.4927C15.2967 23.7284 15.5253 23.8705 15.6435 23.9158C15.8273 23.9957 16.011 23.999 16.2018 23.9401C16.3855 23.8812 16.5519 23.746 16.6977 23.5343C16.8502 23.3193 16.9231 23.1252 16.9091 22.9484C16.8918 22.768 16.8292 22.6189 16.7151 22.501C16.5972 22.3692 16.3892 22.1925 16.0806 21.9634C15.2138 21.3117 14.7837 20.9858 13.9202 20.337C14.1732 19.9901 14.305 19.8237 14.565 19.4978C15.3589 20.1393 15.7614 20.4652 16.5623 21.1136C17.0166 21.4848 17.3252 21.7621 17.481 21.9528C17.6371 22.1402 17.7377 22.3446 17.7863 22.5493C17.8382 22.7574 17.8382 22.9794 17.7829 23.2117C17.731 23.4511 17.6062 23.7077 17.4015 23.9953C17.1551 24.3525 16.9368 24.5919 16.7217 24.7234C16.5067 24.8515 16.2986 24.9281 16.0803 24.9487C15.8652 24.9763 15.6608 24.9557 15.4837 24.8865C15.2064 24.7999 14.8423 24.6158 14.3739 24.3249C13.4934 23.773 13.0461 23.4957 12.1583 22.9548L12.1586 22.9551Z" fill="#231F20"/>
<path fill-rule="evenodd" clip-rule="evenodd" d="M19.6104 21.1139C18.4141 20.0077 17.8175 19.4495 16.6318 18.3433C16.233 18.7837 16.0353 19.0021 15.6505 19.4635C15.4008 19.2485 15.276 19.1409 15.023 18.9296C16.0736 17.6673 16.6388 17.0814 17.8109 15.9889C18.0362 16.2386 18.1438 16.3601 18.3724 16.5991C17.9424 16.9942 17.7343 17.1956 17.3252 17.6187C18.4833 18.7628 19.0555 19.3387 20.2136 20.4828C19.9603 20.7288 19.8461 20.8536 19.6101 21.1139H19.6104Z" fill="#231F20"/>
<path fill-rule="evenodd" clip-rule="evenodd" d="M23.2688 17.8024C21.7741 16.4742 21.0009 15.8364 19.399 14.6087C19.7216 14.3521 19.888 14.2239 20.2069 13.9742C21.2612 14.8687 21.7708 15.3301 22.7728 16.2628C22.2525 14.9865 22.0065 14.3314 21.5558 13.0205C21.9476 12.7569 22.1486 12.6254 22.5441 12.3791C23.5637 13.3567 24.056 13.8527 25.0164 14.8827C24.5554 13.5651 24.3367 12.8994 23.9312 11.5642C24.2814 11.3734 24.4548 11.2799 24.8083 11.0995C25.2904 13.0518 25.5643 14.0155 26.1815 15.9193C25.8696 16.0857 25.7204 16.1792 25.4152 16.3666C24.3679 15.2848 23.8237 14.7612 22.7105 13.7416C23.1959 15.1773 23.4562 15.881 24.0178 17.2714C23.7158 17.4725 23.5634 17.587 23.2688 17.802V17.8024Z" fill="#231F20"/>
<path fill-rule="evenodd" clip-rule="evenodd" d="M25.2554 10.8778C25.6093 10.7011 25.786 10.6179 26.1396 10.4478C26.5903 11.4151 26.8123 11.8938 27.256 12.8578C27.4365 13.2393 27.5576 13.4853 27.6339 13.5858C27.7447 13.7489 27.9008 13.8631 28.0743 13.9154C28.2477 13.971 28.4454 13.9467 28.6708 13.8598C28.8928 13.7662 29.0419 13.6447 29.1145 13.4956C29.1804 13.3432 29.2047 13.1837 29.1664 13.0206C29.1281 12.8575 29.0416 12.5942 28.8958 12.23C28.5007 11.2244 28.3099 10.7251 27.9145 9.71609C28.275 9.57395 28.4587 9.50804 28.8299 9.37988C29.1731 10.3439 29.3432 10.8259 29.6934 11.7899C29.8911 12.3482 30.0159 12.747 30.0472 12.9863C30.0888 13.2326 30.0819 13.4543 30.0159 13.6554C29.964 13.8495 29.8528 14.0332 29.7004 14.193C29.5512 14.3628 29.3259 14.5016 29.0206 14.6231C28.6601 14.7792 28.3652 14.8518 28.1398 14.8381C27.9111 14.8241 27.6961 14.7652 27.5087 14.6614C27.3249 14.5572 27.1758 14.4327 27.058 14.2799C26.8776 14.0545 26.6695 13.6973 26.4235 13.2083C25.9518 12.2719 25.7195 11.8109 25.2548 10.8782L25.2554 10.8778Z" fill="#231F20"/>
<path fill-rule="evenodd" clip-rule="evenodd" d="M31.2995 13.7037C30.703 11.8382 30.3944 10.9122 29.8016 9.05369C30.5852 8.80403 30.977 8.69318 31.7746 8.49878C32.2739 8.37062 32.6517 8.33933 32.898 8.37062C33.1444 8.4089 33.3524 8.52674 33.5395 8.72081C33.7162 8.91854 33.8274 9.15788 33.8863 9.4385C33.9592 9.79901 33.9176 10.1113 33.7685 10.3852C33.623 10.6522 33.0055 11.0094 33.0055 11.0094C33.0055 11.0197 33.4043 11.1898 33.5605 11.304C33.7129 11.4255 33.9246 11.6472 34.2089 11.98C34.4862 12.3129 34.618 12.4863 34.8817 12.8295C34.4968 12.8955 34.3061 12.9337 33.9143 13.017C33.5884 12.6495 33.422 12.469 33.0821 12.1119C32.7805 11.7893 32.5725 11.6022 32.4649 11.526C32.3574 11.4498 32.2536 11.4081 32.153 11.4012C32.0525 11.3802 31.9104 11.4045 31.7056 11.4531C31.6327 11.4807 31.5981 11.4877 31.5359 11.5087C31.7579 12.2923 31.8721 12.6841 32.1044 13.4713C31.7819 13.5549 31.6258 13.5998 31.2999 13.7037H31.2995ZM31.3065 10.7527C31.5702 10.6868 31.7017 10.6452 31.9653 10.5863C32.3814 10.4718 32.6414 10.3885 32.7456 10.3296C32.8358 10.2637 32.9087 10.1805 32.9466 10.066C32.9812 9.95846 32.9882 9.83363 32.9569 9.69149C32.9187 9.53204 32.8494 9.40355 32.7489 9.33098C32.6414 9.25109 32.5096 9.21314 32.3538 9.22346C32.2775 9.22346 32.0522 9.27539 31.674 9.36893C31.3861 9.43817 31.2476 9.48677 30.9667 9.563C31.1021 10.0383 31.1714 10.281 31.3065 10.7524V10.7527Z" fill="#231F20"/>
<path fill-rule="evenodd" clip-rule="evenodd" d="M35.2941 12.7569C34.9785 10.8325 34.8121 9.86486 34.5002 7.94414C34.8817 7.88522 35.0757 7.85393 35.4605 7.802C35.7172 9.73703 35.849 10.7077 36.116 12.6427C35.7794 12.681 35.6237 12.7086 35.2941 12.7572V12.7569Z" fill="#231F20"/>
<path fill-rule="evenodd" clip-rule="evenodd" d="M38.4775 12.4311C38.3803 10.4754 38.3353 9.50105 38.2451 7.55903C38.6299 7.53473 38.8277 7.52774 39.2161 7.52441C39.2301 8.29436 39.2371 8.67917 39.2507 9.4418C39.9581 9.43847 40.3186 9.43847 41.0366 9.4661C41.0679 8.69615 41.0852 8.31833 41.1199 7.54505C41.5047 7.56602 41.6954 7.57268 42.0839 7.60397C41.9487 9.54599 41.8758 10.5237 41.7337 12.4723C41.4111 12.4447 41.2414 12.441 40.9118 12.4274C40.9464 11.5742 40.9637 11.1478 40.9984 10.295C40.305 10.2673 39.9511 10.2637 39.2577 10.274C39.2717 11.1305 39.2787 11.5569 39.2924 12.4064C38.9698 12.4064 38.807 12.4134 38.4775 12.4307V12.4311Z" fill="#231F20"/>
<path fill-rule="evenodd" clip-rule="evenodd" d="M46.2202 13.1421C45.8733 13.0589 45.6999 13.0206 45.3464 12.9513C45.2978 12.4866 45.2632 12.2543 45.2009 11.7863C44.5352 11.6648 44.1989 11.6095 43.5295 11.5263C43.3285 11.9494 43.2349 12.1574 43.0442 12.5872C42.694 12.5422 42.5239 12.5316 42.1737 12.4936C42.9746 10.6072 43.436 9.67114 44.4623 7.84363C44.8714 7.90588 45.0691 7.92685 45.4712 7.99975C45.891 10.0593 46.0401 11.0859 46.2202 13.1421ZM45.0761 10.9331C44.9789 10.1808 44.913 9.80262 44.7815 9.04665C44.414 9.72273 44.2372 10.0663 43.9043 10.7527C44.376 10.8149 44.6117 10.8532 45.0764 10.9328L45.0761 10.9331Z" fill="#231F20"/>
<path fill-rule="evenodd" clip-rule="evenodd" d="M46.6609 13.2426C47.1462 11.3529 47.3959 10.4028 47.8779 8.5094C48.2491 8.60294 48.4291 8.65487 48.7933 8.75207C49.1921 10.2257 49.3516 10.9574 49.5839 12.4207C50.021 11.1897 50.2463 10.5829 50.6761 9.34859C51.0193 9.47009 51.1894 9.52901 51.5326 9.65717C50.8285 11.481 50.4717 12.3964 49.7607 14.2239C49.4488 14.0958 49.289 14.0435 48.9771 13.9327C48.776 12.5146 48.6339 11.8069 48.28 10.3818C47.9298 11.6058 47.7494 12.216 47.3959 13.4403C47.1046 13.3571 46.9522 13.3225 46.6609 13.2426Z" fill="#231F20"/>
<path fill-rule="evenodd" clip-rule="evenodd" d="M52.4933 10.0387C53.1557 10.3196 53.4816 10.4651 54.1264 10.7807C54.4939 10.9504 54.7539 11.1205 54.91 11.273C55.1214 11.481 55.2638 11.7307 55.3401 12.0186C55.4093 12.2996 55.4093 12.6082 55.3434 12.9271C55.2812 13.2496 55.1284 13.6068 54.896 14.0019C54.6913 14.3488 54.4799 14.6294 54.2545 14.8375C53.9773 15.0871 53.7033 15.2639 53.4257 15.3611C53.2143 15.4373 52.9819 15.4583 52.7183 15.427C52.5172 15.4027 52.2812 15.3195 52.0076 15.1876C51.4424 14.917 51.1581 14.7785 50.5756 14.5392C51.3419 12.7396 51.7267 11.8415 52.4933 10.0383V10.0387ZM53.0482 11.1828C52.5003 12.3582 52.2263 12.9514 51.6854 14.1234C51.9211 14.231 52.0356 14.2865 52.2713 14.3941C52.4896 14.5016 52.6491 14.5638 52.7566 14.5848C52.9021 14.6091 53.0375 14.6058 53.1624 14.5605C53.2872 14.5222 53.4293 14.415 53.5888 14.2519C53.7482 14.0888 53.9113 13.8392 54.0914 13.5063C54.2752 13.1734 54.386 12.9028 54.4243 12.6914C54.4626 12.4867 54.4589 12.3066 54.414 12.1574C54.3621 11.998 54.2579 11.8628 54.1227 11.7447C54.0152 11.6581 53.7898 11.5296 53.443 11.3599C53.2802 11.2906 53.2003 11.256 53.0479 11.1831L53.0482 11.1828Z" fill="#231F20"/>
<path fill-rule="evenodd" clip-rule="evenodd" d="M57.372 18.6485C57.0877 18.4059 56.9419 18.2914 56.6473 18.0627C56.8035 17.6223 56.883 17.4039 57.0218 16.9565C56.4636 16.5404 56.1723 16.3324 55.5968 15.9545C55.2256 16.2458 55.0525 16.3983 54.6917 16.6895C54.3934 16.4988 54.241 16.4086 53.9287 16.2285C55.4926 14.8797 56.3178 14.2345 58.0551 13.0488C58.4053 13.2775 58.5754 13.399 58.9152 13.6487C58.4126 15.6979 58.1004 16.7035 57.3724 18.6489L57.372 18.6485ZM57.2855 16.1173C57.5142 15.3823 57.6253 15.0112 57.8297 14.2692C57.2022 14.7129 56.897 14.9489 56.2868 15.4133C56.6926 15.6839 56.8903 15.826 57.2855 16.1173Z" fill="#231F20"/>
<path fill-rule="evenodd" clip-rule="evenodd" d="M58.1523 19.3107C58.7036 18.6968 58.9775 18.3883 59.5254 17.7744C59.7751 16.4812 59.8756 15.8151 60.0108 14.4733C60.3783 14.7679 60.5587 14.917 60.9192 15.2292C60.7737 16.1237 60.6905 16.5677 60.4891 17.4416C61.3316 17.1709 61.7687 17.0428 62.6355 16.8244C62.9754 17.1606 63.1382 17.3307 63.4607 17.6776C62.1259 17.9063 61.4705 18.0521 60.1979 18.4056C59.6326 18.9984 59.3483 19.3 58.7864 19.8932C58.5331 19.6575 58.4083 19.5467 58.152 19.3107H58.1523Z" fill="#231F20"/>
<path fill-rule="evenodd" clip-rule="evenodd" d="M62.303 24.03C62.0846 23.7074 61.9668 23.548 61.7308 23.2361C61.9944 22.8373 62.1193 22.6465 62.3722 22.2407C61.9249 21.6582 61.6855 21.3773 61.2142 20.826C60.7841 21.0134 60.5694 21.107 60.1496 21.2977C59.893 21.0237 59.7648 20.8816 59.5115 20.6216C61.3806 19.7408 62.3513 19.342 64.3485 18.6763C64.6328 19.0125 64.7786 19.1859 65.0489 19.5294C64.04 21.4122 63.4954 22.314 62.3027 24.0303L62.303 24.03ZM62.83 21.4918C63.2461 20.833 63.4368 20.5034 63.8216 19.8204C63.0899 20.0804 62.7364 20.2122 62.0254 20.5034C62.3513 20.8849 62.5177 21.086 62.83 21.4918Z" fill="#231F20"/>
<path fill-rule="evenodd" clip-rule="evenodd" d="M62.5836 24.4357C64.1994 23.3435 65.0003 22.7923 66.6198 21.6964C66.8521 22.0433 66.9666 22.2234 67.192 22.5772C66.5505 24.0232 66.1933 24.72 65.4234 26.0518C66.5711 25.4277 67.15 25.1224 68.2911 24.5052C68.4819 24.8727 68.5791 25.0565 68.7662 25.424C67.0185 26.2978 66.1447 26.7382 64.4004 27.605C64.227 27.2688 64.1438 27.0954 63.967 26.7625C64.73 25.4932 65.0872 24.8275 65.725 23.451C64.6501 24.1271 64.1158 24.474 63.041 25.157C62.8639 24.8624 62.7703 24.72 62.5833 24.4357H62.5836Z" fill="#231F20"/>
<path fill-rule="evenodd" clip-rule="evenodd" d="M64.8239 28.4896C66.5994 27.685 67.4869 27.2726 69.2625 26.4713C69.4499 26.8804 69.5398 27.0921 69.7169 27.5186C67.9103 28.2642 67.0085 28.6387 65.209 29.3807C65.0529 29.0202 64.9836 28.8398 64.8242 28.4896H64.8239Z" fill="#231F20"/>
</g>
<defs>
<clipPath id="clip0_12206_1922">
<rect width="422.117" height="80" fill="white"/>
</clipPath>
</defs>
</svg>
