<svg width="321" height="52" viewBox="0 0 321 52" fill="none" xmlns="http://www.w3.org/2000/svg">
<path d="M146.672 16.1384C145.618 16.1384 144.705 15.9683 143.934 15.6281C143.158 15.2879 142.552 14.8149 142.117 14.2009C141.677 13.5911 141.432 12.8775 141.37 12.0602H143.282C143.336 12.6079 143.523 13.0601 143.842 13.4168C144.162 13.7736 144.573 14.0391 145.07 14.2092C145.572 14.3835 146.103 14.4706 146.672 14.4706C147.331 14.4706 147.925 14.3627 148.452 14.147C148.979 13.9313 149.393 13.6284 149.7 13.2343C150.007 12.8443 150.161 12.388 150.161 11.8735C150.161 11.4047 150.028 11.0189 149.763 10.7285C149.497 10.434 149.149 10.1933 148.709 10.0025C148.269 9.81166 147.792 9.64571 147.269 9.50051L145.506 8.99852C144.332 8.66663 143.415 8.18953 142.76 7.56723C142.104 6.94494 141.781 6.15254 141.781 5.18591C141.781 4.36447 142.005 3.64261 142.449 3.02446C142.892 2.40631 143.494 1.92921 144.253 1.58902C145.012 1.24883 145.859 1.07874 146.8 1.07874C147.742 1.07874 148.609 1.24883 149.348 1.58902C150.086 1.92921 150.671 2.38971 151.098 2.97467C151.526 3.55963 151.754 4.21927 151.779 4.95773H149.958C149.87 4.24416 149.534 3.69654 148.937 3.30656C148.344 2.91659 147.609 2.7216 146.742 2.7216C146.116 2.7216 145.564 2.82532 145.091 3.0286C144.618 3.23604 144.249 3.514 143.988 3.87078C143.726 4.22757 143.594 4.63413 143.594 5.09049C143.594 5.60077 143.751 6.01149 144.071 6.31849C144.386 6.62964 144.763 6.87026 145.199 7.0445C145.635 7.21875 146.029 7.3515 146.381 7.45107L147.842 7.85349C148.232 7.95721 148.667 8.10241 149.14 8.28495C149.613 8.46749 150.065 8.71226 150.497 9.01512C150.928 9.31797 151.281 9.70379 151.559 10.1726C151.837 10.6414 151.974 11.2139 151.974 11.8943C151.974 12.6908 151.766 13.4085 151.352 14.0516C150.937 14.6905 150.335 15.1966 149.543 15.57C148.75 15.9434 147.796 16.1301 146.672 16.1301V16.1384Z" fill="#263A6D"/>
<path d="M155.55 3.1322C155.218 3.1322 154.928 3.01604 154.687 2.78786C154.446 2.55969 154.326 2.28588 154.326 1.96643C154.326 1.64698 154.446 1.36487 154.687 1.1367C154.928 0.912671 155.218 0.796509 155.55 0.796509C155.882 0.796509 156.18 0.908523 156.421 1.1367C156.662 1.36073 156.782 1.63869 156.782 1.96643C156.782 2.29417 156.662 2.55969 156.421 2.78786C156.18 3.01604 155.89 3.1322 155.55 3.1322ZM154.658 15.8852V4.92857H156.421V15.8852H154.658Z" fill="#263A6D"/>
<path d="M163.242 16.1217C162.491 16.1217 161.823 16.0139 161.238 15.794C160.653 15.5741 160.172 15.2505 159.794 14.8191C159.417 14.3876 159.159 13.8566 159.031 13.2301L160.707 12.8277C160.864 13.4293 161.159 13.869 161.595 14.1511C162.03 14.4332 162.574 14.5743 163.225 14.5743C163.988 14.5743 164.598 14.4125 165.055 14.0847C165.511 13.757 165.735 13.3712 165.735 12.919C165.735 12.5414 165.602 12.2261 165.337 11.9731C165.071 11.72 164.669 11.5333 164.125 11.4089L162.304 10.9774C161.313 10.7409 160.574 10.3758 160.089 9.8863C159.603 9.39261 159.363 8.76201 159.363 7.99036C159.363 7.36392 159.537 6.808 159.894 6.3309C160.246 5.84966 160.728 5.47628 161.337 5.20247C161.947 4.9328 162.644 4.7959 163.42 4.7959C164.196 4.7959 164.81 4.90791 165.337 5.13194C165.864 5.35597 166.291 5.66712 166.619 6.06124C166.946 6.45536 167.195 6.91171 167.357 7.4303L165.76 7.84101C165.611 7.44689 165.362 7.09425 165.009 6.77066C164.66 6.45121 164.134 6.28942 163.424 6.28942C162.769 6.28942 162.225 6.43877 161.794 6.74162C161.358 7.04032 161.142 7.422 161.142 7.87835C161.142 8.28492 161.288 8.60851 161.582 8.85329C161.877 9.09806 162.341 9.29719 162.984 9.44654L164.64 9.83652C165.631 10.073 166.37 10.4381 166.847 10.9276C167.324 11.4213 167.56 12.0436 167.56 12.7945C167.56 13.4334 167.378 14.0059 167.017 14.5038C166.656 15.0016 166.15 15.3957 165.499 15.6861C164.847 15.9724 164.096 16.1176 163.237 16.1176L163.242 16.1217Z" fill="#263A6D"/>
<path d="M174.426 4.9286V6.43871H168.763V4.9286H174.426ZM170.406 2.31909H172.169V13.0392C172.169 13.5288 172.269 13.8855 172.468 14.1137C172.667 14.3378 172.999 14.4539 173.464 14.4539C173.576 14.4539 173.717 14.4415 173.891 14.4166C174.065 14.3917 174.223 14.3626 174.368 14.3378L174.729 15.8271C174.547 15.8935 174.339 15.9433 174.107 15.9723C173.875 16.0055 173.642 16.0221 173.414 16.0221C172.468 16.0221 171.73 15.7732 171.199 15.2712C170.668 14.7692 170.406 14.0722 170.406 13.1803V2.31909Z" fill="#263A6D"/>
<path d="M181.106 16.1217C180.048 16.1217 179.135 15.8853 178.368 15.4165C177.6 14.9477 177.007 14.288 176.592 13.4458C176.177 12.6037 175.97 11.6204 175.97 10.4962C175.97 9.37187 176.173 8.38449 176.575 7.52571C176.982 6.67109 177.554 5.99901 178.297 5.51776C179.04 5.03237 179.907 4.79175 180.898 4.79175C181.479 4.79175 182.052 4.88717 182.62 5.08215C183.184 5.27299 183.699 5.58414 184.159 6.01145C184.62 6.43877 184.989 7.00298 185.263 7.70411C185.536 8.40523 185.673 9.25985 185.673 10.2721V11.0064H177.169V9.51707H184.723L183.902 10.0647C183.902 9.34697 183.79 8.70808 183.562 8.14801C183.333 7.58794 183.002 7.15233 182.558 6.83289C182.114 6.51759 181.562 6.35579 180.902 6.35579C180.243 6.35579 179.679 6.51759 179.206 6.84118C178.737 7.16478 178.376 7.58794 178.127 8.10653C177.878 8.62511 177.754 9.18103 177.754 9.77843V10.77C177.754 11.579 177.895 12.2676 178.177 12.8318C178.459 13.3961 178.853 13.8234 179.359 14.1138C179.865 14.4042 180.45 14.5494 181.118 14.5494C181.55 14.5494 181.94 14.4872 182.292 14.3627C182.645 14.2382 182.948 14.0516 183.205 13.7985C183.458 13.5454 183.657 13.2343 183.794 12.8609L185.499 13.3297C185.329 13.8773 185.043 14.3627 184.636 14.7817C184.23 15.2007 183.728 15.5285 183.13 15.7608C182.533 15.9973 181.857 16.1134 181.106 16.1134V16.1217Z" fill="#263A6D"/>
<path d="M188.2 15.8852V4.92863H189.913L189.922 7.38049H189.785C189.934 6.78723 190.171 6.29354 190.494 5.90356C190.818 5.51359 191.195 5.22318 191.631 5.0282C192.066 4.83321 192.519 4.73364 192.988 4.73364C193.784 4.73364 194.431 4.97841 194.925 5.46795C195.419 5.9575 195.738 6.60054 195.879 7.39708H195.643C195.771 6.84946 196.012 6.37651 196.356 5.97824C196.701 5.57997 197.124 5.27297 197.617 5.05724C198.111 4.84151 198.646 4.73364 199.231 4.73364C199.866 4.73364 200.443 4.87055 200.965 5.14436C201.488 5.41817 201.903 5.83304 202.214 6.38896C202.525 6.94488 202.679 7.646 202.679 8.49647V15.8852H200.916V8.54626C200.916 7.75387 200.692 7.18965 200.248 6.84946C199.804 6.50927 199.285 6.33917 198.7 6.33917C198.211 6.33917 197.787 6.44289 197.431 6.64617C197.074 6.84946 196.8 7.13572 196.609 7.4925C196.418 7.84928 196.319 8.26415 196.319 8.7288V15.8852H194.556V8.36787C194.556 7.76216 194.352 7.26847 193.95 6.89924C193.543 6.52586 193.033 6.33917 192.411 6.33917C191.988 6.33917 191.585 6.43874 191.212 6.63788C190.834 6.83701 190.536 7.13157 190.307 7.52569C190.079 7.91566 189.963 8.4052 189.963 8.98602V15.8852H188.2Z" fill="#263A6D"/>
<path d="M213.507 1.28198V15.8853H211.644V1.28198H213.507Z" fill="#263A6D"/>
<path d="M218.58 9.31793V15.8853H216.817V4.92865H218.514L218.522 7.58379H218.278C218.609 6.57152 219.087 5.8538 219.705 5.42649C220.323 4.99918 221.045 4.7876 221.874 4.7876C222.613 4.7876 223.26 4.9411 223.816 5.24395C224.372 5.5468 224.803 6.00315 225.115 6.61716C225.426 7.23116 225.579 7.99866 225.579 8.92381V15.8811H223.816V9.06901C223.816 8.22683 223.596 7.5672 223.156 7.0901C222.717 6.61301 222.111 6.37653 221.348 6.37653C220.825 6.37653 220.356 6.4927 219.937 6.72087C219.518 6.94905 219.19 7.28094 218.946 7.7207C218.705 8.16046 218.585 8.69148 218.585 9.31793H218.58Z" fill="#263A6D"/>
<path d="M233.773 4.92861V6.43872H227.326V4.92861H233.773ZM229.479 15.8852V3.46828C229.479 2.83354 229.628 2.30666 229.923 1.87935C230.222 1.45618 230.607 1.13674 231.084 0.916857C231.562 0.701127 232.064 0.593262 232.595 0.593262C233.014 0.593262 233.358 0.626451 233.632 0.696978C233.906 0.767505 234.109 0.829735 234.237 0.887816L233.748 2.39793C233.657 2.36474 233.536 2.3274 233.391 2.29006C233.246 2.25272 233.047 2.23198 232.798 2.23198C232.254 2.23198 231.86 2.36889 231.611 2.64685C231.362 2.92481 231.238 3.32723 231.238 3.85825V15.8852H229.475H229.479Z" fill="#263A6D"/>
<path d="M240.042 16.1217C239.05 16.1217 238.179 15.8853 237.428 15.4165C236.681 14.9477 236.096 14.288 235.677 13.4376C235.258 12.5871 235.051 11.6038 235.051 10.4796C235.051 9.35527 235.258 8.33885 235.677 7.48423C236.096 6.62961 236.677 5.96997 237.428 5.50117C238.175 5.03237 239.046 4.7959 240.042 4.7959C241.037 4.7959 241.917 5.03237 242.668 5.50117C243.418 5.96997 244.003 6.63375 244.422 7.48423C244.842 8.3347 245.049 9.33453 245.049 10.4796C245.049 11.6246 244.842 12.5912 244.422 13.4376C244.003 14.288 243.418 14.9477 242.668 15.4165C241.917 15.8853 241.041 16.1217 240.042 16.1217ZM240.042 14.5411C240.78 14.5411 241.386 14.3503 241.863 13.9727C242.34 13.5952 242.692 13.0974 242.921 12.4792C243.149 11.8611 243.265 11.1931 243.265 10.4754C243.265 9.75769 243.149 9.07731 242.921 8.45087C242.692 7.82857 242.34 7.32243 241.863 6.94075C241.386 6.55908 240.78 6.36824 240.042 6.36824C239.303 6.36824 238.71 6.55908 238.237 6.94075C237.768 7.32243 237.415 7.82442 237.187 8.44672C236.959 9.06902 236.843 9.74525 236.843 10.4754C236.843 11.2056 236.959 11.8611 237.187 12.4792C237.415 13.0974 237.764 13.5952 238.237 13.9727C238.706 14.3503 239.307 14.5411 240.042 14.5411Z" fill="#263A6D"/>
<path d="M247.617 15.8852V4.92865H249.322V6.613H249.438C249.641 6.05708 250.002 5.61317 250.521 5.27713C251.04 4.94109 251.629 4.771 252.28 4.771C252.409 4.771 252.566 4.771 252.745 4.77929C252.923 4.78759 253.068 4.79174 253.172 4.80004V6.57566C253.118 6.56322 252.989 6.54247 252.778 6.51758C252.57 6.49269 252.346 6.48024 252.11 6.48024C251.587 6.48024 251.118 6.58811 250.704 6.80799C250.289 7.02787 249.965 7.32657 249.729 7.70825C249.492 8.08992 249.376 8.52968 249.376 9.02752V15.8894H247.613L247.617 15.8852Z" fill="#263A6D"/>
<path d="M255.417 15.8852V4.92863H257.13L257.138 7.38049H257.001C257.151 6.78723 257.387 6.29354 257.711 5.90356C258.034 5.51359 258.412 5.22318 258.847 5.0282C259.283 4.83321 259.735 4.73364 260.204 4.73364C261.001 4.73364 261.648 4.97841 262.141 5.46795C262.635 5.9575 262.955 6.60054 263.096 7.39708H262.859C262.988 6.84946 263.228 6.37651 263.573 5.97824C263.917 5.57997 264.34 5.27297 264.834 5.05724C265.328 4.84151 265.863 4.73364 266.448 4.73364C267.083 4.73364 267.659 4.87055 268.182 5.14436C268.705 5.41817 269.12 5.83304 269.431 6.38896C269.742 6.94488 269.895 7.646 269.895 8.49647V15.8852H268.132V8.54626C268.132 7.75387 267.908 7.18965 267.464 6.84946C267.02 6.50927 266.502 6.33917 265.917 6.33917C265.427 6.33917 265.004 6.44289 264.647 6.64617C264.29 6.84946 264.017 7.13572 263.826 7.4925C263.635 7.84928 263.535 8.26415 263.535 8.7288V15.8852H261.772V8.36787C261.772 7.76216 261.569 7.26847 261.167 6.89924C260.76 6.52586 260.25 6.33917 259.627 6.33917C259.204 6.33917 258.802 6.43874 258.428 6.63788C258.051 6.83701 257.752 7.13157 257.524 7.52569C257.296 7.91566 257.18 8.4052 257.18 8.98602V15.8852H255.417Z" fill="#263A6D"/>
<path d="M276.064 16.1383C275.371 16.1383 274.741 16.0056 274.177 15.7442C273.612 15.4828 273.16 15.1012 272.828 14.5992C272.496 14.0972 272.326 13.4832 272.326 12.7655C272.326 12.139 272.451 11.6287 272.7 11.2388C272.949 10.8446 273.281 10.5376 273.695 10.3136C274.11 10.0896 274.571 9.91949 275.073 9.80747C275.575 9.69546 276.081 9.60834 276.591 9.54196C277.242 9.45484 277.778 9.39261 278.188 9.34697C278.599 9.30134 278.906 9.22251 279.105 9.1105C279.304 8.99848 279.404 8.81179 279.404 8.54213V8.48405C279.404 8.0277 279.321 7.63772 279.151 7.32243C278.981 7.00713 278.728 6.76236 278.388 6.59226C278.047 6.42217 277.624 6.3392 277.114 6.3392C276.604 6.3392 276.143 6.42217 275.77 6.58397C275.396 6.74576 275.093 6.9532 274.861 7.19797C274.629 7.44274 274.455 7.69166 274.338 7.94887L272.642 7.38881C272.924 6.72087 273.301 6.20229 273.778 5.82476C274.255 5.44723 274.782 5.18172 275.355 5.02407C275.927 4.86642 276.5 4.7876 277.06 4.7876C277.425 4.7876 277.844 4.83323 278.309 4.92035C278.773 5.00748 279.226 5.18172 279.661 5.44309C280.097 5.70445 280.454 6.09028 280.74 6.60471C281.026 7.11914 281.167 7.80367 281.167 8.65829V15.8811H279.433V14.3917H279.317C279.192 14.6448 278.993 14.9103 278.719 15.18C278.446 15.4496 278.089 15.6778 277.649 15.8604C277.213 16.0429 276.682 16.1342 276.06 16.1342L276.064 16.1383ZM276.367 14.5826C277.023 14.5826 277.574 14.454 278.022 14.2009C278.475 13.9478 278.815 13.6159 279.051 13.2052C279.288 12.7987 279.404 12.3713 279.404 11.9274V10.409C279.333 10.4961 279.176 10.5708 278.935 10.6414C278.695 10.7119 278.417 10.77 278.105 10.8239C277.794 10.8778 277.496 10.9193 277.205 10.9567C276.915 10.994 276.682 11.0189 276.512 11.0396C276.089 11.0936 275.691 11.1807 275.322 11.3093C274.952 11.4379 274.658 11.6246 274.434 11.8694C274.21 12.1141 274.102 12.446 274.102 12.865C274.102 13.2426 274.202 13.562 274.396 13.8151C274.591 14.0681 274.861 14.2631 275.201 14.3917C275.542 14.5203 275.931 14.5867 276.367 14.5867V14.5826Z" fill="#263A6D"/>
<path d="M287.992 16.1217C287.241 16.1217 286.573 16.0139 285.988 15.794C285.403 15.5741 284.922 15.2505 284.544 14.8191C284.167 14.3876 283.909 13.8566 283.781 13.2301L285.457 12.8277C285.615 13.4293 285.909 13.869 286.345 14.1511C286.78 14.4332 287.324 14.5743 287.975 14.5743C288.739 14.5743 289.348 14.4125 289.805 14.0847C290.261 13.757 290.485 13.3712 290.485 12.919C290.485 12.5414 290.352 12.2261 290.087 11.9731C289.821 11.72 289.419 11.5333 288.875 11.4089L287.054 10.9774C286.063 10.7409 285.324 10.3758 284.839 9.8863C284.353 9.39261 284.113 8.76201 284.113 7.99036C284.113 7.36392 284.287 6.808 284.644 6.3309C284.996 5.84966 285.478 5.47628 286.088 5.20247C286.697 4.9328 287.394 4.7959 288.17 4.7959C288.946 4.7959 289.56 4.90791 290.087 5.13194C290.614 5.35597 291.041 5.66712 291.369 6.06124C291.697 6.45536 291.945 6.91171 292.107 7.4303L290.51 7.84101C290.361 7.44689 290.112 7.09425 289.759 6.77066C289.411 6.45121 288.884 6.28942 288.174 6.28942C287.519 6.28942 286.975 6.43877 286.544 6.74162C286.108 7.04032 285.893 7.422 285.893 7.87835C285.893 8.28492 286.038 8.60851 286.332 8.85329C286.627 9.09806 287.091 9.29719 287.735 9.44654L289.39 9.83652C290.381 10.073 291.12 10.4381 291.597 10.9276C292.074 11.4213 292.311 12.0436 292.311 12.7945C292.311 13.4334 292.128 14.0059 291.767 14.5038C291.406 15.0016 290.9 15.3957 290.249 15.6861C289.597 15.9724 288.846 16.1176 287.988 16.1176L287.992 16.1217Z" fill="#263A6D"/>
<path d="M295.754 3.1322C295.422 3.1322 295.131 3.01604 294.891 2.78786C294.65 2.55969 294.53 2.28588 294.53 1.96643C294.53 1.64698 294.65 1.36487 294.891 1.1367C295.131 0.912671 295.422 0.796509 295.754 0.796509C296.086 0.796509 296.384 0.908523 296.625 1.1367C296.866 1.36073 296.986 1.63869 296.986 1.96643C296.986 2.29417 296.866 2.55969 296.625 2.78786C296.384 3.01604 296.094 3.1322 295.754 3.1322ZM294.862 15.8852V4.92857H296.625V15.8852H294.862Z" fill="#263A6D"/>
<path d="M141.996 39.9683V25.365H143.859V30.3641L143.83 33.5088L143.859 34.4215V39.9683H141.996ZM143.27 35.7947V33.8075C143.602 33.3512 143.934 32.9114 144.266 32.4924C144.598 32.0734 144.934 31.6668 145.282 31.2685C145.626 30.8703 145.983 30.4761 146.352 30.082L150.713 25.3691H153.152L146.921 32.0526L146.821 32.0443L143.274 35.7989L143.27 35.7947ZM150.953 39.9683L145.672 32.538L146.83 31.086L153.16 39.9641H150.953V39.9683Z" fill="#263A6D"/>
<path d="M158.317 40.1093C157.579 40.1093 156.932 39.9558 156.371 39.6529C155.811 39.35 155.38 38.8895 155.069 38.2755C154.758 37.6615 154.604 36.894 154.604 35.973V29.0157H156.367V35.8278C156.367 36.67 156.591 37.3297 157.035 37.8067C157.479 38.2838 158.085 38.5203 158.848 38.5203C159.371 38.5203 159.84 38.4042 160.255 38.176C160.669 37.9478 160.997 37.6118 161.242 37.172C161.483 36.7322 161.603 36.2012 161.603 35.5789V29.0116H163.379V39.9682H161.673V37.3131H161.91C161.57 38.3378 161.088 39.0596 160.466 39.4787C159.844 39.8977 159.13 40.1051 158.325 40.1051L158.317 40.1093Z" fill="#263A6D"/>
<path d="M166.473 39.9681V29.0115H168.178V30.6959H168.295C168.498 30.14 168.859 29.6961 169.377 29.36C169.896 29.024 170.485 28.8539 171.136 28.8539C171.265 28.8539 171.423 28.8539 171.601 28.8622C171.78 28.8705 171.925 28.8746 172.028 28.8829V30.6585C171.975 30.6461 171.846 30.6254 171.634 30.6005C171.427 30.5756 171.203 30.5631 170.966 30.5631C170.444 30.5631 169.975 30.671 169.56 30.8909C169.145 31.1108 168.822 31.4095 168.585 31.7911C168.349 32.1728 168.232 32.6126 168.232 33.1104V39.9723H166.469L166.473 39.9681Z" fill="#263A6D"/>
<path d="M175.061 27.2194C174.729 27.2194 174.439 27.1032 174.198 26.875C173.958 26.6468 173.837 26.373 173.837 26.0536C173.837 25.7341 173.958 25.452 174.198 25.2239C174.439 24.9998 174.729 24.8878 175.061 24.8878C175.393 24.8878 175.692 24.9998 175.932 25.2239C176.173 25.4479 176.293 25.7258 176.293 26.0536C176.293 26.3813 176.173 26.6468 175.932 26.875C175.692 27.1032 175.401 27.2194 175.061 27.2194ZM174.169 39.9682V29.0116H175.932V39.9682H174.169Z" fill="#263A6D"/>
<path d="M179.031 39.9683V25.365H180.795V39.9683H179.031ZM180.687 36.0312V33.8448H181.01L185.694 29.0117H187.88L182.815 34.2141H182.62L180.691 36.027L180.687 36.0312ZM185.96 39.9683L181.765 34.6082L183.018 33.3636L188.221 39.9683H185.955H185.96Z" fill="#263A6D"/>
<path d="M193.759 40.1093C193.021 40.1093 192.373 39.9558 191.813 39.6529C191.253 39.35 190.822 38.8895 190.511 38.2755C190.2 37.6615 190.046 36.894 190.046 35.973V29.0157H191.809V35.8278C191.809 36.67 192.033 37.3297 192.477 37.8067C192.921 38.2838 193.527 38.5203 194.29 38.5203C194.813 38.5203 195.282 38.4042 195.697 38.176C196.111 37.9478 196.439 37.6118 196.68 37.172C196.92 36.7322 197.041 36.2012 197.041 35.5789V29.0116H198.816V39.9682H197.111V37.3131H197.348C197.007 38.3378 196.526 39.0596 195.904 39.4787C195.282 39.8977 194.568 40.1051 193.763 40.1051L193.759 40.1093Z" fill="#263A6D"/>
<path d="M203.678 25.3691V39.9724H201.915V25.3691H203.678Z" fill="#263A6D"/>
<path d="M210.491 40.1093C209.752 40.1093 209.105 39.9558 208.545 39.6529C207.985 39.35 207.553 38.8895 207.242 38.2755C206.931 37.6615 206.778 36.894 206.778 35.973V29.0157H208.541V35.8278C208.541 36.67 208.765 37.3297 209.209 37.8067C209.653 38.2838 210.258 38.5203 211.022 38.5203C211.544 38.5203 212.013 38.4042 212.428 38.176C212.843 37.9478 213.171 37.6118 213.411 37.172C213.652 36.7322 213.772 36.2012 213.772 35.5789V29.0116H215.548V39.9682H213.843V37.3131H214.079C213.739 38.3378 213.258 39.0596 212.636 39.4787C212.013 39.8977 211.3 40.1051 210.495 40.1051L210.491 40.1093Z" fill="#263A6D"/>
<path d="M218.643 39.9682V29.0116H220.356L220.364 31.4635H220.227C220.377 30.8702 220.613 30.3765 220.937 29.9907C221.26 29.6007 221.638 29.3103 222.074 29.1154C222.509 28.9204 222.961 28.8208 223.43 28.8208C224.227 28.8208 224.874 29.0656 225.368 29.5551C225.861 30.0447 226.181 30.6877 226.322 31.4842H226.085C226.214 30.9366 226.455 30.4637 226.799 30.0612C227.143 29.663 227.566 29.356 228.06 29.1402C228.554 28.9245 229.089 28.8167 229.674 28.8167C230.309 28.8167 230.885 28.9536 231.408 29.2274C231.931 29.5012 232.346 29.916 232.657 30.472C232.968 31.0279 233.121 31.729 233.121 32.5795V39.9682H231.358V32.6293C231.358 31.8369 231.134 31.2727 230.69 30.9325C230.246 30.5923 229.728 30.4222 229.143 30.4222C228.653 30.4222 228.23 30.5259 227.873 30.7292C227.517 30.9325 227.243 31.2187 227.052 31.5755C226.861 31.9323 226.762 32.3472 226.762 32.8118V39.9682H224.998V32.4509C224.998 31.8452 224.795 31.3515 224.393 30.9822C223.986 30.6089 223.476 30.4222 222.854 30.4222C222.43 30.4222 222.028 30.5217 221.655 30.7209C221.277 30.92 220.978 31.2146 220.75 31.6087C220.522 32.0028 220.406 32.4882 220.406 33.069V39.9682H218.643Z" fill="#263A6D"/>
<path d="M242.087 39.9683V25.365H244.281L250.222 34.7036C250.38 34.9442 250.567 35.2554 250.791 35.6329C251.015 36.0104 251.251 36.4419 251.513 36.9149C251.77 37.3919 252.023 37.9022 252.272 38.4457H252.006C251.948 37.8856 251.903 37.3463 251.878 36.8319C251.853 36.3174 251.836 35.8445 251.828 35.4172C251.82 34.9899 251.82 34.6206 251.82 34.3178V25.3608H253.682V39.9641H251.467L246.173 31.6544C245.933 31.2685 245.688 30.8703 245.443 30.4637C245.198 30.0571 244.92 29.5717 244.605 29.0117C244.29 28.4516 243.904 27.7629 243.439 26.9373H243.784C243.817 27.6633 243.846 28.3313 243.871 28.9453C243.896 29.5593 243.916 30.0945 243.933 30.5508C243.95 31.0072 243.958 31.3681 243.958 31.6295V39.96H242.087V39.9683Z" fill="#263A6D"/>
<path d="M260.059 40.2255C259.366 40.2255 258.735 40.0927 258.171 39.8355C257.607 39.5741 257.155 39.1925 256.823 38.6905C256.491 38.1885 256.321 37.5786 256.321 36.8568C256.321 36.2303 256.445 35.72 256.694 35.3259C256.943 34.9359 257.275 34.6248 257.69 34.4008C258.105 34.1767 258.565 34.0066 259.067 33.8946C259.569 33.7826 260.075 33.6955 260.586 33.6291C261.237 33.5461 261.772 33.4798 262.183 33.4341C262.594 33.3885 262.901 33.3097 263.1 33.1977C263.299 33.0856 263.399 32.899 263.399 32.6293V32.5712C263.399 32.1149 263.316 31.7249 263.145 31.4096C262.975 31.0943 262.722 30.8495 262.382 30.6794C262.042 30.5093 261.619 30.4264 261.108 30.4264C260.598 30.4264 260.138 30.5093 259.764 30.6711C259.391 30.8329 259.088 31.0404 258.856 31.2851C258.623 31.5299 258.449 31.7788 258.333 32.036L256.636 31.476C256.918 30.808 257.296 30.2895 257.773 29.9119C258.25 29.5344 258.777 29.2689 259.349 29.1154C259.922 28.9619 260.494 28.8789 261.055 28.8789C261.42 28.8789 261.839 28.9245 262.303 29.0117C262.772 29.0988 263.22 29.273 263.656 29.5344C264.091 29.7958 264.448 30.1816 264.734 30.696C265.021 31.2105 265.162 31.895 265.162 32.7496V39.9724H263.428V38.483H263.311C263.187 38.7361 262.988 39.0016 262.714 39.2713C262.44 39.541 262.083 39.7691 261.644 39.9517C261.208 40.1342 260.677 40.2255 260.055 40.2255H260.059ZM260.362 38.6656C261.017 38.6656 261.569 38.537 262.017 38.2839C262.469 38.0308 262.809 37.699 263.046 37.2882C263.282 36.8817 263.399 36.4544 263.399 36.0104V34.492C263.328 34.5792 263.17 34.6538 262.93 34.7202C262.689 34.7907 262.411 34.8488 262.1 34.9028C261.789 34.9567 261.49 34.9982 261.2 35.0355C260.909 35.0729 260.677 35.0977 260.507 35.1185C260.084 35.1724 259.685 35.2595 259.316 35.3882C258.947 35.5168 258.652 35.7034 258.428 35.9482C258.204 36.193 258.097 36.5249 258.097 36.9439C258.097 37.3214 258.196 37.6409 258.391 37.8939C258.586 38.147 258.856 38.342 259.196 38.4706C259.536 38.6034 259.926 38.6656 260.362 38.6656Z" fill="#263A6D"/>
<path d="M271.986 40.2047C271.235 40.2047 270.567 40.0969 269.982 39.877C269.397 39.6571 268.916 39.3335 268.539 38.9021C268.161 38.4706 267.904 37.9396 267.775 37.3131L269.451 36.9107C269.609 37.5123 269.904 37.952 270.339 38.2341C270.775 38.5162 271.318 38.6573 271.97 38.6573C272.733 38.6573 273.343 38.4955 273.799 38.1678C274.251 37.84 274.479 37.4542 274.479 37.002C274.479 36.6244 274.347 36.3092 274.081 36.0561C273.816 35.803 273.413 35.6163 272.87 35.4919L271.049 35.0604C270.057 34.8239 269.319 34.463 268.833 33.9693C268.348 33.4756 268.107 32.845 268.107 32.0734C268.107 31.4469 268.281 30.891 268.638 30.4139C268.991 29.9327 269.472 29.5593 270.082 29.2855C270.692 29.0117 271.389 28.8789 272.165 28.8789C272.94 28.8789 273.554 28.9909 274.081 29.2191C274.608 29.4431 275.035 29.7543 275.363 30.1484C275.691 30.5425 275.94 30.9989 276.102 31.5133L274.504 31.924C274.355 31.534 274.106 31.1773 273.753 30.8537C273.405 30.5342 272.878 30.3724 272.169 30.3724C271.513 30.3724 270.97 30.5218 270.538 30.8246C270.103 31.1233 269.887 31.505 269.887 31.9614C269.887 32.3679 270.032 32.6915 270.327 32.9363C270.621 33.1811 271.086 33.3802 271.729 33.5296L273.384 33.9237C274.376 34.1601 275.114 34.5252 275.591 35.0148C276.068 35.5085 276.305 36.1308 276.305 36.8817C276.305 37.5206 276.122 38.0931 275.761 38.5909C275.401 39.0888 274.894 39.4829 274.243 39.7733C273.592 40.0595 272.841 40.2047 271.982 40.2047H271.986Z" fill="#263A6D"/>
<path d="M279.748 27.2194C279.416 27.2194 279.126 27.1032 278.885 26.875C278.645 26.6468 278.524 26.373 278.524 26.0536C278.524 25.7341 278.645 25.452 278.885 25.2239C279.126 24.9998 279.416 24.8878 279.748 24.8878C280.08 24.8878 280.379 24.9998 280.62 25.2239C280.86 25.4479 280.98 25.7258 280.98 26.0536C280.98 26.3813 280.86 26.6468 280.62 26.875C280.379 27.1032 280.088 27.2194 279.748 27.2194ZM278.856 39.9682V29.0116H280.62V39.9682H278.856Z" fill="#263A6D"/>
<path d="M288.178 40.2047C287.187 40.2047 286.316 39.9683 285.565 39.4995C284.818 39.0307 284.233 38.371 283.814 37.5206C283.395 36.6701 283.188 35.6827 283.188 34.5626C283.188 33.4424 283.395 32.4219 283.814 31.5672C284.233 30.7168 284.814 30.053 285.565 29.5842C286.312 29.1154 287.183 28.8789 288.178 28.8789C289.174 28.8789 290.054 29.1154 290.805 29.5842C291.555 30.053 292.14 30.7168 292.559 31.5672C292.978 32.4219 293.186 33.4175 293.186 34.5626C293.186 35.7076 292.978 36.6742 292.559 37.5206C292.14 38.371 291.555 39.0307 290.805 39.4995C290.054 39.9683 289.178 40.2047 288.178 40.2047ZM288.178 38.6283C288.917 38.6283 289.523 38.4374 290 38.0599C290.477 37.6824 290.829 37.1845 291.058 36.5664C291.286 35.9482 291.402 35.2803 291.402 34.5626C291.402 33.8449 291.286 33.1645 291.058 32.538C290.829 31.9157 290.477 31.4096 290 31.0279C289.523 30.6462 288.917 30.4554 288.178 30.4554C287.44 30.4554 286.847 30.6462 286.374 31.0279C285.905 31.4096 285.552 31.9116 285.324 32.5339C285.096 33.1562 284.98 33.8324 284.98 34.5626C284.98 35.2927 285.096 35.9482 285.324 36.5664C285.552 37.1845 285.901 37.6824 286.374 38.0599C286.843 38.4374 287.444 38.6283 288.178 38.6283Z" fill="#263A6D"/>
<path d="M297.517 33.4051V39.9724H295.754V29.0158H297.451L297.459 31.6709H297.214C297.546 30.6587 298.023 29.941 298.641 29.5136C299.26 29.0905 299.981 28.8748 300.811 28.8748C301.55 28.8748 302.197 29.0283 302.753 29.3311C303.309 29.634 303.74 30.0903 304.051 30.7043C304.362 31.3183 304.516 32.0858 304.516 33.011V39.9683H302.753V33.1562C302.753 32.314 302.533 31.6544 302.093 31.1773C301.653 30.7002 301.048 30.4637 300.284 30.4637C299.762 30.4637 299.293 30.5799 298.874 30.808C298.455 31.0362 298.127 31.3681 297.882 31.8079C297.642 32.2476 297.521 32.7786 297.521 33.4051H297.517Z" fill="#263A6D"/>
<path d="M310.681 40.2255C309.988 40.2255 309.357 40.0927 308.793 39.8355C308.229 39.5741 307.777 39.1925 307.445 38.6905C307.113 38.1885 306.943 37.5786 306.943 36.8568C306.943 36.2303 307.067 35.72 307.316 35.3259C307.565 34.9359 307.897 34.6248 308.312 34.4008C308.727 34.1767 309.187 34.0066 309.689 33.8946C310.191 33.7826 310.697 33.6955 311.208 33.6291C311.859 33.5461 312.394 33.4798 312.805 33.4341C313.216 33.3885 313.523 33.3097 313.722 33.1977C313.921 33.0856 314.02 32.899 314.02 32.6293V32.5712C314.02 32.1149 313.937 31.7249 313.767 31.4096C313.597 31.0943 313.344 30.8495 313.004 30.6794C312.664 30.5093 312.241 30.4264 311.73 30.4264C311.22 30.4264 310.76 30.5093 310.386 30.6711C310.013 30.8329 309.71 31.0404 309.478 31.2851C309.245 31.5299 309.071 31.7788 308.955 32.036L307.258 31.476C307.54 30.808 307.918 30.2895 308.395 29.9119C308.872 29.5344 309.399 29.2689 309.971 29.1154C310.544 28.9619 311.116 28.8789 311.676 28.8789C312.041 28.8789 312.46 28.9245 312.925 29.0117C313.394 29.0988 313.842 29.273 314.278 29.5344C314.713 29.7958 315.07 30.1816 315.356 30.696C315.642 31.2105 315.784 31.895 315.784 32.7496V39.9724H314.049V38.483H313.933C313.809 38.7361 313.61 39.0016 313.336 39.2713C313.062 39.541 312.705 39.7691 312.265 39.9517C311.83 40.1342 311.299 40.2255 310.677 40.2255H310.681ZM310.984 38.6656C311.639 38.6656 312.191 38.537 312.639 38.2839C313.091 38.0308 313.431 37.699 313.668 37.2882C313.904 36.8817 314.02 36.4544 314.02 36.0104V34.492C313.95 34.5792 313.792 34.6538 313.552 34.7202C313.311 34.7907 313.033 34.8488 312.722 34.9028C312.411 34.9567 312.112 34.9982 311.822 35.0355C311.531 35.0729 311.299 35.0977 311.129 35.1185C310.706 35.1724 310.307 35.2595 309.938 35.3882C309.569 35.5168 309.274 35.7034 309.05 35.9482C308.826 36.193 308.718 36.5249 308.718 36.9439C308.718 37.3214 308.818 37.6409 309.013 37.8939C309.208 38.147 309.478 38.342 309.818 38.4706C310.158 38.6034 310.548 38.6656 310.984 38.6656Z" fill="#263A6D"/>
<path d="M320.646 25.3691V39.9724H318.883V25.3691H320.646Z" fill="#263A6D"/>
<path d="M15.8315 40.5241C12.3341 40.5241 9.28902 40.0387 6.69196 39.0638C4.42679 38.2133 2.31513 36.9272 0.356961 35.1972C-0.107688 34.7865 -0.120134 34.0605 0.327921 33.6332L6.12774 28.0947C6.45549 27.7836 6.96577 27.7587 7.31426 28.0491C8.63353 29.1568 10.015 30.0197 11.4505 30.642C13.1016 31.3555 14.8731 31.7165 16.7566 31.7165C18.3331 31.7165 19.5238 31.4883 20.3327 31.0278C21.1417 30.5715 21.5442 29.9367 21.5442 29.1277C21.5442 28.3187 21.1998 27.6508 20.507 27.1198C19.8142 26.5887 18.9015 26.1116 17.7689 25.6885C16.6363 25.2653 15.3834 24.8339 14.0226 24.3941C12.6577 23.9543 11.3011 23.4233 9.95695 22.7969C8.61279 22.1746 7.37234 21.4112 6.23976 20.511C5.10717 19.6107 4.19447 18.4947 3.50164 17.1505C2.80882 15.8105 2.46448 14.1677 2.46448 12.2219C2.46448 9.69126 3.09922 7.50907 4.36871 5.67121C5.6382 3.83751 7.42212 2.43526 9.72878 1.46033C12.0354 0.489542 14.7445 0 17.8601 0C20.9758 0 23.7886 0.468798 26.423 1.40225C28.7296 2.22368 30.6919 3.34382 32.3058 4.77096C32.6709 5.09455 32.6791 5.66707 32.3265 6.00311L26.3607 11.6536C25.9957 11.9979 25.4314 12.0145 25.0498 11.6909C24.0002 10.8073 22.9505 10.1269 21.9009 9.65807C20.6314 9.08971 19.2499 8.80345 17.7481 8.80345C16.5575 8.80345 15.6033 8.99014 14.8939 9.35522C14.1803 9.72445 13.8277 10.2721 13.8277 11.0064C13.8277 11.778 14.172 12.4086 14.8648 12.9065C15.5576 13.4002 16.4703 13.8524 17.6029 14.2548C18.7355 14.6572 19.9843 15.0804 21.3492 15.5201C22.7141 15.9599 24.0665 16.4826 25.4149 17.0883C26.759 17.694 27.9995 18.4657 29.132 19.4033C30.2646 20.3409 31.1773 21.5025 31.8702 22.8964C32.563 24.2904 32.9073 25.9789 32.9073 27.9619C32.9073 31.9613 31.418 35.0561 28.4392 37.2383C25.4605 39.4205 21.262 40.5116 15.8397 40.5116" fill="#263A6D"/>
<path d="M114.677 1.42717V19.8016C114.677 20.3948 113.931 20.6521 113.566 20.1874L98.3607 0.958375C98.2155 0.775834 97.9998 0.672117 97.7674 0.672117H91.1711C90.7521 0.672117 90.416 1.01231 90.416 1.43132V39.4372C90.416 39.8562 90.7562 40.1964 91.1711 40.1964H100.684C101.103 40.1964 101.443 39.8562 101.443 39.4372V21.5979C101.443 21.0628 102.119 20.8263 102.455 21.2453L116.893 39.5035C117.237 39.9392 117.76 40.1922 118.316 40.1922H124.954C125.373 40.1922 125.713 39.852 125.713 39.433V1.42717C125.713 1.00816 125.373 0.667969 124.954 0.667969H115.441C115.022 0.667969 114.682 1.00816 114.682 1.42717" fill="#263A6D"/>
<path d="M87.7858 39.0554L77.1237 24.4065C76.8333 24 76.2359 23.9834 75.9248 24.3733L69.6064 31.928C69.3948 32.1936 69.3865 32.5669 69.5856 32.8366L74.9706 39.935C75.1116 40.1299 75.3398 40.242 75.5763 40.242H87.1718C87.7816 40.242 88.1384 39.5533 87.7858 39.0554Z" fill="#263A6D"/>
<path d="M78.3725 0.414865L56.0735 27.8914C55.725 28.3519 55.8329 29.0116 56.31 29.3435L63.4166 34.2762C63.8896 34.604 64.5409 34.4753 64.8562 33.9941L86.7321 6.77476C87.0391 6.29766 86.9022 5.65877 86.4209 5.35592L79.7333 0.165945C79.2852 -0.116163 78.692 -0.00829821 78.3725 0.414865Z" fill="#4598D8"/>
<path d="M55.1607 30.7664L62.5204 35.8403C62.9104 36.1099 62.8855 36.6949 62.4748 36.9272L54.9574 40.4328C54.4928 40.7025 53.9244 40.3167 53.9991 39.7856L54.1567 31.2062C54.2231 30.7333 54.7666 30.4968 55.1607 30.7664Z" fill="#4598D8"/>
<path d="M53.995 24.1742C53.995 24.7426 54.7003 25.004 55.0736 24.5725L65.2296 12.8235C65.5324 12.4709 65.6984 12.0228 65.6984 11.5582V1.60553C65.6984 1.19896 65.3665 0.867065 64.9599 0.867065H54.8953C54.3974 0.867065 53.995 1.26949 53.995 1.76732V24.1742Z" fill="#263A6D"/>
<path d="M48.639 1.60553V39.4994C48.639 39.9101 48.3071 40.2378 47.9006 40.2378H37.9645C37.558 40.2378 37.2261 39.9059 37.2261 39.4994V1.60553C37.2261 1.19896 37.558 0.867065 37.9645 0.867065H47.9006C48.3071 0.867065 48.639 1.19896 48.639 1.60553Z" fill="#263A6D"/>
<path d="M52.9121 49.2114H53.1984C53.6298 49.2114 53.9825 48.8588 53.9825 48.4273V44.9673C53.9825 44.5649 53.6547 44.2372 53.2565 44.2372H1.95001C1.66376 44.2372 1.43558 44.4695 1.43558 44.7516V48.6555C1.43558 48.9584 1.18666 49.2073 0.883809 49.2073H0.4482C0.228321 49.2073 0.0540771 49.3857 0.0540771 49.6014V51.1862C0.0540771 51.5388 0.340334 51.8251 0.69297 51.8251H51.2775C51.7712 51.8251 52.1737 51.4227 52.1737 50.929V49.9499C52.1737 49.5392 52.5056 49.2073 52.9163 49.2073" fill="#FFBF13"/>
</svg>
