<svg width="79" height="80" viewBox="0 0 79 80" fill="none" xmlns="http://www.w3.org/2000/svg">
<path d="M77.5596 29.103L77.5527 28.8777L77.4348 28.6972C72.4033 20.8989 67.6771 15.3577 61.8344 11.0959C56.0057 6.83769 49.0841 3.88338 39.6766 1.25496L39.4652 1.19604L39.2572 1.25164C30.2831 3.63372 23.5492 6.41127 17.6959 10.6452C11.8425 14.8824 6.89792 20.5483 1.49196 28.6902L1.36713 28.8637L1.35315 29.082C0.846835 38.3544 1.41539 45.6152 3.62805 52.4845C5.85068 59.3608 9.70643 65.8173 15.7678 73.4702L15.903 73.6437L16.1077 73.7269C24.7696 77.0767 31.8503 78.779 39.0734 78.7963C46.2999 78.8173 53.6303 77.1352 62.7844 73.7269L62.9855 73.6507L63.1276 73.4772C68.9913 66.2784 72.8021 60.0785 75.0524 53.2165C77.2993 46.3545 77.9688 38.868 77.5596 29.1034V29.103Z" fill="#0090D4"/>
<path d="M68.1209 38.0495C65.846 34.6165 64.9169 31.3989 64.9099 31.364L64.4349 29.6962L64.1955 31.4125C64.1816 31.5234 63.828 34.1518 64.6949 36.8741C65.2741 38.6946 65.3223 40.151 64.8337 40.872C64.6013 41.2119 64.2478 41.3923 63.7518 41.4269C60.8667 41.621 58.8901 40.5914 56.976 39.5891C56.2201 39.1939 55.4748 38.8088 54.7048 38.5212V38.5179C54.7015 38.5179 54.6978 38.5179 54.6978 38.5179C53.12 37.9353 51.4349 37.7722 49.2885 38.8438L49.2502 38.8647C47.4161 40.0784 47.8458 41.8606 48.2586 43.5876C48.692 45.4012 49.1048 47.1175 47.2253 48.4803C47.1907 48.3485 47.1491 48.2203 47.1038 48.0918C47.3984 45.7477 46.8785 43.4764 45.741 41.6316C46.1188 39.9153 49.1634 26.1178 49.4756 23.7979C49.5379 23.3229 49.7426 22.9657 50.0928 22.7127C50.8973 22.1372 53.7095 22.2274 53.7095 22.2274C53.7095 22.2274 51.407 20.8749 50.672 20.3686C49.663 19.6715 48.706 19.0128 47.7177 19.2035C47.3465 19.2764 47.007 19.4602 46.6844 19.7618C46.4035 18.5065 45.5263 17.8996 44.6731 17.3068C44.1635 16.9529 43.6399 16.5891 43.1855 16.0725L42.6376 15.4483L42.4642 17.0711C41.9925 16.4053 41.4376 16.0412 40.9279 15.7083C40.4496 15.3964 39.7282 14.7999 39.43 14.3145C39.1317 14.7999 38.407 15.3964 37.932 15.7083C37.4224 16.0412 36.8675 16.4053 36.3958 17.0711L36.2223 15.4483L35.6744 16.0725C35.22 16.5891 34.6967 16.9533 34.1868 17.3068C33.3336 17.8996 32.4601 18.5101 32.1755 19.7618C31.853 19.4602 31.5131 19.2728 31.1423 19.2035C30.1539 19.0128 29.1969 19.6715 28.1879 20.3686C27.4529 20.8749 25.1504 22.2274 25.1504 22.2274C25.1504 22.2274 27.9593 22.1339 28.7672 22.7127C29.121 22.9657 29.3221 23.3196 29.3843 23.7979C29.6962 26.1141 32.7374 39.915 33.1189 41.6316C31.9814 43.4764 31.4648 45.7477 31.7561 48.0918C31.7111 48.2167 31.6695 48.3448 31.6346 48.4803C29.7551 47.1175 30.1679 45.3978 30.6013 43.5876C31.0141 41.8643 31.4405 40.0784 29.6097 38.8647L29.5714 38.8438C27.425 37.7722 25.7399 37.9317 24.1654 38.5179C24.1621 38.5179 24.1584 38.5179 24.1551 38.5179V38.5212C23.3852 38.8091 22.6398 39.1939 21.8839 39.5891C19.9698 40.5877 17.9932 41.621 15.1081 41.4269C14.6121 41.3923 14.2586 41.2119 14.0262 40.872C13.5372 40.1506 13.5858 38.6943 14.1651 36.8741C15.0319 34.1521 14.6817 31.5201 14.6644 31.4125L14.425 29.6962L13.95 31.364C13.9397 31.3952 13.0103 34.6129 10.7391 38.0495C9.26539 40.2755 8.93584 42.859 9.93814 44.3293C10.2467 44.78 10.5866 45.1648 10.9401 45.4977C10.6695 46.9957 10.8882 48.2543 11.6092 49.2393C11.7999 49.4992 12.022 49.7386 12.275 49.9569C12.4031 51.6317 12.958 52.9182 13.936 53.7817C13.9743 53.8164 14.0192 53.844 14.0575 53.8789C14.1997 55.8383 15.0562 57.2147 16.6167 57.9983C16.9599 59.4061 17.7229 60.4636 18.8983 61.1331C19.9488 61.7329 21.329 62.0345 23.0559 62.0345C25.712 62.0345 29.1936 61.3201 33.5523 59.8917C35.1368 61.3724 37.0755 62.4716 39.3224 63.1616L39.43 63.1962L39.5375 63.1616C41.7811 62.4716 43.7194 61.3687 45.3076 59.8917C49.6663 61.3205 53.1476 62.0345 55.804 62.0345C57.5306 62.0345 58.9111 61.7329 59.9617 61.1331C61.137 60.4603 61.9037 59.4027 62.2432 57.9983C63.8071 57.2111 64.6636 55.8379 64.8024 53.8789C64.8407 53.8476 64.8856 53.8167 64.9239 53.7817C65.9016 52.9182 66.4565 51.632 66.585 49.9569C66.8379 49.7349 67.06 49.4959 67.2507 49.2393C67.9684 48.2546 68.1904 46.9957 67.9198 45.4977C68.277 45.1648 68.6169 44.78 68.9218 44.3293C69.9244 42.859 69.5949 40.2758 68.1212 38.0495H68.1209Z" fill="white"/>
<path d="M55.2527 65.2038L55.2388 64.7704L54.8157 64.857C53.0784 65.2072 51.6949 64.6559 50.0928 64.0178C47.506 62.9879 44.5759 61.8261 39.43 64.2987C34.2806 61.8264 31.354 62.9882 28.7672 64.0178C27.165 64.6559 25.7816 65.2072 24.0443 64.857L23.6212 64.7704L23.6072 65.2038C23.5449 67.1908 22.9657 69.2227 21.8353 71.4074L21.5786 71.9034L22.1369 71.938C22.501 71.9623 22.8476 71.9726 23.1771 71.9726C25.8991 71.9726 27.5045 71.227 28.9366 70.5612C31.2355 69.4933 33.2224 68.5709 39.2978 71.0259L39.433 71.0815L39.5681 71.0259C45.6432 68.5709 47.6301 69.4933 49.9293 70.5612C51.3614 71.227 52.9668 71.9726 55.6888 71.9726C56.0184 71.9726 56.3649 71.9623 56.7291 71.938L57.2873 71.9034L57.0306 71.4074C55.8895 69.2194 55.3103 67.1908 55.2514 65.2038H55.2527Z" fill="white"/>
<path d="M39.4582 54.059C39.6629 54.059 39.8777 54.0833 40.0824 54.1422C40.2871 54.1942 40.4882 54.2774 40.6719 54.3849V54.3882L40.7585 54.4332L40.7618 54.4402L40.838 54.4851L40.8656 54.5024V54.5094C40.9039 54.5234 40.9279 54.5543 40.9628 54.5753V54.5856L41.0251 54.6272C41.8783 54.2041 42.4052 53.6043 42.7138 52.9698C43.1682 52.0404 43.1682 51.0142 43.085 50.3208C43.071 50.1577 43.04 49.9912 43.0087 49.8318C42.9774 49.6687 42.9395 49.5059 42.8942 49.3464C42.8559 49.1903 42.8077 49.0345 42.7554 48.8854C42.7035 48.7399 42.6549 48.5941 42.5923 48.445L42.5853 48.431C42.4398 48.0668 42.2734 47.7236 42.0893 47.3735C41.9056 47.0303 41.6942 46.6764 41.4755 46.2883L41.4685 46.2813C41.347 46.0386 41.2155 45.8096 41.0837 45.5842L41.0594 45.5459C40.4735 44.5193 39.8663 43.4551 39.5165 41.5617C39.3813 41.9881 39.2182 42.5117 39.0831 43.0527C38.9306 43.6422 38.6287 44.9391 38.7362 45.3239C38.906 45.7017 39.0518 46.0453 39.2738 46.4024C40.1406 47.8102 41.0005 48.906 39.6277 51.3157L39.5654 51.3297C40.6576 49.159 39.8497 47.8934 39.0488 46.5965C38.8094 46.2187 38.0778 44.5853 38.0778 44.5853C37.8627 45.5806 37.419 46.3781 36.9959 47.1408V47.1441C36.7463 47.5812 36.5106 47.9973 36.3335 48.4204C35.9693 49.3255 35.7856 50.2302 35.7926 51.0628C35.8029 51.8846 35.9973 52.6473 36.3784 53.2578C36.465 53.4069 36.5588 53.549 36.6664 53.6705C36.7772 53.7987 36.8917 53.9169 37.0096 54.0207H37.0132C37.145 54.1422 37.2975 54.2531 37.4396 54.3569C37.5851 54.4541 37.7379 54.5443 37.9007 54.6239C37.9769 54.5617 38.0601 54.4991 38.1433 54.4332C38.2475 54.3742 38.3547 54.3153 38.4589 54.2667L38.4692 54.2597L38.4832 54.2564L38.5108 54.2424H38.5212L38.5834 54.2148H38.5904C38.7359 54.1592 38.8747 54.1213 39.0205 54.09C39.166 54.0763 39.3151 54.0587 39.4576 54.0587L39.4582 54.059Z" fill="#FBD106"/>
<path d="M68.1209 38.0182C65.846 34.5852 64.9169 31.3676 64.9099 31.3326L64.4349 29.6649L64.1955 31.3812C64.1816 31.4921 63.828 34.1205 64.6949 36.8428C65.2741 38.6633 65.3223 40.1197 64.8337 40.8407C64.6013 41.1806 64.2478 41.361 63.7518 41.3956C60.8667 41.5897 58.8901 40.5601 56.976 39.5578C56.2201 39.1626 55.4748 38.7775 54.7048 38.4899V38.4866C54.7015 38.4866 54.6978 38.4866 54.6945 38.4866C53.1203 37.904 51.4349 37.7409 49.2885 38.8125L49.2502 38.8334C47.4161 40.0471 47.8458 41.8293 48.2586 43.5563C48.692 45.3698 49.1048 47.0862 47.2253 48.449C47.1907 48.3172 47.1491 48.189 47.1038 48.0605C47.3984 45.7164 46.8785 43.4451 45.741 41.6003C46.1188 39.884 49.1634 26.0865 49.4756 23.7666C49.5379 23.2916 49.7426 22.9344 50.0928 22.6814C50.8973 22.1059 53.7095 22.1961 53.7095 22.1961C53.7095 22.1961 51.407 20.8436 50.672 20.3373C49.663 19.6402 48.706 18.9815 47.7177 19.1722C47.3465 19.2451 47.007 19.4289 46.6844 19.7304C46.4035 18.4752 45.5263 17.8683 44.6731 17.2755C44.1635 16.9216 43.6399 16.5578 43.1855 16.0411L42.6376 15.417L42.4642 17.0398C41.9925 16.374 41.4376 16.0099 40.9279 15.677C40.4496 15.3651 39.7282 14.7685 39.43 14.2832C39.1317 14.7685 38.407 15.3651 37.932 15.677C37.4224 16.0099 36.8675 16.374 36.3958 17.0398L36.2223 15.417L35.6744 16.0411C35.22 16.5578 34.6967 16.9219 34.1868 17.2755C33.3336 17.8683 32.4601 18.4788 32.1755 19.7304C31.853 19.4289 31.5131 19.2414 31.1423 19.1722C30.1539 18.9815 29.1969 19.6402 28.1879 20.3373C27.4529 20.8436 25.1504 22.1961 25.1504 22.1961C25.1504 22.1961 27.9593 22.1026 28.7672 22.6814C29.121 22.9344 29.3221 23.2883 29.3843 23.7666C29.6962 26.0828 32.7374 39.8837 33.1189 41.6003C31.9814 43.4451 31.4648 45.7164 31.7561 48.0605C31.7111 48.1853 31.6695 48.3135 31.6346 48.449C29.7551 47.0862 30.1679 45.3665 30.6013 43.5563C31.0141 41.833 31.4405 40.0471 29.6097 38.8334L29.5714 38.8125C27.425 37.7409 25.7399 37.9004 24.1654 38.4866C24.1621 38.4866 24.1584 38.4866 24.1584 38.4866L24.1551 38.4899C23.3852 38.7778 22.6398 39.1626 21.8839 39.5578C19.9698 40.5564 17.9932 41.5897 15.1081 41.3956C14.6121 41.361 14.2586 41.1806 14.0262 40.8407C13.5372 40.1193 13.5858 38.663 14.1651 36.8428C15.0319 34.1208 14.6817 31.4888 14.6644 31.3812L14.425 29.6649L13.95 31.3326C13.9397 31.3639 13.0103 34.5815 10.7391 38.0182C9.26539 40.2442 8.93584 42.8276 9.93814 44.298C10.2467 44.7487 10.5866 45.1335 10.9401 45.4664C10.6695 46.9643 10.8882 48.223 11.6092 49.208C11.7999 49.4679 12.022 49.7073 12.275 49.9256C12.4031 51.6004 12.958 52.8869 13.936 53.7504C13.9743 53.785 14.0192 53.8127 14.0575 53.8476C14.1997 55.807 15.0562 57.1834 16.6167 57.967C16.9599 59.3748 17.7229 60.4323 18.8983 61.1017C19.9488 61.7016 21.329 62.0032 23.0559 62.0032C25.712 62.0032 29.1936 61.2888 33.5523 59.8604C35.1368 61.3411 37.0755 62.4403 39.3224 63.1303L39.43 63.1649L39.5375 63.1303C41.7811 62.4403 43.7194 61.3374 45.3076 59.8604C49.6663 61.2892 53.1476 62.0032 55.804 62.0032C57.5306 62.0032 58.9111 61.7016 59.9617 61.1017C61.137 60.429 61.9037 59.3714 62.2432 57.967C63.8071 57.1798 64.6636 55.8066 64.8024 53.8476C64.8407 53.8163 64.8856 53.7854 64.9239 53.7504C65.9016 52.8869 66.4565 51.6007 66.585 49.9256C66.8379 49.7036 67.06 49.4646 67.2507 49.208C67.9684 48.2233 68.1904 46.9643 67.9198 45.4664C68.277 45.1335 68.6169 44.7487 68.9218 44.298C69.9277 42.8276 69.5985 40.2445 68.1212 38.0182H68.1209ZM46.4521 46.8016C46.0915 46.2746 45.6615 45.782 45.2211 45.2793C43.9867 43.8749 42.5267 42.2142 41.9652 39.0065C44.7427 40.4732 46.459 43.4831 46.4521 46.8016ZM30.1027 23.6731C30.0125 22.997 29.7039 22.4631 29.1872 22.0919C28.7399 21.773 28.1956 21.6202 27.679 21.5543C28.0015 21.3532 28.3064 21.1415 28.5977 20.9405C29.5165 20.306 30.3107 19.7581 31.0008 19.8899C31.3856 19.9628 31.7498 20.2611 32.1069 20.788L33.9308 30.549L34.6485 30.4139L32.8073 20.5973C32.8176 19.1133 33.6049 18.5654 34.6002 17.8786C34.9401 17.643 35.3076 17.3896 35.6648 17.0777L35.7896 18.2358C35.7863 18.2461 35.7826 18.2531 35.7793 18.2634L35.7932 18.2668L36.8751 28.406L37.5998 28.3297L36.5319 18.3327C36.9863 17.1746 37.6417 16.7445 38.3281 16.2938C38.7059 16.0475 39.0944 15.7911 39.4273 15.4167L39.4306 15.4133V15.4167C39.7635 15.7911 40.152 16.0441 40.5298 16.2938C41.2199 16.7445 41.8716 17.1746 42.326 18.3327L41.2581 28.3297L41.9828 28.406L43.0647 18.2668L43.0787 18.2634C43.0753 18.2531 43.0717 18.2461 43.0683 18.2358L43.1932 17.0777C43.5503 17.3896 43.9178 17.643 44.2577 17.8786C45.253 18.5687 46.0366 19.113 46.0506 20.5973L44.2094 30.4139L44.9271 30.549L46.751 20.788C47.1082 20.2611 47.4723 19.9661 47.8571 19.8899C48.5472 19.7547 49.3411 20.306 50.2602 20.9405C50.5515 21.1415 50.86 21.3532 51.1789 21.5543C50.6623 21.6202 50.1181 21.7727 49.6707 22.0919C49.154 22.4631 48.8455 22.9933 48.7553 23.6731C48.478 25.7433 45.8912 37.5502 45.1768 40.7818C44.303 39.6513 43.1692 38.7326 41.8377 38.1291C41.7475 37.3351 41.7095 36.4507 41.7371 35.466C41.9592 34.9181 42.1116 34.3495 42.1116 33.7843C42.1116 32.4738 41.3107 31.083 40.6689 29.9665C40.2495 29.2385 39.431 27.5981 39.431 27.5981C39.431 27.5981 38.6717 29.2382 38.2519 29.9665C37.6104 31.083 36.8092 32.4734 36.8092 33.7843C36.8092 34.3046 36.934 34.8246 37.1281 35.3272H37.1211C37.1557 36.3674 37.1178 37.2932 37.0206 38.1254C35.6891 38.7289 34.5553 39.6476 33.6815 40.7781C32.9668 37.5532 30.38 25.7429 30.1027 23.6727V23.6731ZM41.3793 33.788C41.3793 34.284 41.2302 34.8006 41.0118 35.3102H41.0085C41.0085 35.3136 41.0085 35.3136 41.0085 35.3172C40.6999 36.0316 40.2492 36.725 39.8817 37.2935C39.7222 37.5399 39.5801 37.7616 39.4586 37.9626C39.3371 37.7616 39.1949 37.5395 39.0355 37.2935C38.4044 36.3225 37.5375 34.9877 37.5375 33.7913C37.5375 32.6748 38.2519 31.4332 38.883 30.3377C39.1051 29.9529 39.3025 29.606 39.4586 29.2871C39.6147 29.606 39.8124 29.9529 40.0341 30.3377C40.6653 31.4302 41.3796 32.6715 41.3796 33.788H41.3793ZM36.8957 39.0065C36.3342 42.2142 34.8742 43.8785 33.6398 45.2793C33.1961 45.782 32.766 46.2746 32.4089 46.8016C32.3985 43.4831 34.1149 40.4732 36.8957 39.0065ZM19.2561 60.4669C18.396 59.9779 17.8134 59.2673 17.4739 58.3172C18.358 58.6052 19.4089 58.7506 20.6329 58.7506C20.8896 58.7506 21.1565 58.7436 21.4268 58.7296L21.3922 58.0016C17.3803 58.1891 15.2789 57.0273 14.8421 54.3676C15.7332 54.8286 16.8464 55.0646 18.1743 55.0646C18.4482 55.0646 18.7325 55.0543 19.0274 55.0334L18.9788 54.3053C16.9363 54.4442 15.4004 54.073 14.412 53.2025C13.7013 52.5784 13.2573 51.6629 13.0702 50.4909C14.166 51.129 15.657 51.5451 17.5814 51.7392L17.6543 51.0145C14.9114 50.7335 13.0739 49.9812 12.1927 48.7745C11.6518 48.0359 11.4541 47.1241 11.5892 46.004C13.7217 47.5539 16.149 47.4846 16.2808 47.481L16.2532 46.753C16.2149 46.753 12.5636 46.8572 10.5353 43.8852C9.82463 42.845 9.87656 40.6326 11.3399 38.417C12.6195 36.482 13.4793 34.6441 13.9996 33.3509C13.9683 34.2766 13.8365 35.4454 13.462 36.6208C13.0805 37.8171 12.5709 40.0052 13.4171 41.2498C13.7776 41.7804 14.3255 42.0717 15.0502 42.1203C18.1396 42.3283 20.3034 41.1979 22.2141 40.2029C22.9111 39.8387 23.5769 39.4922 24.253 39.2285C25.439 39.3361 26.226 39.6759 26.6524 40.2721C27.5228 41.4891 26.8987 43.83 26.2396 46.3056C25.7612 48.0985 25.2653 49.9533 25.1681 51.7948C24.9983 55.505 27.2902 57.9634 32.3599 59.4753C25.914 61.4932 21.6176 61.8158 19.2561 60.4669ZM45.2281 59.0695C45.1934 59.0765 45.1621 59.0868 45.1275 59.0971L45.034 59.1214L44.9647 59.1874C43.4565 60.6404 41.5943 61.7186 39.4306 62.4016C37.2669 61.7186 35.4048 60.64 33.8965 59.1874L33.8273 59.1214L33.7337 59.0971C33.6991 59.0902 33.6678 59.0798 33.6332 59.0695C28.1234 57.6758 25.7376 55.4425 25.9041 51.8364C25.9976 50.0748 26.4833 48.2579 26.9513 46.5C27.6863 43.7364 28.3244 41.3507 27.2529 39.8527C26.92 39.388 26.438 39.0448 25.8102 38.8158C26.8331 38.677 27.9323 38.8191 29.2222 39.4606C30.5397 40.3447 30.3354 41.5341 29.888 43.3929C29.4303 45.3069 28.858 47.6927 31.6978 49.3711L32.1728 49.652L32.2457 49.1041C32.4192 47.7759 33.2374 46.8432 34.1878 45.765C35.762 43.9757 37.6863 41.7844 37.8494 36.7806C38.0435 37.1064 38.2412 37.4117 38.4217 37.689C38.7199 38.1467 39.4273 39.3917 39.4273 39.3917C39.4273 39.3917 40.1936 38.1504 40.4918 37.689C40.655 37.436 40.8317 37.162 41.0085 36.8741C41.1922 41.812 43.1063 43.9861 44.6702 45.765C45.6169 46.8435 46.4387 47.7726 46.6122 49.1041L46.6851 49.652L47.1601 49.3711C49.9999 47.6894 49.4313 45.3073 48.97 43.3929C48.5262 41.5341 48.3182 40.3484 49.6357 39.4606C50.9256 38.8191 52.0248 38.677 53.0477 38.8158C52.4203 39.0445 51.9379 39.388 51.605 39.8527C50.5335 41.3507 51.1716 43.7364 51.9066 46.5C52.3746 48.2579 52.8603 50.0751 52.9539 51.8364C53.1236 55.4391 50.7382 57.6724 45.2281 59.0699V59.0695ZM68.3186 43.8852C66.29 46.8568 62.6387 46.753 62.6007 46.753L62.5731 47.481C62.7012 47.4843 65.1323 47.5539 67.2647 46.004C67.3998 47.1241 67.2024 48.0326 66.6612 48.7745C65.7804 49.9812 63.9426 50.7339 61.1996 51.0145L61.2725 51.7392C63.1969 51.5414 64.6879 51.129 65.7837 50.4909C65.5963 51.6629 65.1492 52.5784 64.4419 53.2025C63.4536 54.073 61.9173 54.4438 59.8751 54.3053L59.8265 55.0334C60.1178 55.0543 60.402 55.0646 60.6797 55.0646C62.0079 55.0646 63.121 54.829 64.0118 54.3676C63.5784 57.0306 61.4736 58.1887 57.4617 58.0016L57.4271 58.7296C57.6977 58.7436 57.9647 58.7506 58.221 58.7506C59.445 58.7506 60.4923 58.6015 61.3801 58.3172C61.0402 59.2673 60.4576 59.9783 59.5978 60.4669C57.2364 61.8158 52.9402 61.4935 46.494 59.4753C51.5634 57.9634 53.8556 55.505 53.6859 51.7948C53.5853 49.9536 53.093 48.0985 52.6143 46.3056C51.9556 43.8296 51.3314 41.4891 52.2016 40.2721C52.628 39.6756 53.4186 39.3357 54.601 39.2285C55.277 39.4922 55.9428 39.8387 56.6398 40.2029C58.5506 41.1982 60.7106 42.3287 63.8037 42.1203C64.5284 42.0717 65.0763 41.7771 65.4369 41.2498C66.283 40.0085 65.7697 37.8168 65.3919 36.6208C65.0174 35.4487 64.8856 34.2766 64.8543 33.3509C65.3746 34.6408 66.2308 36.482 67.514 38.417C68.981 40.6363 69.0293 42.8453 68.3186 43.8855V43.8852Z" fill="#231F20"/>
<path d="M43.529 49.6101C43.4908 49.4366 43.4491 49.2562 43.4075 49.0864C43.3589 48.92 43.307 48.7536 43.2584 48.5871C43.1962 48.4174 43.1369 48.2612 43.078 48.1121L43.0677 48.0948L43.0643 48.0915C42.9049 47.6997 42.7281 47.3425 42.5337 46.975C42.3397 46.6145 42.1279 46.2433 41.8992 45.8445C41.7641 45.5915 41.6323 45.3522 41.4935 45.1165L41.4692 45.0852C40.4672 43.3203 40.1793 42.5956 39.6869 40.5601L39.5934 40.0261L39.3647 40.5914C39.2365 40.9519 38.9276 41.5933 38.6607 42.6232C38.5358 43.0913 38.432 43.556 38.3661 43.9721L38.3627 43.9618C38.3141 43.8612 38.2828 43.778 38.2482 43.7018L38.1893 43.5909L38.179 43.5806L38.1271 43.4834L37.8531 42.9701L37.69 43.8925C37.4889 45.0193 37.0139 45.8758 36.5389 46.7187V46.729C36.2859 47.1797 36.0429 47.6131 35.8455 48.0918C35.4434 49.0731 35.249 50.0615 35.2596 50.9699C35.2666 51.8956 35.4883 52.7488 35.9184 53.4492C36.0259 53.6189 36.1368 53.7717 36.2616 53.9172C36.3794 54.0627 36.5113 54.1945 36.6501 54.3263C36.8025 54.4581 36.9726 54.5863 37.1424 54.7008C37.3228 54.8223 37.5029 54.9262 37.6973 55.0197L37.7875 55.0683L37.9124 55.1272L38.0199 55.037L38.0928 54.9711H38.0961C38.1723 54.9052 38.2486 54.8463 38.3354 54.7907C38.4153 54.7318 38.5052 54.6832 38.6061 54.6382L38.6094 54.6349L38.6127 54.6316L38.6473 54.6176L38.7096 54.5899C38.8311 54.545 38.9593 54.5101 39.0771 54.4894C39.2019 54.4651 39.3337 54.4548 39.4516 54.4548C39.6283 54.4548 39.8121 54.4791 39.9892 54.531C40.159 54.5726 40.3254 54.6385 40.4815 54.7321L40.5614 54.7737L40.6306 54.8256L40.6549 54.8429L40.7312 54.8915L40.8214 54.9781L40.8873 55.0337L40.9915 55.1309L41.1163 55.0686L41.2029 55.027H41.2062C42.2082 54.538 42.822 53.848 43.1792 53.1096C43.6925 52.0554 43.6925 50.9146 43.6056 50.1483C43.5916 49.9712 43.564 49.7878 43.5294 49.6107L43.529 49.6101ZM42.5444 52.7205C42.2498 53.3203 41.7505 53.8889 40.9459 54.2914L40.887 54.2497V54.2394C40.8557 54.2221 40.828 54.1875 40.7934 54.1772V54.1702L40.7658 54.1529L40.6966 54.1079L40.6932 54.1009L40.6133 54.056V54.0527C40.4399 53.9485 40.2458 53.8689 40.0551 53.8203C39.861 53.7647 39.66 53.7404 39.4656 53.7404C39.3304 53.7404 39.1883 53.7544 39.0495 53.7787C38.9143 53.8063 38.7788 53.8446 38.6404 53.8966H38.6334L38.5745 53.9242H38.5641L38.5398 53.9382L38.5258 53.9415L38.5155 53.9485C38.4183 53.9934 38.3145 54.0527 38.2173 54.1079C38.1374 54.1669 38.0578 54.2258 37.9886 54.2884C37.8325 54.2155 37.6903 54.1289 37.5515 54.0354C37.4164 53.9382 37.2706 53.8306 37.1457 53.7165H37.1424C37.0316 53.6193 36.924 53.5084 36.8198 53.3869C36.7156 53.2691 36.6291 53.1373 36.5459 52.9951C36.1854 52.4196 36.0016 51.6949 35.991 50.9179C35.984 50.1274 36.1574 49.2709 36.5043 48.4144C36.674 48.0122 36.8927 47.6204 37.1317 47.2043V47.201C37.5339 46.4763 37.9536 45.724 38.1584 44.7773L38.193 44.8988V44.9058L38.3211 45.2663C38.3627 45.3808 38.4077 45.4847 38.4563 45.5852V45.5885C38.6297 45.9664 38.8514 46.3272 39.0804 46.6844C39.8397 47.9117 40.5817 49.2988 39.5451 51.355L39.625 51.4173C41.0467 49.1357 40.2285 47.8109 39.4067 46.476C39.1953 46.1361 39.0115 45.7859 38.8484 45.4254C38.6264 44.8083 38.9662 43.8825 39.1084 43.324C39.2365 42.8143 39.3927 42.3183 39.5175 41.9126C39.8504 43.7054 40.4259 44.7177 40.9808 45.6887L41.0051 45.7234C41.13 45.9347 41.2548 46.1498 41.3693 46.3821L41.3763 46.3855C41.5843 46.753 41.7854 47.0895 41.9588 47.4154C42.1323 47.7483 42.2917 48.0742 42.4305 48.4174L42.4375 48.4313C42.4964 48.5735 42.545 48.7086 42.5936 48.8474C42.6456 48.9896 42.6908 49.1387 42.7255 49.2845C42.7671 49.4336 42.8053 49.5898 42.833 49.7422C42.8606 49.8913 42.8919 50.0508 42.9022 50.2033C42.9751 50.8693 42.9751 51.84 42.545 52.7208L42.5444 52.7205Z" fill="#231F20"/>
<path d="M40.5784 55.6019C40.1693 55.262 38.7962 55.2307 38.4147 55.6019C38.0056 55.997 37.9743 57.7726 37.9743 57.7726C37.9743 57.7726 37.1524 58.8268 37.1734 59.2393C37.215 60.0056 38.64 61.3997 39.4273 61.403C40.2109 61.41 41.6466 60.0542 41.6812 59.2945C41.7055 58.8958 40.9183 57.8728 40.9183 57.8728C40.9183 57.8728 41.0258 55.9761 40.5784 55.6016V55.6019ZM40.9908 59.1318C40.9595 59.7559 39.9782 60.8761 39.4409 60.8724C38.8967 60.8691 37.915 59.7176 37.8911 59.0865C37.8807 58.7466 38.4423 57.8765 38.4423 57.8765C38.4423 57.8765 38.4666 56.4131 38.7406 56.0836C39.0005 55.7853 39.9473 55.8063 40.2282 56.0836C40.5335 56.3992 40.4606 57.963 40.4606 57.963C40.4606 57.963 41.0085 58.8022 40.9912 59.1318H40.9908Z" fill="#231F20"/>
<path d="M55.2527 65.1692L55.2388 64.7358L54.8157 64.8224C53.0784 65.1726 51.6949 64.6213 50.0928 63.9832C47.506 62.9533 44.5759 61.7915 39.43 64.2641C34.2806 61.7918 31.354 62.9536 28.7672 63.9832C27.165 64.6213 25.7816 65.1726 24.0443 64.8224L23.6212 64.7358L23.6072 65.1692C23.5449 67.1562 22.9657 69.1881 21.8353 71.3728L21.5786 71.8688L22.1369 71.9034C22.501 71.9277 22.8476 71.938 23.1771 71.938C25.8991 71.938 27.5045 71.1924 28.9366 70.5266C31.2355 69.4587 33.2224 68.5363 39.2978 70.9913L39.433 71.0469L39.5681 70.9913C45.6432 68.5363 47.6301 69.4587 49.9293 70.5266C51.3614 71.1924 52.9668 71.938 55.6888 71.938C56.0184 71.938 56.3649 71.9277 56.7291 71.9034L57.2873 71.8688L57.0306 71.3728C55.8929 69.1881 55.3103 67.1599 55.2514 65.1692H55.2527ZM39.0628 70.1208C33.0779 67.801 30.9106 68.8066 28.622 69.8678C27.1171 70.5682 25.5602 71.2896 22.7307 71.2027C22.8625 70.9287 22.9837 70.6584 23.1019 70.3915C25.8621 70.3568 27.4396 69.5766 28.8337 68.8865C31.0254 67.7976 32.9255 66.8579 39.0631 69.3755V70.1208H39.0628ZM39.0628 68.5882C32.8349 66.0846 30.824 67.0833 28.5075 68.2311C27.176 68.8935 25.7925 69.5659 23.3998 69.6528C23.9234 68.2693 24.225 66.9308 24.3119 65.6063C26.0698 65.8387 27.5125 65.2664 29.0348 64.6596C31.594 63.6436 34.236 62.5894 39.0631 64.8953V68.5882H39.0628ZM39.7911 64.8986C44.6212 62.5927 47.2636 63.647 49.8195 64.6629C51.3417 65.2698 52.7841 65.842 54.5424 65.6096C54.6289 66.9308 54.9308 68.2693 55.4545 69.6561C53.0617 69.5696 51.6783 68.8932 50.3468 68.2344C48.0306 67.0833 46.0193 66.088 39.7915 68.5916V64.8986H39.7911ZM50.2319 69.8675C47.9434 68.8066 45.7796 67.801 39.7911 70.1205V69.3748C45.9288 66.8573 47.8288 67.797 50.0205 68.8858C51.4143 69.5792 52.9921 70.3562 55.7524 70.3908C55.8669 70.6614 55.9917 70.9317 56.1235 71.202C53.2937 71.2889 51.7405 70.5675 50.2322 69.8672L50.2319 69.8675Z" fill="#231F20"/>
<path fill-rule="evenodd" clip-rule="evenodd" d="M14.946 28.0804C13.4826 27.387 12.7543 27.0369 11.2876 26.3431C11.0103 26.929 10.8785 27.2239 10.6322 27.8308C10.3203 27.7026 10.1712 27.64 9.86591 27.5189C10.556 25.8475 10.9478 25.0569 11.8113 23.5623C12.0922 23.7287 12.2377 23.8086 12.522 23.9784C12.2064 24.516 12.0573 24.7966 11.773 25.3618C13.2087 26.1075 13.9227 26.4886 15.3654 27.2309C15.1956 27.5671 15.1088 27.7369 14.946 28.0804Z" fill="#231F20"/>
<path fill-rule="evenodd" clip-rule="evenodd" d="M12.1581 22.955C12.3801 22.5839 12.498 22.4001 12.7337 22.0363C13.6178 22.6222 14.0549 22.9068 14.939 23.4926C15.2962 23.7283 15.5249 23.8705 15.643 23.9157C15.8268 23.9956 16.0105 23.9989 16.2013 23.94C16.385 23.8811 16.5515 23.746 16.6973 23.5342C16.8497 23.3192 16.9226 23.1251 16.9086 22.9484C16.8913 22.768 16.8287 22.6188 16.7146 22.501C16.5967 22.3692 16.3887 22.1924 16.0801 21.9634C15.2133 21.3116 14.7832 20.9857 13.9197 20.3369C14.1727 19.9901 14.3045 19.8236 14.5645 19.4977C15.3584 20.1392 15.7609 20.4651 16.5618 21.1135C17.0162 21.4847 17.3247 21.762 17.4805 21.9527C17.6366 22.1401 17.7372 22.3445 17.7858 22.5493C17.8377 22.7573 17.8377 22.9793 17.7824 23.2117C17.7305 23.451 17.6057 23.7077 17.401 23.9953C17.1546 24.3525 16.9363 24.5918 16.7212 24.7233C16.5062 24.8514 16.2981 24.928 16.0798 24.9486C15.8647 24.9763 15.6603 24.9556 15.4832 24.8864C15.206 24.7999 14.8418 24.6158 14.3734 24.3248C13.493 23.7729 13.0456 23.4956 12.1578 22.9547L12.1581 22.955Z" fill="#231F20"/>
<path fill-rule="evenodd" clip-rule="evenodd" d="M19.6099 21.1139C18.4136 20.0077 17.817 19.4495 16.6313 18.3433C16.2325 18.7837 16.0348 19.0021 15.65 19.4635C15.4003 19.2485 15.2755 19.1409 15.0225 18.9296C16.0731 17.6673 16.6383 17.0814 17.8104 15.9889C18.0357 16.2386 18.1433 16.3601 18.372 16.5991C17.9419 16.9942 17.7338 17.1956 17.3247 17.6187C18.4828 18.7628 19.055 19.3387 20.2131 20.4828C19.9598 20.7288 19.8456 20.8536 19.6096 21.1139H19.6099Z" fill="#231F20"/>
<path fill-rule="evenodd" clip-rule="evenodd" d="M23.2683 17.8024C21.7737 16.4742 21.0004 15.8364 19.3986 14.6088C19.7211 14.3521 19.8876 14.224 20.2065 13.9743C21.2607 14.8687 21.7703 15.3301 22.7723 16.2628C22.252 14.9866 22.006 14.3315 21.5553 13.0206C21.9471 12.757 22.1481 12.6255 22.5436 12.3791C23.5632 13.3568 24.0555 13.8528 25.0159 14.8827C24.5549 13.5652 24.3362 12.8994 23.9307 11.5642C24.2809 11.3735 24.4543 11.28 24.8079 11.0995C25.2899 13.0519 25.5638 14.0156 26.181 15.9193C25.8691 16.0858 25.7199 16.1793 25.4147 16.3667C24.3675 15.2848 23.8232 14.7612 22.71 13.7416C23.1954 15.1773 23.4557 15.881 24.0173 17.2715C23.7153 17.4725 23.5629 17.587 23.2683 17.8021V17.8024Z" fill="#231F20"/>
<path fill-rule="evenodd" clip-rule="evenodd" d="M25.2549 10.8778C25.6088 10.7011 25.7855 10.6179 26.1391 10.4478C26.5898 11.4151 26.8118 11.8938 27.2555 12.8578C27.436 13.2393 27.5571 13.4853 27.6334 13.5858C27.7442 13.7489 27.9003 13.8631 28.0738 13.9154C28.2472 13.971 28.4449 13.9467 28.6703 13.8598C28.8923 13.7662 29.0414 13.6447 29.114 13.4956C29.1799 13.3432 29.2042 13.1837 29.1659 13.0206C29.1277 12.8575 29.0411 12.5942 28.8953 12.23C28.5002 11.2244 28.3094 10.7251 27.914 9.71609C28.2745 9.57395 28.4582 9.50804 28.8294 9.37988C29.1726 10.3439 29.3427 10.8259 29.6929 11.7899C29.8906 12.3482 30.0155 12.747 30.0467 12.9863C30.0884 13.2326 30.0814 13.4543 30.0155 13.6554C29.9635 13.8495 29.8523 14.0332 29.6999 14.193C29.5508 14.3628 29.3254 14.5016 29.0201 14.6231C28.6596 14.7792 28.3647 14.8518 28.1393 14.8381C27.9107 14.8241 27.6956 14.7652 27.5082 14.6614C27.3245 14.5572 27.1753 14.4327 27.0575 14.2799C26.8771 14.0545 26.669 13.6973 26.423 13.2083C25.9513 12.2719 25.719 11.8109 25.2543 10.8782L25.2549 10.8778Z" fill="#231F20"/>
<path fill-rule="evenodd" clip-rule="evenodd" d="M31.299 13.7037C30.7025 11.8382 30.3939 10.9122 29.8011 9.05369C30.5847 8.80403 30.9765 8.69318 31.7741 8.49878C32.2734 8.37062 32.6512 8.33933 32.8975 8.37062C33.1439 8.4089 33.3519 8.52674 33.539 8.72081C33.7158 8.91854 33.8269 9.15788 33.8859 9.4385C33.9588 9.79901 33.9171 10.1113 33.768 10.3852C33.6225 10.6522 33.0051 11.0094 33.0051 11.0094C33.0051 11.0197 33.4038 11.1898 33.56 11.304C33.7124 11.4255 33.9241 11.6472 34.2084 11.98C34.4857 12.3129 34.6175 12.4863 34.8812 12.8295C34.4964 12.8955 34.3056 12.9337 33.9138 13.017C33.5879 12.6495 33.4215 12.469 33.0816 12.1119C32.78 11.7893 32.572 11.6022 32.4645 11.526C32.3569 11.4498 32.2531 11.4081 32.1525 11.4012C32.052 11.3802 31.9099 11.4045 31.7052 11.4531C31.6323 11.4807 31.5976 11.4877 31.5354 11.5087C31.7574 12.2923 31.8716 12.6841 32.1039 13.4713C31.7814 13.5549 31.6253 13.5998 31.2994 13.7037H31.299ZM31.306 10.7527C31.5697 10.6868 31.7012 10.6452 31.9648 10.5863C32.3809 10.4718 32.6409 10.3885 32.7451 10.3296C32.8353 10.2637 32.9082 10.1805 32.9461 10.066C32.9808 9.95846 32.9877 9.83363 32.9565 9.69149C32.9182 9.53204 32.8489 9.40355 32.7484 9.33098C32.6409 9.25109 32.5091 9.21314 32.3533 9.22346C32.277 9.22346 32.0517 9.27539 31.6735 9.36893C31.3856 9.43817 31.2471 9.48677 30.9662 9.563C31.1016 10.0383 31.1709 10.281 31.306 10.7524V10.7527Z" fill="#231F20"/>
<path fill-rule="evenodd" clip-rule="evenodd" d="M35.2936 12.757C34.978 10.8326 34.8116 9.86492 34.4997 7.9442C34.8812 7.88528 35.0752 7.85399 35.4601 7.80206C35.7167 9.73709 35.8485 10.7078 36.1155 12.6428C35.7789 12.6811 35.6232 12.7087 35.2936 12.7573V12.757Z" fill="#231F20"/>
<path fill-rule="evenodd" clip-rule="evenodd" d="M38.477 12.4311C38.3798 10.4754 38.3348 9.50105 38.2446 7.55903C38.6294 7.53473 38.8272 7.52774 39.2156 7.52441C39.2296 8.29436 39.2366 8.67917 39.2503 9.4418C39.9576 9.43847 40.3181 9.43847 41.0362 9.4661C41.0674 8.69615 41.0848 8.31833 41.1194 7.54505C41.5042 7.56602 41.6949 7.57268 42.0834 7.60397C41.9482 9.54599 41.8753 10.5237 41.7332 12.4723C41.4106 12.4447 41.2409 12.441 40.9113 12.4274C40.9459 11.5742 40.9633 11.1478 40.9979 10.295C40.3045 10.2673 39.9506 10.2637 39.2572 10.274C39.2712 11.1305 39.2782 11.5569 39.2919 12.4064C38.9693 12.4064 38.8065 12.4134 38.477 12.4307V12.4311Z" fill="#231F20"/>
<path fill-rule="evenodd" clip-rule="evenodd" d="M46.2197 13.1421C45.8728 13.0589 45.6994 13.0206 45.3459 12.9513C45.2973 12.4866 45.2627 12.2543 45.2004 11.7863C44.5347 11.6648 44.1985 11.6095 43.529 11.5263C43.328 11.9494 43.2344 12.1574 43.0437 12.5872C42.6935 12.5422 42.5234 12.5316 42.1732 12.4936C42.9741 10.6072 43.4355 9.67114 44.4618 7.84363C44.8709 7.90588 45.0686 7.92685 45.4707 7.99975C45.8905 10.0593 46.0396 11.0859 46.2197 13.1421ZM45.0756 10.9331C44.9784 10.1808 44.9125 9.80262 44.781 9.04665C44.4135 9.72273 44.2367 10.0663 43.9039 10.7527C44.3756 10.8149 44.6112 10.8532 45.0759 10.9328L45.0756 10.9331Z" fill="#231F20"/>
<path fill-rule="evenodd" clip-rule="evenodd" d="M46.6604 13.2426C47.1457 11.3529 47.3954 10.4028 47.8774 8.5094C48.2486 8.60294 48.4287 8.65487 48.7928 8.75207C49.1916 10.2257 49.3511 10.9574 49.5834 12.4207C50.0205 11.1897 50.2458 10.5829 50.6756 9.34859C51.0188 9.47009 51.1889 9.52901 51.5321 9.65717C50.8281 11.481 50.4712 12.3964 49.7602 14.2239C49.4483 14.0958 49.2885 14.0435 48.9766 13.9327C48.7755 12.5146 48.6334 11.8069 48.2795 10.3818C47.9293 11.6058 47.7489 12.216 47.3954 13.4403C47.1041 13.3571 46.9517 13.3225 46.6604 13.2426Z" fill="#231F20"/>
<path fill-rule="evenodd" clip-rule="evenodd" d="M52.4928 10.0387C53.1552 10.3196 53.4811 10.4651 54.1259 10.7807C54.4934 10.9504 54.7534 11.1205 54.9095 11.273C55.1209 11.481 55.2634 11.7307 55.3396 12.0186C55.4088 12.2996 55.4088 12.6082 55.3429 12.9271C55.2807 13.2496 55.1279 13.6068 54.8955 14.0019C54.6908 14.3488 54.4794 14.6294 54.2541 14.8375C53.9768 15.0871 53.7028 15.2639 53.4252 15.3611C53.2138 15.4373 52.9815 15.4583 52.7178 15.427C52.5168 15.4027 52.2808 15.3195 52.0071 15.1876C51.4419 14.917 51.1576 14.7785 50.5751 14.5392C51.3414 12.7396 51.7262 11.8415 52.4928 10.0383V10.0387ZM53.0477 11.1828C52.4998 12.3582 52.2258 12.9514 51.6849 14.1234C51.9206 14.231 52.0351 14.2865 52.2708 14.3941C52.4891 14.5016 52.6486 14.5638 52.7561 14.5848C52.9016 14.6091 53.0371 14.6058 53.1619 14.5605C53.2867 14.5222 53.4289 14.415 53.5883 14.2519C53.7478 14.0888 53.9109 13.8392 54.0909 13.5063C54.2747 13.1734 54.3855 12.9028 54.4238 12.6914C54.4621 12.4867 54.4585 12.3066 54.4135 12.1574C54.3616 11.998 54.2574 11.8628 54.1222 11.7447C54.0147 11.6581 53.7894 11.5296 53.4425 11.3599C53.2797 11.2906 53.1998 11.256 53.0474 11.1831L53.0477 11.1828Z" fill="#231F20"/>
<path fill-rule="evenodd" clip-rule="evenodd" d="M57.3715 18.6486C57.0872 18.4059 56.9414 18.2914 56.6468 18.0627C56.803 17.6223 56.8825 17.404 57.0213 16.9566C56.4631 16.5405 56.1718 16.3324 55.5963 15.9546C55.2251 16.2459 55.052 16.3983 54.6912 16.6896C54.3929 16.4989 54.2405 16.4086 53.9282 16.2286C55.4921 14.8797 56.3173 14.2346 58.0546 13.0489C58.4048 13.2776 58.5749 13.3991 58.9148 13.6487C58.4121 15.6979 58.0999 16.7036 57.3719 18.6489L57.3715 18.6486ZM57.285 16.1174C57.5137 15.3824 57.6249 15.0112 57.8292 14.2692C57.2018 14.713 56.8965 14.949 56.2863 15.4133C56.6921 15.684 56.8899 15.8261 57.285 16.1174Z" fill="#231F20"/>
<path fill-rule="evenodd" clip-rule="evenodd" d="M58.1518 19.3107C58.7031 18.6968 58.977 18.3883 59.525 17.7744C59.7746 16.4812 59.8751 15.8151 60.0103 14.4733C60.3778 14.7679 60.5582 14.917 60.9187 15.2292C60.7733 16.1237 60.69 16.5677 60.4886 17.4416C61.3312 17.1709 61.7682 17.0428 62.635 16.8244C62.9749 17.1606 63.1377 17.3307 63.4603 17.6776C62.1254 17.9063 61.47 18.0521 60.1974 18.4056C59.6321 18.9984 59.3479 19.3 58.786 19.8932C58.5326 19.6575 58.4078 19.5467 58.1515 19.3107H58.1518Z" fill="#231F20"/>
<path fill-rule="evenodd" clip-rule="evenodd" d="M62.3025 24.0299C62.0841 23.7074 61.9663 23.5479 61.7303 23.236C61.9939 22.8372 62.1188 22.6465 62.3718 22.2407C61.9244 21.6581 61.685 21.3772 61.2137 20.8259C60.7836 21.0134 60.5689 21.1069 60.1491 21.2976C59.8925 21.0237 59.7643 20.8815 59.511 20.6216C61.3801 19.7408 62.3508 19.342 64.3481 18.6762C64.6323 19.0124 64.7781 19.1858 65.0484 19.5294C64.0395 21.4121 63.4949 22.3139 62.3022 24.0302L62.3025 24.0299ZM62.8295 21.4917C63.2456 20.8329 63.4363 20.5034 63.8211 19.8203C63.0894 20.0803 62.7359 20.2121 62.0249 20.5034C62.3508 20.8849 62.5172 21.0859 62.8295 21.4917Z" fill="#231F20"/>
<path fill-rule="evenodd" clip-rule="evenodd" d="M62.5831 24.4357C64.1989 23.3435 64.9998 22.7923 66.6193 21.6964C66.8516 22.0433 66.9661 22.2234 67.1915 22.5772C66.55 24.0232 66.1928 24.72 65.4229 26.0518C66.5707 25.4277 67.1495 25.1224 68.2907 24.5052C68.4814 24.8727 68.5786 25.0565 68.7657 25.424C67.0181 26.2978 66.1442 26.7382 64.4 27.605C64.2265 27.2688 64.1433 27.0954 63.9665 26.7625C64.7295 25.4932 65.0867 24.8275 65.7245 23.451C64.6496 24.1271 64.1153 24.474 63.0405 25.157C62.8634 24.8624 62.7698 24.72 62.5828 24.4357H62.5831Z" fill="#231F20"/>
<path fill-rule="evenodd" clip-rule="evenodd" d="M64.8234 28.4895C66.5989 27.6849 67.4864 27.2725 69.262 26.4713C69.4494 26.8804 69.5393 27.0921 69.7164 27.5185C67.9098 28.2641 67.0081 28.6386 65.2085 29.3806C65.0524 29.0201 64.9831 28.8397 64.8237 28.4895H64.8234Z" fill="#231F20"/>
</svg>
