<svg width="255" height="80" viewBox="0 0 255 80" fill="none" xmlns="http://www.w3.org/2000/svg">
<g clip-path="url(#clip0_12210_4477)">
<path d="M90.3377 27.7996H92.811C97.3718 27.7996 100.364 24.9535 101.295 21.7424C102.323 18.192 100.807 15.6082 96.3434 15.6082H88.8748L83.5401 34.0135H88.5381L90.3377 27.7996ZM92.6747 19.732H94.6646C96.1686 19.732 96.5543 20.5161 96.1969 21.7424C95.8498 22.9431 95.0091 23.7272 93.5077 23.7272H91.5178L92.6747 19.732ZM99.7525 34.011L105.085 15.6056H116.582L115.394 19.7037H108.895L108.026 22.7065H113.762L112.635 26.5964H106.9L105.938 29.9129H112.438L111.25 34.011H99.7525ZM113.723 34.011L119.058 15.6056H124.053L127.688 26.0205L130.707 15.6056H135.702L130.367 34.011H125.372L121.701 23.7246L118.721 34.011H113.723ZM140.337 34.011C146.073 34.011 150.845 30.1211 152.387 24.7941C153.953 19.39 151.405 15.6056 145.672 15.6056H138.561L133.226 34.011H140.337ZM142.268 20.043H144.001C146.88 20.043 148.199 21.7399 147.315 24.7941C146.438 27.8227 144.142 29.4938 141.263 29.4938H139.53L142.268 20.043ZM151.961 34.011L157.295 15.6056H162.293L156.959 34.011H151.961ZM166.924 34.011C172.659 34.011 177.431 30.1211 178.974 24.7941C180.539 19.39 177.991 15.6056 172.258 15.6056H165.147L159.812 34.011H166.924ZM168.857 20.043H170.59C173.469 20.043 174.788 21.7399 173.904 24.7941C173.027 27.8227 170.731 29.4938 167.852 29.4938H166.119L168.857 20.043ZM178.549 34.011L183.884 15.6056H188.882L183.547 34.011H178.549ZM198.885 24.5345L203.071 34.011H197.029L193.733 25.9433L191.396 34.011H186.398L191.733 15.6056H196.731L194.43 23.5421L202.313 15.6056H208.074L198.885 24.5345ZM215.571 15.6056L203.685 34.011H208.935L210.773 31.0081H217.144L217.242 34.011H222.52L221.327 15.6056H215.566H215.571ZM213.185 27.0926L216.823 21.1408L217.034 27.0926H213.185ZM246.137 15.6056L240.802 34.011H235.807L232.135 23.7246L229.153 34.011H224.158L229.49 15.6056H234.488L238.123 26.0205L241.141 15.6056H246.137ZM95.3562 43.2844C96.2406 40.2301 94.4975 38.5075 90.8545 38.5075H82.2367L76.9045 56.9103H85.8C89.6487 56.9103 92.3688 55.0053 93.2686 51.8996C93.8753 49.812 93.1118 47.9583 91.1141 47.4621C93.0166 46.9659 94.7135 45.5031 95.3562 43.2844ZM88.3555 51.1669C88.0367 52.2647 87.2474 52.7866 86.0005 52.7866H83.0954L84.0646 49.4443H86.9441C88.1678 49.4443 88.682 50.0459 88.3555 51.1669ZM89.9855 44.2227C89.6744 45.2923 88.862 45.8142 87.6382 45.8142H85.1161L86.0545 42.5773H88.5792C89.803 42.5773 90.3069 43.125 89.9881 44.2227M101.156 49.4957L100.195 52.8123H106.694L105.506 56.9103H94.009L99.3437 38.5075H110.841L109.653 42.6056H103.154L102.282 45.6085H108.018L106.892 49.4983H101.156V49.4957ZM126.184 44.4053C127.138 41.117 125.652 38.505 121.189 38.505H113.312L107.977 56.9078H112.975L114.942 50.1205H115.476L117.078 56.9078H122.66L120.688 49.7297C123.606 48.8941 125.485 46.8065 126.182 44.4053M121.027 44.6932C120.665 45.9453 119.778 46.6266 118.428 46.6266H115.955L117.068 42.7882H119.541C120.891 42.7882 121.361 43.544 121.027 44.6932ZM151.14 38.5075L145.808 56.9103H140.813L143.757 46.7551L137.425 56.9103H133.244L132.794 46.678L129.83 56.9103H124.832L130.167 38.5075H136.208L137.255 50.465L145.13 38.5075H151.146H151.14ZM164.399 38.5075H169.397L166.301 49.1847C164.782 54.432 160.44 57.0955 156.133 57.0955C151.827 57.0955 149.31 54.432 150.829 49.1847L153.925 38.5075H158.894L155.799 49.1847C155.246 51.0923 155.74 52.2904 157.627 52.2904C159.514 52.2904 160.753 51.0897 161.306 49.1847L164.399 38.5075ZM184.504 42.5799H179.711L175.557 56.9103H170.561L174.713 42.5799H169.973L171.153 38.5075H185.681L184.501 42.5799H184.504ZM197.947 38.5075H202.945L199.85 49.1847C198.33 54.432 193.988 57.0955 189.681 57.0955C185.375 57.0955 182.858 54.432 184.378 49.1847L187.47 38.5075H192.443L189.347 49.1847C188.795 51.0923 189.288 52.2904 191.175 52.2904C193.062 52.2904 194.301 51.0897 194.854 49.1847L197.947 38.5075Z" fill="white"/>
<path d="M86.0006 61.4121L82.9052 72.0892C82.3524 73.9943 81.1132 75.1949 79.2261 75.1949C77.3391 75.1949 76.848 73.9943 77.3982 72.0892L80.4936 61.4121H75.524L72.4286 72.0892C70.9091 77.3365 73.3978 79.9974 77.7324 79.9974C82.067 79.9974 86.3811 77.334 87.9005 72.0892L90.9959 61.4121H85.998H86.0006Z" fill="white"/>
<path d="M102.383 71.827L98.7473 61.4121H93.7494L88.4172 79.8175H93.4126L96.3949 69.5311L100.066 79.8175H105.062L110.396 61.4121H105.401L102.383 71.827Z" fill="white"/>
<path d="M126.789 61.4121H112.258L111.078 65.4845H115.818L111.666 79.8175H116.662L120.816 65.4845H125.606L126.789 61.4121Z" fill="white"/>
<path d="M139.049 61.4121L135.954 72.0892C135.401 73.9943 134.162 75.1949 132.275 75.1949C130.388 75.1949 129.897 73.9943 130.447 72.0892L133.542 61.4121H128.573L125.477 72.0892C123.958 77.3365 126.447 79.9974 130.781 79.9974C135.116 79.9974 139.43 77.334 140.949 72.0892L144.045 61.4121H139.047H139.049Z" fill="white"/>
<path d="M157.378 61.4121L149.498 69.3486L151.796 61.4121H146.801L141.466 79.8175H146.461L148.801 71.7499L152.097 79.8175H158.136L153.951 70.341L163.139 61.4121H157.378Z" fill="white"/>
<path d="M173.551 66.4768C173.809 65.5899 174.523 65.1451 175.256 65.1708C176.174 65.1708 176.711 65.6927 176.428 66.8419H181.858C182.74 63.1886 180.634 61.1241 176.505 61.1241C172.708 61.1241 169.214 63.0549 168.173 66.6568C166.242 73.0533 175.361 71.6701 174.534 74.619C174.284 75.4803 173.459 75.9508 172.567 75.9508C171.675 75.9508 170.996 75.4803 171.294 74.0971H165.967C165.029 78.0384 167.571 79.9974 171.574 79.9974C175.832 79.9974 179.012 77.4651 179.951 74.2282C181.66 68.3279 172.762 69.2149 173.557 66.4743" fill="white"/>
<path d="M193.53 72.4029L194.656 68.513H188.921L189.792 65.5102H196.291L197.479 61.4121H185.982L180.647 79.8175H192.144L193.332 75.7168H186.833L187.794 72.4029H193.53Z" fill="white"/>
<path d="M214.915 61.4121L207.04 73.3696L205.994 61.4121H199.952L194.618 79.8175H199.613L202.58 69.5826L203.03 79.8175H207.21L213.542 69.6597L210.601 79.8175H215.597L220.931 61.4121H214.915Z" fill="white"/>
<path d="M239.185 61.4121H234.187L231.094 72.0892C230.541 73.9943 229.302 75.1949 227.415 75.1949C225.528 75.1949 225.037 73.9943 225.587 72.0892L228.683 61.4121H223.713L220.618 72.0892C219.098 77.3365 221.589 79.9974 225.922 79.9974C230.254 79.9974 234.57 77.334 236.092 72.0892L239.185 61.4121Z" fill="white"/>
<path d="M253.027 61.4121H247.265L235.38 79.8175H240.63L242.468 76.8146H248.839L248.937 79.8175H254.212L253.022 61.4121H253.027ZM244.88 72.8991L248.515 66.9473L248.728 72.8991H244.88Z" fill="white"/>
<mask id="mask0_12210_4477" style="mask-type:luminance" maskUnits="userSpaceOnUse" x="0" y="0" width="81" height="80">
<path d="M40.5849 32.6047H51.478L47.1562 46.9197H36.2631L40.5849 32.6047ZM64.5178 0C62.461 0 60.6459 1.35232 60.0598 3.32423L56.4167 15.5645H45.5237L50.1539 0H34.7386C32.7281 0 30.9567 1.32146 30.3834 3.2471L26.7172 15.5645H15.8293C13.7802 15.5645 11.9909 16.9528 11.487 18.9376L8.43269 30.9027L8.13446 32.6047H21.7784L17.4567 46.9197H7.65369C5.71006 46.9197 4.01324 48.2386 3.53247 50.1205L0 63.9625H12.5231L7.89022 79.5269H23.3467C25.3341 79.5269 27.0823 78.2209 27.6505 76.3184L31.3269 63.9625H42.22L37.5872 79.5269H53.1234C55.0619 79.5269 56.7715 78.2518 57.3243 76.393L61.0239 63.9625H62.9418C64.9266 63.9625 66.6722 62.6539 67.2276 60.7462L71.2588 46.9197H65.9601L70.2793 32.6047H72.0326C74.0483 32.6047 75.8196 31.2755 76.3852 29.3396L80.4036 15.5645H75.2206L79.8535 0H64.5178Z" fill="white"/>
</mask>
<g mask="url(#mask0_12210_4477)">
<path d="M65.4163 -31.3138L-30.9707 14.8258L14.9912 110.842L111.378 64.7022L65.4163 -31.3138Z" fill="white"/>
</g>
</g>
<defs>
<clipPath id="clip0_12210_4477">
<rect width="254.217" height="80" fill="white"/>
</clipPath>
</defs>
</svg>
